<?xml version="1.0" standalone="no"?>
<!DOCTYPE svg PUBLIC "-//W3C//DTD SVG 1.1//EN" "http://www.w3.org/Graphics/SVG/1.1/DTD/svg11.dtd" >
<svg>
<metadata>
Created by FontForge 20090914 at Fri Aug 18 10:44:27 2017
 By www-data
Copyright (c) 2008-2012 by Jos Buivenga/exljbris. All rights reserved.
</metadata>
<defs>
<font id="MuseoCyrl-500" horiz-adv-x="577" >
  <font-face 
    font-family="Museo Cyrl 500"
    font-weight="400"
    font-stretch="normal"
    units-per-em="1000"
    panose-1="2 0 0 0 0 0 0 0 0 0"
    ascent="750"
    descent="-250"
    x-height="505.999"
    cap-height="706"
    bbox="-108 -237 1088 892.001"
    underline-thickness="50"
    underline-position="-50"
    unicode-range="U+0020-U+FB04"
  />
<missing-glyph horiz-adv-x="510" 
d="M5 0v700h500v-700h-500zM255 395l170 255h-340zM285 350l170 -255v510zM55 95l170 255l-170 255v-510zM85 50h340l-170 255z" />
    <glyph glyph-name="f_f" unicode="ff" horiz-adv-x="631" 
d="M85 0l-0.000976562 428.002h-63v78h63v17c0 32 4.66699 59.833 14 83.5s20.833 42 34.5 55s29.667 23.333 48 31s34.833 12.667 49.5 15s29.667 3.5 45 3.5l37 -3v-83c-6.66699 1.33301 -15 2 -25 2c-11.333 0 -22.333 -1.33301 -33 -4s-22 -7.33398 -34 -14.001
s-21.5 -17.667 -28.5 -33s-10.5 -34 -10.5 -56v-14h218v17c0 32 4.66699 59.833 14 83.5s20.833 42 34.5 55s29.667 23.333 48 31s34.833 12.667 49.5 15s29.667 3.5 45 3.5l37 -3v-83c-7.33301 1.33301 -15.666 2 -24.999 2c-11.333 0 -22.333 -1.33301 -33 -4
s-22 -7.33398 -34 -14.001s-21.5 -17.667 -28.5 -33s-10.5 -34 -10.5 -56v-14h119v-78h-119v-428h-97v428h-218v-428h-97z" />
    <glyph glyph-name="fi" unicode="fi" horiz-adv-x="585" 
d="M85 0l-0.000976562 428.001h-63v78h63v17c0 32 4.66699 59.833 14 83.5s20.833 42 34.5 55s29.667 23.333 48 31s34.833 12.667 49.5 15s29.667 3.5 45 3.5l37 -3v-83c-7.33301 1.33301 -16.333 2 -27 2c-11.333 0 -22.166 -1.33301 -32.499 -4
s-21.333 -7.33398 -33 -14.001s-21 -17.667 -28 -33s-10.5 -34 -10.5 -56v-14h255c22.667 0 39 -5 49 -15s15 -26.333 15 -49v-337c0 -14.667 7.33301 -22 22 -22h41v-83h-95c-22.667 0 -39.167 5 -49.5 15s-15.5 26.333 -15.5 49v342c0 14.667 -7.33301 22 -22 22h-200
v-428h-97zM405.999 605.001v101h88v-101h-88z" />
    <glyph glyph-name="fl" unicode="fl" horiz-adv-x="580" 
d="M85 0l0.000976562 428.001h-63v78h63v17c0 31.333 4.66699 58.833 14 82.5s20.666 41.667 33.999 54s29.5 22.166 48.5 29.499s35.5 12 49.5 14s29 3 45 3h154c22.667 0 39.167 -5 49.5 -15s15.5 -26.333 15.5 -49v-537c0 -14.667 7.33301 -22 22 -22h41v-83h-96
c-22.667 0 -39 5 -49 15s-15 26.333 -15 49v537c0 14.667 -7.33301 22 -22 22h-88c-70.667 0 -106 -34 -106 -102v-15h120v-78h-120v-428h-97z" />
    <glyph glyph-name="f_f_i" unicode="ffi" horiz-adv-x="899" 
d="M85 0l-0.00195312 428.002h-63v78h63v17c0 32 4.66699 59.833 14 83.5s20.833 42 34.5 55s29.667 23.333 48 31s34.833 12.667 49.5 15s29.667 3.5 45 3.5l37 -3v-83c-7.33301 1.33301 -16.333 2 -27 2c-11.333 0 -22.166 -1.33301 -32.499 -4
s-21.333 -7.33398 -33 -14.001s-21 -17.667 -28 -33s-10.5 -34 -10.5 -56v-14h218v17c0 32 4.66699 59.833 14 83.5s20.833 42 34.5 55s29.667 23.333 48 31s34.833 12.667 49.5 15s29.667 3.5 45 3.5l37 -3v-83c-7.33301 1.33301 -16.333 2 -27 2
c-11.333 0 -22.166 -1.33301 -32.499 -4s-21.333 -7.33398 -33 -14.001s-21 -17.667 -28 -33s-10.5 -34 -10.5 -56v-14h255c22.667 0 39 -5 49 -15s15 -26.333 15 -49v-337c0 -14.667 7.33301 -22 22 -22h41v-83h-96c-22.667 0 -39 5 -49 15s-15 26.333 -15 49v342
c0 14.667 -7.33301 22 -22 22h-200v-428h-97v428h-218v-428h-97zM720.998 605.002v101h87v-101h-87z" />
    <glyph glyph-name="f_f_l" unicode="ffl" horiz-adv-x="894" 
d="M85 0l0.000976562 427.999h-63v78h63v19c0 31.333 4.66699 58.833 14 82.5s20.5 41.834 33.5 54.501s28.667 22.834 47 30.501s34.833 12.667 49.5 15s29.667 3.5 45 3.5l39 -3v-83c-8 1.33301 -17 2 -27 2c-11.333 0 -22.166 -1.33301 -32.499 -4
s-21.333 -7.33398 -33 -14.001s-21 -17.667 -28 -33s-10.5 -33.666 -10.5 -54.999v-15h218v17c0 31.333 4.66699 58.833 14 82.5s20.666 41.667 33.999 54s29.333 22.166 48 29.499s35.167 12 49.5 14s29.166 3 44.499 3h155c22.667 0 39 -5 49 -15s15 -26.333 15 -49v-537
c0 -14.667 7.33301 -22 22 -22h41v-83h-95c-22.667 0 -39 5 -49 15s-15 26.333 -15 49v537c0 14.667 -7.33301 22 -22 22h-88c-70.667 0 -106 -34 -106 -102v-15h119v-78h-119v-428h-97v428h-218v-428h-97z" />
    <glyph glyph-name="f_j" unicode="fj" horiz-adv-x="586" 
d="M85 0l0.000976562 428h-63v78h63v17c0 32 4.66699 59.833 14 83.5s20.833 42 34.5 55s29.667 23.333 48 31s34.833 12.667 49.5 15s29.667 3.5 45 3.5l37 -3v-83c-7.33301 1.33301 -16.333 2 -27 2c-11.333 0 -22.166 -1.33301 -32.499 -4s-21.333 -7.33398 -33 -14.001
s-21 -17.667 -28 -33s-10.5 -34 -10.5 -56v-14h276c22.667 0 39 -5 49 -15s15 -26.333 15 -49v-459c0 -32 -4.83301 -60 -14.5 -84s-21.334 -42.5 -35.001 -55.5s-30 -23.5 -49 -31.5s-35.833 -13 -50.5 -15s-29.667 -3 -45 -3l-34 2v83c6 -0.666992 13.333 -1 22 -1
c12 0 23.333 1.33301 34 4s22.167 7.33398 34.5 14.001s22.166 18 29.499 34s11 35.667 11 59v417c0 14.667 -7.33301 22 -22 22h-221v-428h-97zM428.001 605v101h87v-101h-87z" />
    <glyph glyph-name=".notdef" horiz-adv-x="510" 
d="M5 0v700h500v-700h-500zM255 395l170 255h-340zM285 350l170 -255v510zM55 95l170 255l-170 255v-510zM85 50h340l-170 255z" />
    <glyph glyph-name="space" unicode=" " horiz-adv-x="269" 
 />
    <glyph glyph-name="exclam" unicode="!" horiz-adv-x="268" 
d="M91 194l-7 512h100l-6 -512h-87zM85 0v97h99v-97h-99z" />
    <glyph glyph-name="quotedbl" unicode="&#x22;" horiz-adv-x="345" 
d="M204 530v188h77v-188h-77zM64 530v188h76v-188h-76z" />
    <glyph glyph-name="numbersign" unicode="#" horiz-adv-x="707" 
d="M134 0l34 191h-131l12 74h131l30 168h-130l12 73h130l35 200h81l-35 -200h155l35 200h82l-35 -200h130l-12 -73h-131l-30 -168h130l-12 -74h-130l-33 -191h-82l34 191h-155l-34 -191h-81zM261 265h155l30 168h-155z" />
    <glyph glyph-name="dollar" unicode="$" 
d="M53 125l71 59c1.33301 -2.66699 3.66602 -6.33398 6.99902 -11.001s10.333 -13.167 21 -25.5s22 -23 34 -32s27.833 -17.333 47.5 -25s40.167 -11.5 61.5 -11.5c36 0 65.167 9.83301 87.5 29.5s33.5 44.834 33.5 75.501c0 27.333 -11.667 51 -35 71
s-51.833 37.333 -85.5 52s-67.167 30.667 -100.5 48s-61.666 41.166 -84.999 71.499s-35 66.5 -35 108.5c0 46.667 17 86.5 51 119.5s78.333 53.167 133 60.5v94h73v-93c26.667 -3.33301 51.667 -9.16602 75 -17.499s44.166 -22.166 62.499 -41.499s27.5 -42.333 27.5 -69
v-58h-92v33c0 18 -10.167 33.167 -30.5 45.5s-44.833 18.5 -73.5 18.5c-37.333 0 -67.333 -8.66699 -90 -26s-34 -39 -34 -65c0 -20 6.33301 -37.667 19 -53s29 -28.5 49 -39.5s42 -21.667 66 -32s48.167 -21.833 72.5 -34.5s46.5 -26.834 66.5 -42.501
s36.333 -36.167 49 -61.5s19 -54 19 -86c0 -49.333 -17 -92.666 -51 -129.999s-79 -59.333 -135 -66v-93h-73v92c-26.667 3.33301 -52 10.166 -76 20.499s-43.5 21.833 -58.5 34.5s-28.167 25 -39.5 37s-19.666 22 -24.999 30z" />
    <glyph glyph-name="percent" unicode="%" horiz-adv-x="748" 
d="M193 422c-42.667 0 -78.667 14.333 -108 43s-44 63.667 -44 105c0 40.667 14.833 75.5 44.5 104.5s65.5 43.5 107.5 43.5c41.333 0 77 -14.5 107 -43.5s45 -63.833 45 -104.5s-15 -75.5 -45 -104.5s-65.667 -43.5 -107 -43.5zM57 0l540 706h94l-540 -706h-94zM193 496
c20.667 0 38.167 7.16699 52.5 21.5s21.5 31.833 21.5 52.5s-7.16699 38.334 -21.5 53.001s-31.833 22 -52.5 22s-38.167 -7.33301 -52.5 -22s-21.5 -32.334 -21.5 -53.001c0 -21.333 7.16699 -39 21.5 -53s31.833 -21 52.5 -21zM404 136c0 40.667 14.667 75.5 44 104.5
s65 43.5 107 43.5s77.833 -14.5 107.5 -43.5s44.5 -63.833 44.5 -104.5s-14.833 -75.5 -44.5 -104.5s-65.5 -43.5 -107.5 -43.5s-77.667 14.333 -107 43s-44 63.667 -44 105zM482 136c0 -20.667 7 -38.167 21 -52.5s31.333 -21.5 52 -21.5s38.167 7 52.5 21
s21.5 31.667 21.5 53c0 20.667 -7.16699 38.334 -21.5 53.001s-31.833 22 -52.5 22s-38 -7.33301 -52 -22s-21 -32.334 -21 -53.001z" />
    <glyph glyph-name="ampersand" unicode="&#x26;" horiz-adv-x="638" 
d="M43 202c0 38.667 10.999 75.001 32.999 109.001s52 56.333 90 67v2c-2.66699 0.666992 -6 2 -10 4s-11.333 7.16699 -22 15.5s-20 17.833 -28 28.5s-15.333 25.667 -22 45s-10 40.333 -10 63c0 54.667 19.5 98.667 58.5 132s90.167 50 153.5 50c14 0 28.5 -1 43.5 -3
s26.5 -3.66699 34.5 -5l12 -3l-25 -79c-20 4.66699 -38 7 -54 7c-36 0 -65.5 -10.333 -88.5 -31s-34.5 -46.667 -34.5 -78c0 -12.667 1.83301 -24.834 5.5 -36.501s9.83398 -23.5 18.501 -35.5s22 -21.5 40 -28.5s40 -10.5 66 -10.5h127v91h97v-91h90v-86h-90v-94
c0 -78 -21.167 -138.667 -63.5 -182s-100.833 -65 -175.5 -65c-72 0 -131 20.333 -177 61s-69 91.667 -69 153zM144.999 203.001c0 -34.667 13 -64 39 -88s61 -36 105 -36c44.667 0 79.5 13.167 104.5 39.5s37.5 66.5 37.5 120.5v90h-126c-51.333 0 -90.833 -11 -118.5 -33
s-41.5 -53 -41.5 -93z" />
    <glyph glyph-name="quotesingle" unicode="'" horiz-adv-x="205" 
d="M64 530v188h77v-188h-77z" />
    <glyph glyph-name="parenleft" unicode="(" horiz-adv-x="271" 
d="M159 -95c-78.667 121.333 -118 262.667 -118 424c0 154.667 37.667 290 113 406h85c-73.333 -122.667 -110 -255.667 -110 -399c0 -153.333 38.333 -297 115 -431h-85z" />
    <glyph glyph-name="parenright" unicode=")" horiz-adv-x="271" 
d="M27 -95c76.667 134 115 277.667 115 431c0 143.333 -37 276.333 -111 399h86c75.333 -116 113 -251.333 113 -406c0 -160 -39.333 -301.333 -118 -424h-85z" />
    <glyph glyph-name="asterisk" unicode="*" horiz-adv-x="483" 
d="M163 329l-72 52l89 110v2l-137 37l27 84l133 -50l-8 142h91l-8 -142l134 50l28 -84l-138 -37v-2l89 -110l-72 -52l-77 118h-2z" />
    <glyph glyph-name="plus" unicode="+" 
d="M24 246v78h224v246h82v-246h223v-78h-223v-246h-82v246h-224z" />
    <glyph glyph-name="comma" unicode="," horiz-adv-x="249" 
d="M24 -101l62 206h97l-84 -206h-75z" />
    <glyph glyph-name="hyphen" unicode="-" horiz-adv-x="410" 
d="M59 242v86h292v-86h-292z" />
    <glyph glyph-name="period" unicode="." horiz-adv-x="217" 
d="M59 0v103h99v-103h-99z" />
    <glyph glyph-name="slash" unicode="/" horiz-adv-x="413" 
d="M37 -42l254 786h86l-254 -786h-86z" />
    <glyph glyph-name="zero" unicode="0" horiz-adv-x="599" 
d="M299 -12c-166 0 -249 122 -249 366c0 242.667 83 364 249 364c166.667 0 250 -121.333 250 -364c0 -244 -83.333 -366 -250 -366zM299 79c99.333 0 149 91.667 149 275c0 182 -49.667 273 -149 273c-98.667 0 -148 -91 -148 -273c0 -183.333 49.333 -275 148 -275z" />
    <glyph glyph-name="one" unicode="1" horiz-adv-x="465" 
d="M44 0v86h155v456l1 43h-2c-5.33301 -10 -16.333 -23.333 -33 -40l-67 -65l-59 62l168 164h92v-620h153v-86h-408z" />
    <glyph glyph-name="two" unicode="2" horiz-adv-x="570" 
d="M37 81c0 35.333 6.66602 67.167 19.999 95.5s30.5 52 51.5 71s44.167 36.5 69.5 52.5s50.833 31.167 76.5 45.5s49 29 70 44s38.167 33 51.5 54s20 44.5 20 70.5c0 32.667 -11.333 59.5 -34 80.5s-52.667 31.5 -90 31.5c-30.667 0 -56.5 -6.66699 -77.5 -20
s-31.5 -29 -31.5 -47v-31h-92v60c0 28.667 11.667 53.334 35 74.001s50 35.167 80 43.5s60 12.5 90 12.5c64.667 0 117.834 -18.833 159.501 -56.5s62.5 -86.5 62.5 -146.5c0 -44.667 -12.333 -84.334 -37 -119.001s-54.5 -62.834 -89.5 -84.501s-70 -42 -105 -61
s-64.833 -40.667 -89.5 -65s-37 -51.166 -37 -80.499c0 -12.667 8.33301 -19 25 -19h251c14.667 0 22 7.33301 22 22v45h92v-89c0 -22.667 -5 -39 -15 -49s-26.333 -15 -49 -15h-362c-26.667 0 -44.5 6 -53.5 18s-13.5 33 -13.5 63z" />
    <glyph glyph-name="three" unicode="3" horiz-adv-x="556" 
d="M34 87l54.001 75.001c5.33301 -6 13 -13.5 23 -22.5s30.5 -20.833 61.5 -35.5s62.5 -22 94.5 -22c39.333 0 72.666 12.167 99.999 36.5s41 55.166 41 92.499c0 38 -14.833 68.5 -44.5 91.5s-65.834 34.5 -108.501 34.5h-49l-22 53l147 185
c6 8.66699 12.5 16.834 19.5 24.501s12.5 13.167 16.5 16.5l6 5v2c-14 -2 -34 -3 -60 -3h-137c-14.667 0 -22 -7.33301 -22 -22v-45h-91v89c0 22.667 4.5 39 13.5 49s24.5 15 46.5 15h372v-63l-185 -224c52.667 -6 99.167 -26.333 139.5 -61s60.5 -83.334 60.5 -146.001
c0 -61.333 -22.667 -114 -68 -158s-103.666 -66 -174.999 -66c-43.333 0 -84.333 8.33301 -123 25s-66.667 33 -84 49z" />
    <glyph glyph-name="four" unicode="4" horiz-adv-x="586" 
d="M18 187v64l319 455h114v-433h110v-86h-110v-187h-100v187h-333zM127 270c19.333 2 39.333 3 60 3h165v243l4 72h-2c-11.333 -22 -23 -41.667 -35 -59l-156 -212l-36 -45v-2z" />
    <glyph glyph-name="five" unicode="5" horiz-adv-x="548" 
d="M37 87l55.001 73c1.33301 -2 3.5 -4.83301 6.5 -8.5s9.66699 -10 20 -19s21.333 -16.833 33 -23.5s27 -12.834 46 -18.501s38.5 -8.5 58.5 -8.5c44 0 80.333 13.5 109 40.5s43 60.5 43 100.5c0 42.667 -16.167 77.334 -48.5 104.001s-71.833 40 -118.5 40
c-23.333 0 -46.333 -3 -69 -9s-39.334 -12 -50.001 -18l-16 -9l-41 19l28 292c2 23.333 7.66699 39.833 17 49.5s25 14.5 47 14.5h247c22 0 38 -5 48 -15s15 -26.333 15 -49v-89h-91v45c0 14.667 -7.33301 22 -22 22h-148c-12.667 0 -20 -7.33301 -22 -22l-14 -129l-5 -37h2
c26 14 56.333 21 91 21c75.333 0 136.166 -22.167 182.499 -66.5s69.5 -99.5 69.5 -165.5c0 -64 -23.667 -118.833 -71 -164.5s-108.333 -68.5 -183 -68.5c-43.333 0 -83.166 8.33301 -119.499 25s-61.833 33 -76.5 49z" />
    <glyph glyph-name="six" unicode="6" horiz-adv-x="571" 
d="M308 -12c-76 0 -138.999 29.832 -188.999 89.499s-75 138.167 -75 235.5c0 48 6.5 95.167 19.5 141.5s32 89.5 57 129.5s58.5 72.333 100.5 97s89 37 141 37c24.667 0 48.5 -2.33301 71.5 -7s39.833 -9.66699 50.5 -15l15 -7l-32 -85
c-29.333 15.333 -62.666 23 -99.999 23c-60.667 0 -109 -23.5 -145 -70.5s-58.333 -104.167 -67 -171.5h2c13.333 20.667 34.666 37.334 63.999 50.001s60 19 92 19c65.333 0 118.666 -22 159.999 -66s62 -98.667 62 -164c0 -69.333 -21.333 -126 -64 -170s-97 -66 -163 -66
zM149.001 270.999c0 -47.333 15.6689 -91.167 47.002 -131.5s68.666 -60.5 111.999 -60.5c39.333 0 70.666 13.667 93.999 41s35 62 35 104c0 43.333 -13 78.5 -39 105.5s-61.333 40.5 -106 40.5c-38.667 0 -72.167 -10 -100.5 -30s-42.5 -43 -42.5 -69z" />
    <glyph glyph-name="seven" unicode="7" horiz-adv-x="528" 
d="M70 0l299 556l41 65v2c-10.667 -2 -27.667 -3 -51 -3h-213c-14.667 0 -22 -7.33301 -22 -22v-45h-91v89c0 22.667 4.5 39 13.5 49s24.5 15 46.5 15h430v-68l-343 -638h-110z" />
    <glyph glyph-name="eight" unicode="8" horiz-adv-x="579" 
d="M43 202c0 21.333 4.00098 42.335 12.001 63.002s17.833 37.834 29.5 51.501s23.167 25.667 34.5 36s21 18.166 29 23.499l12 7v2c-2.66699 1.33301 -5.83398 3.16602 -9.50098 5.49902s-10.5 8 -20.5 17s-18.833 18.5 -26.5 28.5s-14.667 23.5 -21 40.5
s-9.5 34.5 -9.5 52.5c0 52 19.667 96.5 59 133.5s93 55.5 161 55.5c66.667 0 120.167 -17.833 160.5 -53.5s60.5 -81.5 60.5 -137.5c0 -30.667 -7.16699 -60 -21.5 -88s-28.5 -48.333 -42.5 -61l-22 -19v-2c70.667 -40.667 106 -94.667 106 -162
c0 -56.667 -23.167 -105.334 -69.5 -146.001s-104.833 -61 -175.5 -61c-68 0 -126 19.833 -174 59.5s-72 91.167 -72 154.5zM287.001 416.002c24.667 -11.333 42.6689 -17.001 54.002 -17.001c13.333 0 29.166 13 47.499 39s27.5 53.667 27.5 83c0 32 -11.333 57.667 -34 77
s-52.334 29 -89.001 29c-37.333 0 -67 -9.5 -89 -28.5s-33 -42.833 -33 -71.5c0 -28 9.5 -49.667 28.5 -65s48.167 -30.666 87.5 -45.999zM144.003 207.001c0 -38 14.167 -68.833 42.5 -92.5s62.5 -35.5 102.5 -35.5c38.667 0 72.167 11.333 100.5 34s42.5 51 42.5 85
c0 28 -9.83301 50.333 -29.5 67s-49.167 33 -88.5 49c-42.667 17.333 -67 26 -73 26c-16 0 -36.167 -13.833 -60.5 -41.5s-36.5 -58.167 -36.5 -91.5z" />
    <glyph glyph-name="nine" unicode="9" horiz-adv-x="571" 
d="M72 17l32.001 86c30 -16 63.667 -24 101 -24c60 0 108.333 23.667 145 71s59 104.666 67 171.999h-2c-14 -21.333 -35.5 -38.166 -64.5 -50.499s-59.5 -18.5 -91.5 -18.5c-66 0 -119.667 21.833 -161 65.5s-62 98.167 -62 163.5c0 69.333 21.333 126 64 170s97 66 163 66
c76 0 139 -29.833 189 -89.5s75 -138.167 75 -235.5c0 -48 -6.5 -95.167 -19.5 -141.5s-32 -89.5 -57 -129.5s-58.333 -72.333 -100 -97s-88.834 -37 -141.501 -37c-24.667 0 -48.5 2.33301 -71.5 7s-39.5 9.66699 -49.5 15zM279.001 336
c38.667 0 72.167 10.001 100.5 30.001s42.5 43 42.5 69c0 47.333 -15.5 91.166 -46.5 131.499s-68.167 60.5 -111.5 60.5c-40 0 -71.667 -13.667 -95 -41s-35 -62 -35 -104c0 -42.667 13 -77.667 39 -105s61.333 -41 106 -41z" />
    <glyph glyph-name="colon" unicode=":" horiz-adv-x="217" 
d="M59 403v103h99v-103h-99zM59 0v103h99v-103h-99z" />
    <glyph glyph-name="semicolon" unicode=";" horiz-adv-x="268" 
d="M99 403v103h99v-103h-99zM46 -101l51 206h97l-73 -206h-75z" />
    <glyph glyph-name="less" unicode="&#x3c;" 
d="M43 252v66l466 208v-89l-357 -151v-2l357 -151v-89z" />
    <glyph glyph-name="equal" unicode="=" 
d="M50 340v78h477v-78h-477zM50 151v78h477v-78h-477z" />
    <glyph glyph-name="greater" unicode="&#x3e;" 
d="M67 44v89l357 151v2l-357 151v89l466 -208v-66z" />
    <glyph glyph-name="question" unicode="?" horiz-adv-x="463" 
d="M149 194l-0.000976562 46.999c0 28 5.83301 53.5 17.5 76.5s25.834 42.5 42.501 58.5l50 46c16.667 14.667 30.834 31.167 42.501 49.5s17.5 37.833 17.5 58.5c0 28 -11 51.5 -33 70.5s-49.333 28.5 -82 28.5c-18.667 0 -37.5 -3.5 -56.5 -10.5
s-33.5 -13.833 -43.5 -20.5l-14 -11l-53 69c4.66699 4.66699 11.667 10.5 21 17.5s29.166 16.5 59.499 28.5s61.5 18 93.5 18c58.667 0 108.167 -17 148.5 -51s60.5 -78 60.5 -132c0 -30.667 -6 -58.167 -18 -82.5s-26.667 -44.666 -44 -60.999s-34.833 -32 -52.5 -47
s-32.5 -31.833 -44.5 -50.5s-18 -39 -18 -61v-41h-94zM145.999 -0.000976562v97h100v-97h-100z" />
    <glyph glyph-name="at" unicode="@" horiz-adv-x="782" 
d="M48 241c0 103.333 35.3359 190.834 106.003 262.501s157 107.5 259 107.5c90 0 155.833 -19.167 197.5 -57.5s62.5 -86.833 62.5 -145.5v-283h72v-73h-273c-60.667 0 -110.334 18.5 -149.001 55.5s-58 81.5 -58 133.5c0 51.333 19.167 95.333 57.5 132
s88.166 55 149.499 55h108c-1.33301 30 -16.166 54.667 -44.499 74s-67.5 29 -117.5 29c-76.667 0 -141.334 -28.5 -194.001 -85.5s-79 -125.167 -79 -204.5c0 -80.667 26.5 -148.667 79.5 -204s121.167 -83 204.5 -83v-79c-110.667 0 -201.834 35.167 -273.501 105.5
s-107.5 157.166 -107.5 260.499zM363.003 242.001c0 -32.667 11 -60.333 33 -83s49.667 -34 83 -34h101v236h-99c-34.667 0 -63 -11.5 -85 -34.5s-33 -51.167 -33 -84.5z" />
    <glyph glyph-name="A" unicode="A" horiz-adv-x="665" 
d="M12 0v86h14c17.333 0 28.333 7.33301 33 22l221 598h105l221 -598c4.66699 -14.667 15.667 -22 33 -22h14v-86h-55c-24.667 -0 -42.5 3.83301 -53.5 11.5s-20.833 23.167 -29.5 46.5l-53 145h-259l-53 -145c-8.66699 -23.333 -18.5 -38.833 -29.5 -46.5
s-28.833 -11.5 -53.5 -11.5h-55zM227 287h211l-77 215l-28 99h-2c-10 -41.333 -19 -74.333 -27 -99z" />
    <glyph glyph-name="B" unicode="B" horiz-adv-x="609" 
d="M98 64v556h-65v86h303c60.667 0 110 -16 148 -48s57 -76 57 -132c0 -36.667 -8.33301 -68 -25 -94s-37.667 -45.333 -63 -58v-2c36 -10.667 64.333 -31.667 85 -63s31 -67.333 31 -108c0 -64 -21.5 -113.5 -64.5 -148.5s-97.167 -52.5 -162.5 -52.5h-179
c-22.667 0 -39.167 5 -49.5 15s-15.5 26.333 -15.5 49zM198 409h138.001c31.333 0 56.333 10 75 30s28 45.667 28 77s-9.33301 56.5 -28 75.5s-44.334 28.5 -77.001 28.5h-136v-211zM198.001 108c0 -14.667 7.33301 -22 22 -22h127c36.667 0 65.667 11 87 33s32 51 32 87
s-11 65.167 -33 87.5s-51 33.5 -87 33.5h-148v-219z" />
    <glyph glyph-name="C" unicode="C" horiz-adv-x="698" 
d="M35 359c0 102 33.834 187.331 101.501 255.998s151.834 103 252.501 103c26 0 53.333 -2.83301 82 -8.5s57.167 -14 85.5 -25s51.666 -27 69.999 -48s27.5 -44.833 27.5 -71.5v-69h-92v40c0 27.333 -18.333 49 -55 65s-75.334 24 -116.001 24
c-72 0 -132 -24.667 -180 -74s-72 -113.333 -72 -192c0 -77.333 24.5 -142.833 73.5 -196.5s109.5 -80.5 181.5 -80.5c26 0 51.5 3.33301 76.5 10s46 14.667 63 24s32 18.666 45 27.999s22.833 17.333 29.5 24l9 10l54 -72c-2.66699 -3.33301 -6.66699 -7.66602 -12 -12.999
s-16.833 -14.666 -34.5 -27.999s-36.5 -25.166 -56.5 -35.499s-45.833 -19.833 -77.5 -28.5s-64.167 -13 -97.5 -13c-104 0 -189.667 35.5 -257 106.5s-101 159.167 -101 264.5z" />
    <glyph glyph-name="D" unicode="D" horiz-adv-x="714" 
d="M98 64v556.001h-65v86h286c108.667 0 195.5 -31.167 260.5 -93.5s97.5 -148.5 97.5 -258.5c0 -110.667 -32.5 -197.334 -97.5 -260.001s-151.833 -94 -260.5 -94h-156c-22.667 0 -39.167 5 -49.5 15s-15.5 26.333 -15.5 49zM198 108.001
c0 -14.667 7.33203 -22 21.999 -22h92c80.667 0 144.334 23.333 191.001 70s70 112.667 70 198c0 84.667 -23.5 150.167 -70.5 196.5s-110.5 69.5 -190.5 69.5h-114v-512z" />
    <glyph glyph-name="E" unicode="E" horiz-adv-x="571" 
d="M98 64v556h-65v86h416c22.667 0 39 -5 49 -15s15 -26.333 15 -49v-89h-92v45c0 14.667 -7.33301 22 -22 22h-201v-221h248v-86h-248v-205c0 -14.667 7.33301 -22 22 -22h207c14.667 0 22 7.33301 22 22v45h91v-89c0 -22.667 -5 -39 -15 -49s-26.333 -15 -49 -15h-313
c-22.667 0 -39.167 5 -49.5 15s-15.5 26.333 -15.5 49z" />
    <glyph glyph-name="F" unicode="F" horiz-adv-x="511" 
d="M98 0v620h-65v86h390c22.667 0 39 -5 49 -15s15 -26.333 15 -49v-89h-91v45c0 14.667 -7.33301 22 -22 22h-176v-232h242v-86h-242v-302h-100z" />
    <glyph glyph-name="G" unicode="G" horiz-adv-x="728" 
d="M35 356c0 102 34.001 187.833 102.001 257.5s152.667 104.5 254 104.5c50 0 96 -7.33301 138 -22s71.667 -29.334 89 -44.001l25 -21l-57 -73c-6 5.33301 -14.167 11.666 -24.5 18.999s-32.333 17.333 -66 30s-67.834 19 -102.501 19
c-71.333 0 -131.5 -25.5 -180.5 -76.5s-73.5 -115.5 -73.5 -193.5c0 -80.667 24.333 -146.5 73 -197.5s109.667 -76.5 183 -76.5c23.333 0 46.333 3 69 9s41.5 13.333 56.5 22s28.5 17.334 40.5 26.001s21 16 27 22l8 9v71c0 14.667 -7.33301 22 -22 22h-43v86h92
c22.667 0 39.167 -5 49.5 -15s15.5 -26.333 15.5 -49v-285h-88v44l1 30h-2c-2 -2 -5.16699 -5 -9.5 -9s-13.5 -11 -27.5 -21s-28.833 -18.667 -44.5 -26s-36.167 -14.166 -61.5 -20.499s-51 -9.5 -77 -9.5c-96.667 0 -178.167 34.333 -244.5 103s-99.5 157 -99.5 265z" />
    <glyph glyph-name="H" unicode="H" horiz-adv-x="757" 
d="M99 0v598c0 14.667 -7.33301 22 -22 22h-43v86h101c22.667 0 39 -5 49 -15s15 -26.333 15 -49v-247h359v247c0 22.667 5.16699 39 15.5 49s26.833 15 49.5 15h100v-86h-43c-14.667 0 -22 -7.33301 -22 -22v-598h-100v310h-359v-310h-100z" />
    <glyph glyph-name="I" unicode="I" horiz-adv-x="318" 
d="M42 0v86h69v534h-69v86h233v-86h-68v-534h68v-86h-233z" />
    <glyph glyph-name="J" unicode="J" horiz-adv-x="511" 
d="M16 203v34.999h100v-27c0 -45.333 10.833 -78.166 32.5 -98.499s48.167 -30.5 79.5 -30.5c30.667 0 56.667 10.167 78 30.5s32 51.833 32 94.5v391c0 14.667 -7.33301 22 -22 22h-173v86h230c22.667 0 39.167 -5 49.5 -15s15.5 -26.333 15.5 -49v-439
c0 -71.333 -20.667 -125 -62 -161s-91 -54 -149 -54s-107.667 18.167 -149 54.5s-62 89.833 -62 160.5z" />
    <glyph glyph-name="K" unicode="K" horiz-adv-x="612" 
d="M99 0l0.00195312 598.002c0 14.667 -7.33301 22 -22 22h-43v86h101c22.667 0 39 -5 49 -15s15 -26.333 15 -49v-233h67c29.333 0 48.666 8 57.999 24l157 273h112l-171 -293c-6 -10.667 -12.333 -19.834 -19 -27.501s-11.667 -12.834 -15 -15.501l-6 -3v-2
c13.333 -3.33301 26.666 -18 39.999 -44l106 -212c7.33301 -15.333 24 -23 50 -23h19v-86h-55c-28.667 -0 -49.5 3.33301 -62.5 10s-24.833 21 -35.5 43l-122 245c-9.33301 17.333 -30.333 26 -63 26h-60v-324h-100z" />
    <glyph glyph-name="L" unicode="L" horiz-adv-x="541" 
d="M98 64v534c0 14.667 -7.33301 22 -22 22h-43v86h101c22.667 0 39 -5 49 -15s15 -26.333 15 -49v-534c0 -14.667 7.33301 -22 22 -22h196c14.667 0 22 7.33301 22 22v45h91v-89c0 -22.667 -5 -39 -15 -49s-26.333 -15 -49 -15h-302c-22.667 0 -39.167 5 -49.5 15
s-15.5 26.333 -15.5 49z" />
    <glyph glyph-name="M" unicode="M" horiz-adv-x="862" 
d="M23 0l0.000976562 85.999h33c13.333 0 20.666 7.33301 21.999 22l48 598h103l166 -373l35 -90h2c12 34 23.667 64 35 90l166 373h103l48 -598c1.33301 -14.667 8.66602 -22 21.999 -22h34v-86h-89c-22.667 0 -38.667 4.83301 -48 14.5s-15 26.167 -17 49.5l-28 373
l-2 104h-2c-14 -44 -26.667 -78.667 -38 -104l-143 -310h-84l-142 310c-5.33301 10.667 -11.166 24.834 -17.499 42.501l-15.5 44.5l-5 18h-2c0.666992 -42 0 -77 -2 -105l-29 -373c-1.33301 -22.667 -6.83301 -39 -16.5 -49s-25.5 -15 -47.5 -15h-89z" />
    <glyph glyph-name="N" unicode="N" horiz-adv-x="757" 
d="M34 0v86h43c14.667 0 22 7.33301 22 22v598h91l314 -447l59 -96h2c-4.66699 38 -7 70 -7 96v383c0 22.667 5.16699 39 15.5 49s26.833 15 49.5 15h100v-86h-43c-14.667 0 -22 -7.33301 -22 -22v-598h-90l-315 447l-58 96h-2c4 -38 6 -70 6 -96v-383
c0 -22.667 -5 -39 -15 -49s-26.333 -15 -49 -15h-101z" />
    <glyph glyph-name="O" unicode="O" horiz-adv-x="793" 
d="M34 358c0 101.333 34.833 186.666 104.5 255.999s155.5 104 257.5 104s188 -34.667 258 -104s105 -154.666 105 -255.999c0 -104 -35 -191.667 -105 -263s-156 -107 -258 -107s-187.833 35.667 -257.5 107s-104.5 159 -104.5 263zM138 358
c0 -77.333 25 -142.666 75 -195.999s111 -80 183 -80s133.167 26.667 183.5 80s75.5 118.666 75.5 195.999c0 75.333 -25.167 138.666 -75.5 189.999s-111.5 77 -183.5 77s-133 -25.667 -183 -77s-75 -114.666 -75 -189.999z" />
    <glyph glyph-name="P" unicode="P" horiz-adv-x="585" 
d="M98 0v620h-65v86h311c65.333 0 118.666 -20.167 159.999 -60.5s62 -93.833 62 -160.5s-20.667 -120.667 -62 -162s-94.666 -62 -159.999 -62h-146v-261h-100zM198 347l130 -0.000976562c42 0 75 12.333 99 37s36 58.334 36 101.001c0 42 -11.833 75 -35.5 99
s-56.5 36 -98.5 36h-131v-273z" />
    <glyph glyph-name="Q" unicode="Q" horiz-adv-x="793" 
d="M34 357c0 102 34.667 187.667 104 257s155 104 257 104c102.667 0 189 -34.667 259 -104s105 -155 105 -257c0 -87.333 -27.667 -164.666 -83 -231.999l81 -79l-60 -64l-81 81c-62 -50 -135.667 -75 -221 -75c-102 0 -187.667 35.667 -257 107s-104 158.666 -104 261.999
zM138 357c0 -77.333 24.833 -142.5 74.5 -195.5s110.5 -79.5 182.5 -79.5c27.333 0 53.5 4 78.5 12s43.167 16 54.5 24l16 13l-78 76l60 65l77 -79c34.667 47.333 52 102 52 164c0 76 -25 139.5 -75 190.5s-111.667 76.5 -185 76.5c-72.667 0 -133.667 -25.5 -183 -76.5
s-74 -114.5 -74 -190.5z" />
    <glyph glyph-name="R" unicode="R" horiz-adv-x="622" 
d="M98 0v619.998h-65v86h309c62.667 0 113.5 -18.667 152.5 -56s58.5 -87.666 58.5 -150.999c0 -53.333 -13.667 -96.166 -41 -128.499s-56.333 -51.833 -87 -58.5v-2c12 -6 22 -16.667 30 -32l85 -169c8 -15.333 25 -23 51 -23h13v-86h-49
c-29.333 -0 -50.333 3.33301 -63 10s-24.667 21 -36 43l-96 190c-8 16 -16.5 26.333 -25.5 31s-23.5 7 -43.5 7h-93v-281h-100zM198 366.998h130.999c38 0 67.667 11.333 89 34s32 54 32 94c0 39.333 -10.667 70 -32 92s-50.666 33 -87.999 33h-132v-253z" />
    <glyph glyph-name="S" unicode="S" horiz-adv-x="525" 
d="M29 93l57.9971 71.0029c2 -2 4.83301 -5 8.5 -9s11.667 -10.833 24 -20.5s25 -18.334 38 -26.001s29.333 -14.5 49 -20.5s39.167 -9 58.5 -9c33.333 0 61.666 9.66699 84.999 29s35 44.666 35 75.999c0 26.667 -11.667 50 -35 70s-51.666 37.333 -84.999 52
s-66.666 30.5 -99.999 47.5s-61.666 40.333 -84.999 70s-35 64.834 -35 105.501c0 54 21.167 99 63.5 135s96.5 54 162.5 54c28.667 0 57.334 -3.83301 86.001 -11.5s54.834 -21.834 78.501 -42.501s35.5 -46 35.5 -76v-58h-92v33c0 18 -10.833 33.167 -32.5 45.5
s-47.167 18.5 -76.5 18.5c-36.667 0 -66.5 -9 -89.5 -27s-34.5 -40.667 -34.5 -68c0 -22 8.5 -41.5 25.5 -58.5s38 -30.833 63 -41.5s52.333 -23.167 82 -37.5s57 -29 82 -44s46 -36.5 63 -64.5s25.5 -60.333 25.5 -97c0 -56 -20.333 -103.5 -61 -142.5
s-95 -58.5 -163 -58.5c-28 0 -55.333 3.66699 -82 11s-48.667 16 -66 26s-32.833 20.167 -46.5 30.5s-23.834 19.166 -30.501 26.499z" />
    <glyph glyph-name="T" unicode="T" horiz-adv-x="632" 
d="M266 0l-0.00195312 620h-141c-14.667 0 -22 -7.33301 -22 -22v-45h-90v93c0 22.667 4.33301 38.334 13 47.001s24.334 13 47.001 13h486c22.667 0 38.334 -4.33301 47.001 -13s13 -24.334 13 -47.001v-93h-89v45c0 14.667 -7.33301 22 -22 22h-142v-620h-100z" />
    <glyph glyph-name="U" unicode="U" horiz-adv-x="720" 
d="M91 247l0.000976562 351c0 14.667 -7.33301 22 -22 22h-43v86h100c22.667 0 39.167 -5 49.5 -15s15.5 -26.333 15.5 -49v-391c0 -52.667 15.167 -94 45.5 -124s71.5 -45 123.5 -45c51.333 0 92.333 15.167 123 45.5s46 71.833 46 124.5v390c0 22.667 5 39 15 49
s26.333 15 49 15h101v-86h-43c-14.667 0 -22 -7.33301 -22 -22v-351c0 -77.333 -24.667 -139.833 -74 -187.5s-114 -71.5 -194 -71.5c-80.667 0 -145.834 23.833 -195.501 71.5s-74.5 110.167 -74.5 187.5z" />
    <glyph glyph-name="V" unicode="V" horiz-adv-x="667" 
d="M280 0l-221.001 598.001c-6 14.667 -17.333 22 -34 22h-14v86h57c25.333 0 43.333 -3.83301 54 -11.5s20 -23.167 28 -46.5l155 -435l27 -97h2c9.33301 39.333 18.333 71.666 27 96.999l155 435c8.66699 23.333 18.334 38.833 29.001 46.5s28.667 11.5 54 11.5h57v-86
h-14c-16.667 0 -28 -7.33301 -34 -22l-222 -598h-106z" />
    <glyph glyph-name="W" unicode="W" horiz-adv-x="967" 
d="M220 0l-154.002 598c-4 14.667 -15.667 22 -35 22h-15v86h58c26 0 45.5 -4 58.5 -12s22.167 -23.333 27.5 -46l110 -454l13 -75h2c4.66699 24 10.334 49 17.001 75l143 510h89l132 -510l15 -75h2c3.33301 24.667 8 49.667 14 75l110 454c5.33301 22.667 14.333 38 27 46
s32.334 12 59.001 12h58v-86h-15c-19.333 0 -31 -7.33301 -35 -22l-154 -598h-117l-120 446l-20 97h-2c-6 -34 -13.333 -66 -22 -96l-129 -447h-117z" />
    <glyph glyph-name="X" unicode="X" horiz-adv-x="595" 
d="M12 0l221.998 364l-142 231c-6.66699 10.667 -13.167 17.5 -19.5 20.5s-15.5 4.5 -27.5 4.5h-25v86h58c25.333 0 44.333 -3.5 57 -10.5s25.334 -21.5 38.001 -43.5l79 -134l45 -83h2c13.333 29.333 27.666 57 42.999 83l80 134c12.667 22 25.334 36.5 38.001 43.5
s31.334 10.5 56.001 10.5h59v-86h-26c-20.667 0 -36 -8.33301 -46 -25l-143 -231l223 -364h-113l-129 215l-44 80h-2c-14 -28 -28.333 -55 -43 -81l-128 -214h-112z" />
    <glyph glyph-name="Y" unicode="Y" horiz-adv-x="606" 
d="M253 0l-0.00195312 308l-179 287c-9.33301 16.667 -23.666 25 -42.999 25h-20v86h46c24.667 0 43.334 -3.33301 56.001 -10s25.667 -21.334 39 -44.001l107 -178l43 -79h2c13.333 26.667 27.666 53 42.999 79l106 178c13.333 22.667 26.333 37.334 39 44.001
s31.334 10 56.001 10h47v-86h-20c-19.333 0 -34 -8.33301 -44 -25l-178 -287v-308h-100z" />
    <glyph glyph-name="Z" unicode="Z" horiz-adv-x="600" 
d="M32 0v66.001l348 490c8 11.333 16.5 22.5 25.5 33.5l20.5 24.5l7 7v2c-12.667 -2 -30.334 -3 -53.001 -3h-227c-14.667 0 -22 -7.33301 -22 -22v-45h-91v89c0 22.667 5 39 15 49s26.333 15 49 15h452v-65l-348 -491c-8 -11.333 -16.5 -22.333 -25.5 -33
s-15.833 -18.334 -20.5 -23.001l-7 -8v-2c12.667 1.33301 30.334 2 53.001 2h249c14.667 0 22 7.33301 22 22v45h91v-89c0 -22.667 -5 -39 -15 -49s-26.333 -15 -49 -15h-474z" />
    <glyph glyph-name="bracketleft" unicode="[" horiz-adv-x="282" 
d="M78 -31v702c0 22.667 5 39 15 49s26.333 15 49 15h102v-73h-59c-14.667 0 -22 -7.33301 -22 -22v-639c0 -14.667 7.33301 -22 22 -22h59v-74h-102c-22.667 0 -39 5 -49 15s-15 26.333 -15 49z" />
    <glyph glyph-name="backslash" unicode="\" horiz-adv-x="413" 
d="M290 -42l-254 786h86l254 -786h-86z" />
    <glyph glyph-name="bracketright" unicode="]" horiz-adv-x="282" 
d="M39 -21h58c14.667 0 22 7.33301 22 22v639c0 14.667 -7.33301 22 -22 22h-58v73h101c22.667 0 39.167 -5 49.5 -15s15.5 -26.333 15.5 -49v-702c0 -22.667 -5.16699 -39 -15.5 -49s-26.833 -15 -49.5 -15h-101v74z" />
    <glyph glyph-name="asciicircum" unicode="^" horiz-adv-x="613" 
d="M69 247l200 459h63l200 -459h-88l-144 352l-143 -352h-88z" />
    <glyph glyph-name="underscore" unicode="_" horiz-adv-x="565" 
d="M14 0h538v-78h-538v78z" />
    <glyph glyph-name="grave" unicode="`" horiz-adv-x="379" 
d="M178 755l-95 127h98l73 -127h-76z" />
    <glyph glyph-name="a" unicode="a" horiz-adv-x="529" 
d="M28 138c0 118 102 177.002 306 177.002h22v7c0 42.667 -8.83301 73.167 -26.5 91.5s-46.167 27.5 -85.5 27.5c-18.667 0 -37.167 -2.83301 -55.5 -8.5s-27.5 -15.834 -27.5 -30.501v-29h-92v51c0 18.667 6.66699 34.834 20 48.501s30.166 23.5 50.499 29.5
s38.833 10.167 55.5 12.5s32.334 3.5 47.001 3.5c78 0 132.667 -17.333 164 -52s47 -83.334 47 -146.001v-215c0 -14.667 7.33301 -22 22 -22h41v-83h-92c-41.333 0 -62 19.333 -62 58l1 30h-2c0.666992 0 -0.833008 -3.5 -4.5 -10.5s-9.66699 -15.333 -18 -25
s-18.5 -19.334 -30.5 -29.001s-27.667 -18 -47 -25s-40.333 -10.5 -63 -10.5c-46.667 0 -86.667 13.5 -120 40.5s-50 63.5 -50 109.5zM125 147.002c0 -22 8.33301 -41.167 25 -57.5s40 -24.5 70 -24.5c40 0 72.667 16.667 98 50s38 70.333 38 111v19h-26
c-136.667 0 -205 -32.667 -205 -98z" />
    <glyph glyph-name="b" unicode="b" horiz-adv-x="583" 
d="M67 0l0.00292969 601.002c0 14.667 -7.33301 22 -22 22h-41v83h95c22.667 0 39.167 -5 49.5 -15s15.5 -26.333 15.5 -49v-165l-2 -42h2c1.33301 2 3.16602 5 5.49902 9s8.16602 10.667 17.499 20s19.666 17.666 30.999 24.999s26.666 14 45.999 20s40 9 62 9
c67.333 0 121.333 -24.333 162 -73s61 -112.667 61 -192s-21.667 -143.333 -65 -192s-98.666 -73 -165.999 -73c-21.333 0 -41.333 3 -60 9s-33.667 13 -45 21s-21.333 16.167 -30 24.5s-15 15.5 -19 21.5l-5 9h-2c1.33301 -10.667 2 -23.334 2 -38.001v-35h-92z
M161.003 251.002c0 -48.667 12.5 -90.833 37.5 -126.5s60.167 -53.5 105.5 -53.5c41.333 0 76 16.167 104 48.5s42 76.5 42 132.5c0 54.667 -13.167 98.5 -39.5 131.5s-60.833 49.5 -103.5 49.5c-41.333 0 -76 -15.167 -104 -45.5s-42 -75.833 -42 -136.5z" />
    <glyph glyph-name="c" unicode="c" horiz-adv-x="530" 
d="M33 253c0 75.333 25.166 138.333 75.499 189s115.833 76 196.5 76c17.333 0 35.666 -1.83301 54.999 -5.5s38.833 -9.5 58.5 -17.5s36 -19.667 49 -35s19.5 -33 19.5 -53v-52h-88v28c0 16.667 -10.167 29.5 -30.5 38.5s-41.5 13.5 -63.5 13.5
c-50 0 -91.5 -16.833 -124.5 -50.5s-49.5 -77.167 -49.5 -130.5c0 -55.333 17.333 -99.166 52 -131.499s77 -48.5 127 -48.5c28 0 55.167 5.83301 81.5 17.5s45.5 23.167 57.5 34.5l18 18l41 -69c-2 -2.66699 -4.83301 -5.83398 -8.5 -9.50098s-12 -10.5 -25 -20.5
s-26.833 -18.833 -41.5 -26.5s-33.667 -14.667 -57 -21s-47.666 -9.5 -72.999 -9.5c-79.333 0 -144.166 25 -194.499 75s-75.5 113.333 -75.5 190z" />
    <glyph glyph-name="d" unicode="d" horiz-adv-x="601" 
d="M35 253c0 80 21.165 144.168 63.498 192.501s97.166 72.5 164.499 72.5c22 0 42.333 -2.66699 61 -8s33.5 -11.833 44.5 -19.5s20.667 -15.334 29 -23.001s13.833 -14.167 16.5 -19.5l5 -8h2c-0.666992 10 -1 21.333 -1 34v127c0 14.667 -7.33301 22 -22 22h-41v83h95
c22.667 0 39.167 -5 49.5 -15s15.5 -26.333 15.5 -49v-537c0 -14.667 7.33301 -22 22 -22h41v-83h-93c-41.333 0 -62 18 -62 54l1 26h-2c-1.33301 -2.66699 -3.16602 -6 -5.49902 -10s-8.16602 -11.333 -17.499 -22s-19.666 -20 -30.999 -28s-27 -15.333 -47 -22
s-41.667 -10 -65 -10c-68 0 -122.167 24.333 -162.5 73s-60.5 112.667 -60.5 192zM132.998 253.001c0 -54.667 13.332 -98.499 39.999 -131.499s61.334 -49.5 104.001 -49.5c41.333 0 75.833 15.167 103.5 45.5s41.5 75.833 41.5 136.5c0 49.333 -12.333 91.666 -37 126.999
s-60 53 -106 53c-41.333 0 -76 -16.333 -104 -49s-42 -76.667 -42 -132z" />
    <glyph glyph-name="e" unicode="e" horiz-adv-x="539" 
d="M33 253c0 79.333 24 143.332 72 191.999s108.667 73 182 73c68.667 0 122.167 -22.5 160.5 -67.5s57.5 -101.5 57.5 -169.5c0 -11.333 -1 -25 -3 -41h-369c2.66699 -52.667 20.667 -93.834 54 -123.501s73.666 -44.5 120.999 -44.5c10.667 0 21.167 0.833008 31.5 2.5
s20 4.16699 29 7.5s17.167 6.5 24.5 9.5s14.833 6.83301 22.5 11.5s13.5 8.33398 17.5 11.001l15 10l9 7l41 -71c-11.333 -9.33301 -24.666 -18.666 -39.999 -27.999s-37.833 -19 -67.5 -29s-59.167 -15 -88.5 -15c-78.667 0 -143.167 25.167 -193.5 75.5
s-75.5 113.5 -75.5 189.5zM137 309.999h271c-1.33301 42 -13.5 74.667 -36.5 98s-51.833 35 -86.5 35c-38 0 -70.5 -11.833 -97.5 -35.5s-43.833 -56.167 -50.5 -97.5z" />
    <glyph glyph-name="f" unicode="f" horiz-adv-x="316" 
d="M85 0l-0.00195312 427.997h-63v78h63v17c0 32 4.66699 59.833 14 83.5s20.833 42 34.5 55s29.667 23.333 48 31s34.833 12.667 49.5 15s29.667 3.5 45 3.5l37 -3v-83c-6.66699 1.33301 -15 2 -25 2c-8.66699 0 -17.167 -0.666992 -25.5 -2
s-17.666 -4.16602 -27.999 -8.49902s-19.166 -10.166 -26.499 -17.499s-13.5 -17.666 -18.5 -30.999s-7.5 -29 -7.5 -47v-15h120v-78h-120v-428h-97z" />
    <glyph glyph-name="g" unicode="g" horiz-adv-x="594" 
d="M114 -90c42 -22.667 87.9971 -33.9971 137.997 -33.9971c48 0 86.833 11.5 116.5 34.5s44.5 58.5 44.5 106.5v34l1 32h-2c-31.333 -51.333 -81.333 -77 -150 -77s-123.667 24.5 -165 73.5s-62 110.833 -62 185.5s19.833 135.5 59.5 182.5s93.834 70.5 162.501 70.5
c24 0 45.833 -2.66699 65.5 -8s35.334 -12 47.001 -20s21.5 -15.833 29.5 -23.5s13.667 -14.167 17 -19.5l4 -8h2c-0.666992 5.33301 -1 10.666 -1 15.999c0 34 19 51 57 51h94v-83h-41c-14.667 0 -22 -6.66699 -22 -20v-382c0 -40 -7.16699 -75.333 -21.5 -106
s-33.666 -54.834 -57.999 -72.501s-51.333 -30.834 -81 -39.501s-61.167 -13 -94.5 -13c-60 0 -117.333 14 -172 42zM280.997 90.0029c39.333 0 71.5 13.667 96.5 41s37.5 71.666 37.5 132.999c0 113.333 -47.667 170 -143 170c-43.333 0 -77.166 -14.833 -101.499 -44.5
s-36.5 -70.5 -36.5 -122.5c0 -53.333 13.167 -96.166 39.5 -128.499s62.166 -48.5 107.499 -48.5z" />
    <glyph glyph-name="h" unicode="h" horiz-adv-x="605" 
d="M67 0v601c0 14.667 -7.33301 22 -22 22h-41v83h95c43.333 0 65 -20.667 65 -62v-197l-2 -42h2c13.333 29.333 36.333 55.5 69 78.5s72 34.5 118 34.5c116 0 174 -64.667 174 -194v-219c0 -14.667 7.33301 -22 22 -22h41v-83h-96c-22.667 0 -39 5 -49 15
s-15 26.333 -15 49v238c0 40.667 -6.5 72 -19.5 94s-38.167 33 -75.5 33c-38 0 -71.667 -11.667 -101 -35s-49.333 -53.333 -60 -90c-5.33301 -18 -8 -40.333 -8 -67v-237h-97z" />
    <glyph glyph-name="i" unicode="i" horiz-adv-x="265" 
d="M86 605v101h87v-101h-87zM84 64v337c0 14.667 -7.33301 22 -22 22h-41v83h95c22.667 0 39.167 -5 49.5 -15s15.5 -26.333 15.5 -49v-337c0 -14.667 7.33301 -22 22 -22h41v-83h-96c-22.667 0 -39 5 -49 15s-15 26.333 -15 49z" />
    <glyph glyph-name="j" unicode="j" horiz-adv-x="245" 
d="M86 605v101h87v-101h-87zM84 -11l0.00195312 411.999c0 14.667 -7.33301 22 -22 22h-41v83h96c22.667 0 39 -5 49 -15s15 -26.333 15 -49v-459c0 -32 -4.83301 -60 -14.5 -84s-21.334 -42.5 -35.001 -55.5s-30 -23.5 -49 -31.5s-35.833 -13 -50.5 -15s-29.667 -3 -45 -3
l-34 2v83c6 -0.666992 13.333 -1 22 -1c12 0 23.333 1.33301 34 4s22.167 7.33398 34.5 14.001s22.166 18 29.499 34s11 35.667 11 59z" />
    <glyph glyph-name="k" unicode="k" horiz-adv-x="513" 
d="M67 0l0.000976562 600.999c0 14.667 -7.33301 22 -22 22h-41v83h95c23.333 0 40 -4.16699 50 -12.5s15 -23.5 15 -45.5v-328h45c24 0 41.333 7.33301 52 22l117 164h112l-138 -188c-6.66699 -9.33301 -13.167 -17.166 -19.5 -23.499s-11.166 -10.5 -14.499 -12.5l-4 -2
v-2c11.333 -4 22.666 -16.667 33.999 -38l75 -137c7.33301 -13.333 22 -20 44 -20h30v-83h-70c-23.333 0 -40.333 3 -51 9s-21.334 18.667 -32.001 38l-93 170c-7.33301 14 -24 21 -50 21h-37v-238h-97z" />
    <glyph glyph-name="l" unicode="l" horiz-adv-x="249" 
d="M67 64v537c0 14.667 -7.33301 22 -22 22h-40v83h95c22.667 0 39 -5 49 -15s15 -26.333 15 -49v-537c0 -14.667 7.33301 -22 22 -22h41v-83h-95c-22.667 0 -39.167 5 -49.5 15s-15.5 26.333 -15.5 49z" />
    <glyph glyph-name="m" unicode="m" horiz-adv-x="934" 
d="M85 0l0.000976562 401.001c0 14.667 -7.33301 22 -22 22h-41v83h93c42.667 0 64 -18.667 64 -56v-19l-1 -29h2c12.667 31.333 35.167 58.5 67.5 81.5s67.5 34.5 105.5 34.5c84 0 135 -38.333 153 -115h2c14 32 37.5 59.167 70.5 81.5s69.167 33.5 108.5 33.5
c111.333 0 167 -64.667 167 -194v-219c0 -14.667 7.33301 -22 22 -22h41v-83h-96c-22.667 0 -39 5 -49 15s-15 26.333 -15 49v239c0 40.667 -6.16699 72 -18.5 94s-35.833 33 -70.5 33c-33.333 0 -63 -12.667 -89 -38s-43.333 -56 -52 -92c-6 -20.667 -9 -43.667 -9 -69
v-231h-97v303c0 40 -5.83301 71.167 -17.5 93.5s-34.834 33.5 -69.501 33.5s-65 -12.833 -91 -38.5s-44 -57.5 -54 -95.5c-4.66699 -18.667 -7 -40.334 -7 -65.001v-231h-97z" />
    <glyph glyph-name="n" unicode="n" horiz-adv-x="623" 
d="M85 0l0.00195312 401c0 14.667 -7.33301 22 -22 22h-41v83h93c42.667 0 64 -18.667 64 -56v-19l-2 -29h2c13.333 28.667 36.166 55.167 68.499 79.5s73.166 36.5 122.499 36.5c115.333 0 173 -64.667 173 -194v-219c0 -14.667 7.33301 -22 22 -22h41v-83h-96
c-22.667 0 -39 5 -49 15s-15 26.333 -15 49v238c0 40.667 -6.5 72 -19.5 94s-38.167 33 -75.5 33c-38 0 -71.5 -11.5 -100.5 -34.5s-48.833 -52.833 -59.5 -89.5c-6 -17.333 -9 -40 -9 -68v-237h-97z" />
    <glyph glyph-name="o" unicode="o" horiz-adv-x="611" 
d="M33 254c0 76 26.332 139 78.999 189s117 75 193 75c76.667 0 141.334 -25 194.001 -75s79 -113 79 -189s-26.5 -139.333 -79.5 -190s-117.5 -76 -193.5 -76s-140.333 25.333 -193 76s-79 114 -79 190zM130.999 254c0 -52 17 -95.333 51 -130s75 -52 123 -52
c48.667 0 89.834 17.167 123.501 51.5s50.5 77.833 50.5 130.5c0 52 -16.833 95 -50.5 129s-74.834 51 -123.501 51c-48 0 -89 -17 -123 -51s-51 -77 -51 -129z" />
    <glyph glyph-name="p" unicode="p" horiz-adv-x="601" 
d="M85 -200v600.999c0 14.667 -7.33301 22 -22 22h-41v83h91c41.333 0 62 -17 62 -51l-1 -27h2c1.33301 2.66699 3.16602 6 5.49902 10s8.16602 11.167 17.499 21.5s19.833 19.5 31.5 27.5s27.667 15.167 48 21.5s42.166 9.5 65.499 9.5c68 0 122.167 -24.333 162.5 -73
s60.5 -112.667 60.5 -192s-21.5 -143.333 -64.5 -192s-98.167 -73 -165.5 -73c-20.667 0 -40.167 2.83301 -58.5 8.5s-33.166 12.334 -44.499 20.001s-21.166 15.5 -29.499 23.5s-14.166 14.667 -17.499 20l-5 9h-2c1.33301 -12 2 -26.667 2 -44v-225h-97zM179 250.999
c0 -48.667 12.832 -90.833 38.499 -126.5s60.834 -53.5 105.501 -53.5c41.333 0 75.833 16.333 103.5 49s41.5 76.667 41.5 132c0 54.667 -13.167 98.5 -39.5 131.5s-60.833 49.5 -103.5 49.5c-41.333 0 -76 -15.167 -104 -45.5s-42 -75.833 -42 -136.5z" />
    <glyph glyph-name="q" unicode="q" horiz-adv-x="602" 
d="M35 253c0 80 21.165 144.167 63.498 192.5s97.166 72.5 164.499 72.5c22.667 0 43.667 -3 63 -9s34.833 -13.167 46.5 -21.5s21.834 -16.666 30.501 -24.999s14.667 -15.5 18 -21.5l5 -9h2c-0.666992 7.33301 -1 16 -1 26c0 32 20.667 48 62 48h91v-83h-41
c-14.667 0 -22 -7.33301 -22 -22v-601h-97v229l2 44h-2c-1.33301 -2 -3.16602 -5 -5.49902 -9s-8.16602 -10.833 -17.499 -20.5s-19.5 -18.334 -30.5 -26.001s-26.333 -14.5 -46 -20.5s-40.5 -9 -62.5 -9c-68 0 -122.167 24.333 -162.5 73s-60.5 112.667 -60.5 192z
M132.998 253c0 -54.667 13.332 -98.499 39.999 -131.499s61.334 -49.5 104.001 -49.5c41.333 0 75.833 15.167 103.5 45.5s41.5 75.833 41.5 136.5c0 49.333 -12.333 91.666 -37 126.999s-60 53 -106 53c-41.333 0 -76 -16.333 -104 -49s-42 -76.667 -42 -132z" />
    <glyph glyph-name="r" unicode="r" horiz-adv-x="376" 
d="M85 0l0.000976562 400.999c0 14.667 -7.33301 22 -22 22h-41v83h93c42.667 0 64 -19.667 64 -59v-32l-2 -35h2c12.667 38.667 33.167 70.334 61.5 95.001s61.166 37 98.499 37l26 -2v-96c-8.66699 2 -18 3 -28 3c-32 0 -60.833 -10.5 -86.5 -31.5
s-44.5 -50.167 -56.5 -87.5c-8 -26 -12 -56.333 -12 -91v-207h-97z" />
    <glyph glyph-name="s" unicode="s" horiz-adv-x="449" 
d="M28 77l49.0029 64.998c1.33301 -2 3.66602 -4.66699 6.99902 -8s10.166 -9.33301 20.499 -18s21 -16.334 32 -23.001s25.167 -12.667 42.5 -18s34.666 -8 51.999 -8c24.667 0 45.334 5.66699 62.001 17s25 27.333 25 48c0 16.667 -9.5 31.334 -28.5 44.001
s-42 24.167 -69 34.5s-53.833 21.833 -80.5 34.5s-49.5 30.167 -68.5 52.5s-28.5 48.5 -28.5 78.5c0 46 17.667 81.167 53 105.5s80.333 36.5 135 36.5c39.333 0 76.833 -7.83301 112.5 -23.5s53.5 -40.5 53.5 -74.5v-48h-87v25c0 13.333 -8.16699 23.833 -24.5 31.5
s-33.5 11.5 -51.5 11.5c-29.333 0 -52.5 -5.16699 -69.5 -15.5s-25.5 -25.166 -25.5 -44.499c0 -17.333 9.5 -32.5 28.5 -45.5s42.167 -24.333 69.5 -34s54.5 -20.5 81.5 -32.5s50 -29.167 69 -51.5s28.5 -49.166 28.5 -80.499c0 -44.667 -17.5 -80.5 -52.5 -107.5
s-79.5 -40.5 -133.5 -40.5c-25.333 0 -49.5 3 -72.5 9s-42 13.333 -57 22s-28.333 17.5 -40 26.5s-19.834 16.5 -24.501 22.5z" />
    <glyph glyph-name="t" unicode="t" horiz-adv-x="328" 
d="M83 185l0.00292969 242.999h-66v78h68v139h95v-139h122v-78h-122v-232c0 -19.333 2.66699 -36.166 8 -50.499s11.833 -25.5 19.5 -33.5s16.667 -14.333 27 -19s19.666 -7.66699 27.999 -9s16.833 -2 25.5 -2l23 2v-86c-9.33301 -1.33301 -20.666 -2 -33.999 -2
c-16 0 -31.333 1 -46 3s-31.334 7 -50.001 15s-34.834 18.5 -48.501 31.5s-25.334 31.5 -35.001 55.5s-14.5 52 -14.5 84z" />
    <glyph glyph-name="u" unicode="u" horiz-adv-x="617" 
d="M80 182v219c0 14.667 -7.33301 22 -22 22h-41v83h95c22.667 0 39 -5 49 -15s15 -25.667 15 -47v-240c0 -40 6.66699 -71 20 -93s38.333 -33 75 -33c50 0 90 18.667 120 56s45 82.333 45 135v237h97v-401c0 -14.667 7.33301 -22 22 -22h41v-83h-93
c-42.667 0 -64 18.667 -64 56v19l1 29h-2c-12.667 -29.333 -35.5 -56 -68.5 -80s-72.167 -36 -117.5 -36c-57.333 0 -100.333 15.833 -129 47.5s-43 80.5 -43 146.5z" />
    <glyph glyph-name="v" unicode="v" horiz-adv-x="534" 
d="M211 0l-156 403c-4.66699 13.333 -15 20 -31 20h-10v83h50c22.667 0 39.334 -3.5 50.001 -10.5s19.667 -20.5 27 -40.5l109 -291l18 -66h2c5.33301 25.333 11.333 47.333 18 66l108 291c7.33301 20 16.5 33.5 27.5 40.5s27.5 10.5 49.5 10.5h47v-83h-10
c-16.667 0 -27.334 -6.66699 -32.001 -20l-155 -403h-112z" />
    <glyph glyph-name="w" unicode="w" horiz-adv-x="845" 
d="M194 0l-133.001 402.999c-4.66699 13.333 -15.334 20 -32.001 20h-14v83h61c22.667 0 39.334 -3.66699 50.001 -11s19.334 -21.666 26.001 -42.999l89 -301l12 -54h2c4 18.667 8.66699 36.667 14 54l109 353h90l109 -353l13 -54h2
c3.33301 18.667 7.66602 36.667 12.999 54l89 301c6.66699 21.333 15.167 35.666 25.5 42.999s26.833 11 49.5 11h61v-83h-14c-15.333 0 -25.666 -6.66699 -30.999 -20l-133 -403h-109l-105 325l-14 55h-2c-4 -19.333 -8.66699 -37.666 -14 -54.999l-105 -325h-109z" />
    <glyph glyph-name="x" unicode="x" horiz-adv-x="505" 
d="M20 0l171.004 259.999l-97 144c-8.66699 12.667 -22.667 19 -42 19h-29v83h62c23.333 0 40.666 -3.16699 51.999 -9.5s23.666 -20.166 36.999 -41.499l61 -98l16 -32h2c6 12.667 11.667 23.334 17 32.001l61 98c13.333 21.333 25.666 35.166 36.999 41.499
s28.666 9.5 51.999 9.5h62v-83h-29c-19.333 0 -33.333 -6 -42 -18l-97 -145l171 -260h-110l-106 165l-16 27h-2c-4.66699 -10 -9.66699 -19 -15 -27l-106 -165h-110z" />
    <glyph glyph-name="y" unicode="y" horiz-adv-x="543" 
d="M121 -210c-22 0 -43.0029 4.16797 -63.0029 12.501s-34.333 16.833 -43 25.5l-13 12l40 70c0.666992 -2 4 -5.66699 10 -11s15 -10.833 27 -16.5s24.333 -8.5 37 -8.5c38.667 0 68.334 24.333 89.001 73l23 55l-173 401c-6 13.333 -16.333 20 -31 20h-13v83h57
c20.667 0 36 -3.5 46 -10.5s19 -20.5 27 -40.5l114 -285l18 -61h2c5.33301 23.333 11 43.666 17 60.999l106 285c6.66699 20 15.334 33.5 26.001 40.5s26.334 10.5 47.001 10.5h58v-83h-13c-15.333 0 -26 -6.66699 -32 -20l-199 -494c-16 -38.667 -38.333 -68.167 -67 -88.5
s-61 -30.5 -97 -30.5z" />
    <glyph glyph-name="z" unicode="z" horiz-adv-x="515" 
d="M37 0v56l259 320l41 47v2c-10 -1.33301 -26 -2 -48 -2h-139c-14.667 0 -22 -7.33301 -22 -22v-34h-89v75c0 22.667 5.16699 39 15.5 49s26.833 15 49.5 15h361v-56l-259 -321l-42 -46v-2c10.667 1.33301 27 2 49 2h161c14.667 0 22 7.33301 22 22v34h89v-75
c0 -22.667 -5 -39 -15 -49s-26.333 -15 -49 -15h-384z" />
    <glyph glyph-name="braceleft" unicode="{" horiz-adv-x="323" 
d="M110 77l-0.000976562 95.999c0 19.333 -3 36.166 -9 50.499s-13 25 -21 32s-16.167 12.667 -24.5 17s-15.5 6.83301 -21.5 7.5l-9 2v86c2 0 5 0.333008 9 1s10.833 3.33398 20.5 8.00098s18.334 10.667 26.001 18s14.5 18.333 20.5 33s9 31.667 9 51v84
c0 30 4.16699 56.167 12.5 78.5s18.333 39.333 30 51s25.667 21.167 42 28.5s30.333 11.833 42 13.5s23.5 2.5 35.5 2.5l23 -1v-74h-14c-8.66699 0 -16.834 -1.16699 -24.501 -3.5s-16.667 -6.66602 -27 -12.999s-18.666 -17 -24.999 -32s-9.5 -33.833 -9.5 -56.5v-103
c0 -18.667 -2.83301 -35.667 -8.5 -51s-12.5 -27.5 -20.5 -36.5s-15.833 -16.667 -23.5 -23s-14.5 -10.833 -20.5 -13.5l-8 -3v-2c2 -0.666992 4.83301 -1.66699 8.5 -3s10.167 -5.33301 19.5 -12s17.5 -14.334 24.5 -23.001s13.5 -20.834 19.5 -36.501s9 -33.167 9 -52.5
v-115c0 -22.667 3.16699 -41.5 9.5 -56.5s14.666 -25.667 24.999 -32s19.333 -10.666 27 -12.999s15.834 -3.5 24.501 -3.5h14v-74c-6 -1.33301 -13.667 -2 -23 -2c-12 0 -23.833 0.833008 -35.5 2.5s-25.667 6.16699 -42 13.5s-30.333 16.833 -42 28.5
s-21.667 28.834 -30 51.501s-12.5 49 -12.5 79z" />
    <glyph glyph-name="bar" unicode="|" horiz-adv-x="239" 
d="M77 -159v951h85v-951h-85z" />
    <glyph glyph-name="braceright" unicode="}" horiz-adv-x="323" 
d="M28 -22l14 -0.00292969c8.66699 0 16.834 1.16699 24.501 3.5s16.667 6.66602 27 12.999s18.666 17 24.999 32s9.5 33.833 9.5 56.5v115c0 19.333 2.83301 36.833 8.5 52.5s12.334 28 20.001 37s15.5 16.5 23.5 22.5s14.667 10 20 12l9 3v2
c-2 0.666992 -4.83301 1.83398 -8.5 3.50098s-10.167 5.83398 -19.5 12.501s-17.5 14.334 -24.5 23.001s-13.5 20.834 -19.5 36.501s-9 32.834 -9 51.501v103c0 22.667 -3.16699 41.5 -9.5 56.5s-14.666 25.667 -24.999 32s-19.333 10.666 -27 12.999
s-15.834 3.5 -24.501 3.5h-14v74c6 0.666992 13.667 1 23 1c12 0 23.833 -0.833008 35.5 -2.5s25.667 -6.16699 42 -13.5s30.333 -16.833 42 -28.5s21.667 -28.667 30 -51s12.5 -48.5 12.5 -78.5v-84c0 -19.333 3 -36.333 9 -51s13 -25.667 21 -33
s16.167 -13.166 24.5 -17.499s15.5 -6.83301 21.5 -7.5l9 -2v-86c-2 0 -5 -0.333008 -9 -1s-10.833 -3.33398 -20.5 -8.00098s-18.334 -10.5 -26.001 -17.5s-14.5 -17.667 -20.5 -32s-9 -31.166 -9 -50.499v-96c0 -30 -4.16699 -56.333 -12.5 -79
s-18.333 -39.834 -30 -51.501s-25.667 -21.167 -42 -28.5s-30.333 -11.833 -42 -13.5s-23.5 -2.5 -35.5 -2.5l-23 2v74z" />
    <glyph glyph-name="asciitilde" unicode="~" horiz-adv-x="591" 
d="M58 204c0 56.667 12.333 99.001 37 127.001s59 42 103 42c23.333 0 44.5 -5.16699 63.5 -15.5s33.5 -21.5 43.5 -33.5s22.5 -23.167 37.5 -33.5s30.833 -15.5 47.5 -15.5c23.333 0 40.166 9.33301 50.499 28s15.5 40.667 15.5 66h79c0 -112.667 -46.333 -169 -139 -169
c-23.333 0 -44.5 5 -63.5 15s-33.5 21.167 -43.5 33.5s-22.5 23.5 -37.5 33.5s-30.833 15 -47.5 15c-23.333 0 -40.166 -9.33301 -50.499 -28s-15.5 -40.334 -15.5 -65.001h-80z" />
    <glyph glyph-name="uni00A0" unicode="&#xa0;" horiz-adv-x="269" 
 />
    <glyph glyph-name="exclamdown" unicode="&#xa1;" horiz-adv-x="243" 
d="M71 409v97h100v-97h-100zM71 -200l7 512h87l7 -512h-101z" />
    <glyph glyph-name="cent" unicode="&#xa2;" 
d="M263 -38l0.000976562 111.004c-62.667 8.66699 -112.334 39.167 -149.001 91.5s-55 115.166 -55 188.499c0 74 18.333 137.167 55 189.5s86.334 82.833 149.001 91.5v110h73v-110c84 -12.667 144.667 -64.334 182 -155.001l-89 -34c-27.333 66 -69.333 99 -126 99
c-45.333 0 -80.833 -17.833 -106.5 -53.5s-38.5 -81.5 -38.5 -137.5c0 -57.333 12.667 -103.333 38 -138s61 -52 107 -52c57.333 0 99.333 33 126 99l89 -35c-17.333 -40.667 -41.333 -75.334 -72 -104.001s-67.334 -45.334 -110.001 -50.001v-111h-73z" />
    <glyph glyph-name="sterling" unicode="&#xa3;" 
d="M46 0v86.001h61v233h-44v70h44v136c0 55.333 20.5 101.333 61.5 138s92.833 55 155.5 55c30 0 58.833 -5.33301 86.5 -16s48.167 -21.334 61.5 -32.001l19 -16l-57 -69c-32 28.667 -68.333 43 -109 43c-36 0 -64.667 -10.167 -86 -30.5s-32 -45.833 -32 -76.5v-132h184
v-70h-184v-233h216c14.667 0 22 7.33301 22 22v45h92v-89c0 -22.667 -5 -39 -15 -49s-26.333 -15 -49 -15h-427z" />
    <glyph glyph-name="currency" unicode="&#xa4;" horiz-adv-x="617" 
d="M128 0v170h-71v70h71v70h-71v79h71v237h-65v80h297c66 0 119.5 -17.667 160.5 -53s61.5 -83.333 61.5 -144c0 -61.333 -20.5 -109.833 -61.5 -145.5s-94.5 -53.5 -160.5 -53.5h-132v-70h250v-70h-250v-170h-100zM228 389h116c42 0 75 11 99 33s36 51 36 87
s-11.833 64.5 -35.5 85.5s-56.5 31.5 -98.5 31.5h-117v-237z" />
    <glyph glyph-name="yen" unicode="&#xa5;" horiz-adv-x="617" 
d="M98 204l0.00488281 63h160v41l-27 44h-136v63h94v2l-112 181c-8.66699 14.667 -23.334 22 -44.001 22h-17v86h44c25.333 0 44.666 -3.33301 57.999 -10s26.666 -21.334 39.999 -44.001l106 -178l43 -78h2c13.333 26 27.666 52 42.999 78l107 178
c12.667 22.667 25.667 37.334 39 44.001s32.666 10 57.999 10h44v-86h-17c-20.667 0 -35.667 -7.33301 -45 -22l-111 -181v-2h91v-63h-132l-28 -44v-41h160v-63h-160v-204h-100v204h-160z" />
    <glyph glyph-name="section" unicode="&#xa7;" horiz-adv-x="437" 
d="M138 111l-70.999 390.001c-4 15.333 -6 30.666 -6 45.999c0 50 17 91 51 123s80 48 138 48c26 0 50.667 -4.33301 74 -13s40.333 -17 51 -25l16 -13l-46 -64c-26.667 22.667 -58.334 34 -95.001 34c-31.333 0 -56.833 -8.66699 -76.5 -26s-29.5 -42.333 -29.5 -75
c0 -14 1.66699 -27.333 5 -40l68 -385h-79zM46.001 -10.999l44 67.001c28 -24.667 60.333 -37 97 -37c30.667 0 56 9.16699 76 27.5s30 44.166 30 77.499c0 13.333 -2 28.333 -6 45l-66 376h79l70 -390c3.33301 -13.333 5 -28.333 5 -45c0 -50.667 -17 -92 -51 -124
s-79.667 -48 -137 -48c-26 0 -50.667 4.33301 -74 13s-40.333 17 -51 25z" />
    <glyph glyph-name="dieresis" unicode="&#xa8;" horiz-adv-x="501" 
d="M307 781v101h73v-101h-73zM142 781v101h74v-101h-74z" />
    <glyph glyph-name="copyright" unicode="&#xa9;" horiz-adv-x="803" 
d="M44 353c0 101.333 34.667 187.5 104 258.5s153 106.5 251 106.5c100 0 184.833 -35.5 254.5 -106.5s104.5 -157.167 104.5 -258.5s-34.833 -187.5 -104.5 -258.5s-154.5 -106.5 -254.5 -106.5c-98 0 -181.667 35.5 -251 106.5s-104 157.167 -104 258.5zM118 353
c0 -83.333 27 -153.666 81 -210.999s120.667 -86 200 -86c80.667 0 148.5 28.667 203.5 86s82.5 127.666 82.5 210.999s-27.5 153.666 -82.5 210.999s-122.833 86 -203.5 86c-79.333 0 -146 -28.667 -200 -86s-81 -127.666 -81 -210.999zM210 352
c0 54.667 18.168 101.669 54.501 141.002s83.833 59 142.5 59c21.333 0 41.5 -3.33301 60.5 -10s34.5 -15 46.5 -25s22.5 -19.833 31.5 -29.5s15.167 -17.834 18.5 -24.501l6 -10l-61 -33c-2.66699 4.66699 -6.5 10.5 -11.5 17.5s-16.167 16.333 -33.5 28
s-35.666 17.5 -54.999 17.5c-37.333 0 -67.333 -12.833 -90 -38.5s-34 -56.5 -34 -92.5c0 -37.333 11 -68.5 33 -93.5s52.333 -37.5 91 -37.5c12.667 0 24.667 2.16699 36 6.5s20.666 9.5 27.999 15.5s13.833 12.167 19.5 18.5s9.83398 11.833 12.501 16.5l4 6l61 -33
c-1.33301 -2.66699 -3.33301 -6.16699 -6 -10.5s-8.83398 -12.333 -18.501 -24s-20.334 -21.834 -32.001 -30.501s-27 -16.5 -46 -23.5s-39.167 -10.5 -60.5 -10.5c-58.667 0 -106.167 19.5 -142.5 58.5s-54.5 86.167 -54.5 141.5z" />
    <glyph glyph-name="ordfeminine" unicode="&#xaa;" horiz-adv-x="440" 
d="M176 383c-30 0 -55.668 8.83203 -77.001 26.499s-32 41.834 -32 72.501c0 71.333 61.333 107 184 107h14c-0.666992 24.667 -5.66699 41.834 -15 51.501s-24.666 14.5 -45.999 14.5c-28.667 0 -43 -5.66699 -43 -17v-19h-69v40c0 11.333 4.33301 21.166 13 29.499
s19.5 14.333 32.5 18s25 6.16699 36 7.5s21.5 2 31.5 2c88 0 132 -42 132 -126v-126c0 -6.66699 3.33301 -10 10 -10h28v-65h-58c-28 0 -43.333 12.333 -46 37l-1 10h-2c-2 -4 -5.16699 -9 -9.5 -15s-14.333 -13.833 -30 -23.5s-33.167 -14.5 -52.5 -14.5zM189.999 441.999
c22 0 39.668 9.33203 53.001 27.999s20.666 41.334 21.999 68.001h-11c-75.333 0 -113 -17.667 -113 -53c0 -12 4.33301 -22.167 13 -30.5s20.667 -12.5 36 -12.5zM66 264.998v57h312v-57h-312z" />
    <glyph glyph-name="guillemotleft" unicode="&#xab;" horiz-adv-x="549" 
d="M243 282l164 206h97l-164 -206l164 -205h-97zM205 77l-164 205l164 206h97l-164 -206l164 -205h-97z" />
    <glyph glyph-name="logicalnot" unicode="&#xac;" horiz-adv-x="604" 
d="M62 340v78h477v-267h-81v189h-396z" />
    <glyph glyph-name="uni00AD" unicode="&#xad;" horiz-adv-x="410" 
d="M59 242v86h292v-86h-292z" />
    <glyph glyph-name="registered" unicode="&#xae;" horiz-adv-x="803" 
d="M44 353c0 101.333 34.667 187.5 104 258.5s153 106.5 251 106.5c100 0 184.833 -35.5 254.5 -106.5s104.5 -157.167 104.5 -258.5s-34.833 -187.5 -104.5 -258.5s-154.5 -106.5 -254.5 -106.5c-98 0 -181.667 35.5 -251 106.5s-104 157.167 -104 258.5zM118 353
c0 -83.333 27 -153.666 81 -210.999s120.667 -86 200 -86c80.667 0 148.5 28.667 203.5 86s82.5 127.666 82.5 210.999s-27.5 153.666 -82.5 210.999s-122.833 86 -203.5 86c-79.333 0 -146 -28.667 -200 -86s-81 -127.666 -81 -210.999zM277 166l0.000976562 323.002h-33
v54h179c36 0 64.833 -10.5 86.5 -31.5s32.5 -48.833 32.5 -83.5c0 -26.667 -7.16699 -48.834 -21.5 -66.501s-30.166 -28.834 -47.499 -33.501v-2c8 -2 15 -8.66699 21 -20l39 -75c4.66699 -8.66699 12.667 -13 24 -13h11v-52h-39c-14.667 0 -25.834 1.66699 -33.501 5
s-14.5 11 -20.5 23l-51 99c-6.66699 12.667 -18.334 19 -35.001 19h-41v-146h-71zM348.001 364.002h60.001c19.333 0 34.333 5.66699 45 17s16 27 16 47c0 19.333 -5.33301 34.333 -16 45s-25.334 16 -44.001 16h-61v-125z" />
    <glyph glyph-name="macron" unicode="&#xaf;" horiz-adv-x="464" 
d="M108 784v68h254v-68h-254z" />
    <glyph glyph-name="degree" unicode="&#xb0;" horiz-adv-x="384" 
d="M192 422c-42 0 -77.833 14.5 -107.5 43.5s-44.5 63.833 -44.5 104.5s14.833 75.5 44.5 104.5s65.5 43.5 107.5 43.5c41.333 0 77 -14.5 107 -43.5s45 -63.833 45 -104.5s-15 -75.5 -45 -104.5s-65.667 -43.5 -107 -43.5zM192 496c20.667 0 38.167 7.16699 52.5 21.5
s21.5 31.833 21.5 52.5s-7.16699 38.334 -21.5 53.001s-31.833 22 -52.5 22s-38.167 -7.33301 -52.5 -22s-21.5 -32.334 -21.5 -53.001s7.16699 -38.167 21.5 -52.5s31.833 -21.5 52.5 -21.5z" />
    <glyph glyph-name="plusminus" unicode="&#xb1;" 
d="M24 246v78h224v246h82v-246h223v-78h-223v-246h-82v246h-224zM40 -95h497v-78h-497v78z" />
    <glyph glyph-name="twosuperior" unicode="&#xb2;" horiz-adv-x="376" 
d="M78 266c-18 0 -30.502 4.00293 -37.502 12.0029s-10.5 23.667 -10.5 47c0 20.667 3.33301 39.167 10 55.5s17 31 31 44s26.667 23.333 38 31s26.333 16.834 45 27.501c20.667 11.333 36.334 20.666 47.001 27.999s20.834 17.666 30.501 30.999s14.5 27.666 14.5 42.999
c0 17.333 -6 31.5 -18 42.5s-28 16.5 -48 16.5c-16.667 0 -30.5 -3.5 -41.5 -10.5s-16.5 -15.167 -16.5 -24.5v-24h-71v44c0 27.333 14.333 48.5 43 63.5s57.667 22.5 87 22.5c42 0 76.167 -12 102.5 -36s39.5 -55.333 39.5 -94c0 -20.667 -3.5 -39 -10.5 -55
s-18.333 -30.833 -34 -44.5s-28.5 -23.667 -38.5 -30s-25.667 -15.5 -47 -27.5c-18.667 -10.667 -33 -19.334 -43 -26.001s-19.5 -15.667 -28.5 -27s-13.5 -23.333 -13.5 -36c0 -4 3 -6 9 -6h148c4 0 6 2.33301 6 7v34h71v-62c0 -30.667 -15.333 -46 -46 -46h-218z" />
    <glyph glyph-name="threesuperior" unicode="&#xb3;" horiz-adv-x="376" 
d="M187 258c-28 0 -54.999 6.66797 -80.999 20.001s-45 26.666 -57 39.999l-18 20l52 49l14 -16c6 -6.66699 18 -15.334 36 -26.001s36 -16 54 -16c20.667 0 38.5 6.83301 53.5 20.5s22.5 30.834 22.5 51.501s-7.83301 37 -23.5 49s-34.834 18 -57.501 18h-35l-12 44l85 106
l21 23v2c-10.667 -1.33301 -21.667 -2 -33 -2h-76c-6 0 -9 -3.33301 -9 -10v-26h-71v53c0 18 3.33301 30.5 10 37.5s19 10.5 37 10.5h233v-51l-105 -127c30.667 -4 57.167 -17.833 79.5 -41.5s33.5 -52.5 33.5 -86.5c0 -41.333 -15 -75.333 -45 -102s-66 -40 -108 -40z" />
    <glyph glyph-name="acute" unicode="&#xb4;" horiz-adv-x="388" 
d="M119 755l73 127h98l-95 -127h-76z" />
    <glyph glyph-name="mu" unicode="&#xb5;" horiz-adv-x="655" 
d="M105 -200v600.999c0 14.667 -7.33301 22 -22 22h-41v83h95c22.667 0 39 -5 49 -15s15 -25.667 15 -47v-240c0 -40 6.66699 -71 20 -93s38.333 -33 75 -33c50 0 90 18.667 120 56s45 82.333 45 135v237h97v-401c0 -14.667 7.33301 -22 22 -22h41v-83h-93
c-42.667 0 -64 18.667 -64 56v19l1 29h-2c-1.33301 -3.33301 -3.33301 -7.5 -6 -12.5s-9.16699 -14.167 -19.5 -27.5s-22 -25.166 -35 -35.499s-30.667 -19.666 -53 -27.999s-46.5 -12.5 -72.5 -12.5c-20 0 -37.5 2.66699 -52.5 8s-25.167 10.666 -30.5 15.999l-8 7h-2
c4.66699 -32.667 7 -58.667 7 -78v-141h-86z" />
    <glyph glyph-name="mu" unicode="&#x3bc;" horiz-adv-x="655" 
d="M105 -200v600.999c0 14.667 -7.33301 22 -22 22h-41v83h95c22.667 0 39 -5 49 -15s15 -25.667 15 -47v-240c0 -40 6.66699 -71 20 -93s38.333 -33 75 -33c50 0 90 18.667 120 56s45 82.333 45 135v237h97v-401c0 -14.667 7.33301 -22 22 -22h41v-83h-93
c-42.667 0 -64 18.667 -64 56v19l1 29h-2c-1.33301 -3.33301 -3.33301 -7.5 -6 -12.5s-9.16699 -14.167 -19.5 -27.5s-22 -25.166 -35 -35.499s-30.667 -19.666 -53 -27.999s-46.5 -12.5 -72.5 -12.5c-20 0 -37.5 2.66699 -52.5 8s-25.167 10.666 -30.5 15.999l-8 7h-2
c4.66699 -32.667 7 -58.667 7 -78v-141h-86z" />
    <glyph glyph-name="paragraph" unicode="&#xb6;" horiz-adv-x="592" 
d="M272 -50l0.00195312 291c-64.667 0 -120.334 22.5 -167.001 67.5s-70 100.167 -70 165.5c0 64.667 23.167 119.5 69.5 164.5s102.166 67.5 167.499 67.5h271v-86h-196v-670h-75zM409.002 -50v613h75v-613h-75z" />
    <glyph glyph-name="periodcentered" unicode="&#xb7;" horiz-adv-x="217" 
d="M59 239v103h99v-103h-99z" />
    <glyph glyph-name="cedilla" unicode="&#xb8;" horiz-adv-x="416" 
d="M132 -88l28 111.003l49 -10v-8l-11 -55c20.667 -2.66699 37.667 -10.334 51 -23.001s20 -29.334 20 -50.001c0 -28.667 -9.66699 -49.834 -29 -63.501s-43.666 -20.5 -72.999 -20.5c-9.33301 0 -18.5 0.5 -27.5 1.5s-15.833 2.16699 -20.5 3.5l-7 2v58
c13.333 -4.66699 27.666 -7 42.999 -7c31.333 0 47 10.333 47 31s-17.667 31 -53 31z" />
    <glyph glyph-name="onesuperior" unicode="&#xb9;" horiz-adv-x="376" 
d="M68 266v67.001h93v241l1 33h-2c-3.33301 -6.66699 -7.33301 -12.334 -12 -17.001l-40 -38l-46 49l109 105h66v-373h92v-67h-261z" />
    <glyph glyph-name="ordmasculine" unicode="&#xba;" horiz-adv-x="466" 
d="M232 384c-48 0 -88.499 15.833 -121.499 47.5s-49.5 71.834 -49.5 120.501c0 47.333 16.667 86.666 50 117.999s73.666 47 120.999 47c48 0 88.667 -15.667 122 -47s50 -70.666 50 -117.999c0 -48.667 -16.667 -88.834 -50 -120.501s-74 -47.5 -122 -47.5zM232.001 449
c28 0 51.5 9.66699 70.5 29s28.5 44 28.5 74c0 29.333 -9.5 53.5 -28.5 72.5s-42.5 28.5 -70.5 28.5c-27.333 0 -50.5 -9.5 -69.5 -28.5s-28.5 -43.167 -28.5 -72.5c0 -30 9.5 -54.667 28.5 -74s42.167 -29 69.5 -29zM77.001 265v57h313v-57h-313z" />
    <glyph glyph-name="guillemotright" unicode="&#xbb;" horiz-adv-x="549" 
d="M247 77l164 205l-164 206h97l164 -206l-164 -205h-97zM45 77l164 205l-164 206h97l164 -206l-164 -205h-97z" />
    <glyph glyph-name="onequarter" unicode="&#xbc;" horiz-adv-x="874" 
d="M261 0l287 706h80l-287 -706h-80zM54 266v67.001h93v241l1 33h-2c-3.33301 -6.66699 -7.33301 -12.334 -12 -17.001l-40 -38l-46 49l109 105h66v-373h89v-67h-258zM493 113.001v46l192 282h87v-261h66v-67h-66v-113h-76v113h-203zM575 179.001
c8.66699 0.666992 15.333 1 20 1h102v137l1 36h-2c-4 -9.33301 -9 -18.333 -15 -27l-92 -129l-14 -16v-2z" />
    <glyph glyph-name="onehalf" unicode="&#xbd;" horiz-adv-x="866" 
d="M246 0l287 706h80l-286 -706h-81zM51 266v67.001h93v241l1 33h-2c-3.33301 -6.66699 -7.33301 -12.334 -12 -17.001l-40 -38l-46 49l108 105h67v-373h89v-67h-258zM516 59.001c0 20.667 3.33203 39.1719 9.99902 55.5049s17 31.166 31 44.499s26.5 23.666 37.5 30.999
s26.167 16.666 45.5 27.999c14.667 8 26.334 14.833 35.001 20.5s18 12.667 28 21s17.333 17.333 22 27s7 20.5 7 32.5c0 17.333 -6 31.666 -18 42.999s-28 17 -48 17c-16.667 0 -30.5 -3.5 -41.5 -10.5s-16.5 -15.167 -16.5 -24.5v-24h-71v43c0 27.333 14.333 48.5 43 63.5
s57.667 22.5 87 22.5c42 0 76.167 -12 102.5 -36s39.5 -55 39.5 -93c0 -20.667 -3.5 -39.167 -10.5 -55.5s-18.333 -31.333 -34 -45s-28.5 -23.667 -38.5 -30s-25.667 -15.5 -47 -27.5c-18.667 -10.667 -33 -19.334 -43 -26.001s-19.5 -15.667 -28.5 -27
s-13.5 -23 -13.5 -35c0 -4.66699 3 -7 9 -7h148c4 0 6 2.33301 6 7v34h71v-61c0 -31.333 -15.333 -47 -46 -47h-218c-18 0 -30.5 4.16699 -37.5 12.5s-10.5 23.833 -10.5 46.5z" />
    <glyph glyph-name="threequarters" unicode="&#xbe;" horiz-adv-x="877" 
d="M262 0l287 706h80l-286 -706h-81zM196 258c-28 0 -54.999 6.66797 -80.999 20.001s-45 26.666 -57 39.999l-18 20l52 49l14 -16c6 -6.66699 18 -15.334 36 -26.001s35.667 -16 53 -16c21.333 0 39.5 6.83301 54.5 20.5s22.5 30.834 22.5 51.501s-7.83301 37 -23.5 49
s-34.834 18 -57.501 18h-35l-12 44l84 106l22 23v2c-10.667 -1.33301 -21.667 -2 -33 -2h-76c-6.66699 0 -10 -3.33301 -10 -10v-26h-70v53c0 18 3.33301 30.5 10 37.5s19 10.5 37 10.5h233v-51l-105 -127c30.667 -4 57.167 -17.833 79.5 -41.5s33.5 -52.5 33.5 -86.5
c0 -41.333 -15 -75.333 -45 -102s-66 -40 -108 -40zM496.001 113.001v46l192 282h87v-261h66v-67h-66v-113h-76v113h-203zM578.001 179.001c8.66699 0.666992 15.333 1 20 1h102v137l1 36h-2c-4 -9.33301 -9 -18.333 -15 -27l-91 -129l-15 -16v-2z" />
    <glyph glyph-name="questiondown" unicode="&#xbf;" horiz-adv-x="457" 
d="M214 409v97h100v-97h-100zM40 -28c0 30.667 5.99902 58.1689 17.999 82.502s26.667 44.666 44 60.999s34.833 32 52.5 47s32.5 32 44.5 51s18 39.5 18 61.5v37h94v-43c0 -28 -5.83301 -53.667 -17.5 -77s-25.834 -42.833 -42.501 -58.5l-49.5 -45.5
c-16.333 -14.667 -30.333 -31.167 -42 -49.5s-17.5 -37.833 -17.5 -58.5c0 -28 10.833 -51.667 32.5 -71s48.834 -29 81.501 -29c18.667 0 37.5 3.66699 56.5 11s33.5 14.333 43.5 21l14 11l53 -69c-2 -2 -4.66699 -4.33301 -8 -7s-10.666 -7.66699 -21.999 -15
s-23.333 -13.833 -36 -19.5s-28.667 -10.834 -48 -15.501s-39.333 -7 -60 -7c-58.667 0 -108.167 16.833 -148.5 50.5s-60.5 77.5 -60.5 131.5z" />
    <glyph glyph-name="Agrave" unicode="&#xc0;" horiz-adv-x="665" 
d="M12 0v86h14c17.333 0 28.333 7.33301 33 22l221 598h105l221 -598c4.66699 -14.667 15.667 -22 33 -22h14v-86h-55c-24.667 -0 -42.5 3.83301 -53.5 11.5s-20.833 23.167 -29.5 46.5l-53 145h-259l-53 -145c-8.66699 -23.333 -18.5 -38.833 -29.5 -46.5
s-28.833 -11.5 -53.5 -11.5h-55zM227 287h211l-77 215l-28 99h-2c-10 -41.333 -19 -74.333 -27 -99zM293 755l-95 127h98l73 -127h-76z" />
    <glyph glyph-name="Aacute" unicode="&#xc1;" horiz-adv-x="665" 
d="M12 0v86h14c17.333 0 28.333 7.33301 33 22l221 598h105l221 -598c4.66699 -14.667 15.667 -22 33 -22h14v-86h-55c-24.667 -0 -42.5 3.83301 -53.5 11.5s-20.833 23.167 -29.5 46.5l-53 145h-259l-53 -145c-8.66699 -23.333 -18.5 -38.833 -29.5 -46.5
s-28.833 -11.5 -53.5 -11.5h-55zM227 287h211l-77 215l-28 99h-2c-10 -41.333 -19 -74.333 -27 -99zM293 755l73 127h98l-95 -127h-76z" />
    <glyph glyph-name="Acircumflex" unicode="&#xc2;" horiz-adv-x="665" 
d="M12 0v86h14c17.333 0 28.333 7.33301 33 22l221 598h105l221 -598c4.66699 -14.667 15.667 -22 33 -22h14v-86h-55c-24.667 -0 -42.5 3.83301 -53.5 11.5s-20.833 23.167 -29.5 46.5l-53 145h-259l-53 -145c-8.66699 -23.333 -18.5 -38.833 -29.5 -46.5
s-28.833 -11.5 -53.5 -11.5h-55zM227 287h211l-77 215l-28 99h-2c-10 -41.333 -19 -74.333 -27 -99zM201 755l87 127h89l88 -127h-79l-52 80h-2l-53 -80h-78z" />
    <glyph glyph-name="Atilde" unicode="&#xc3;" horiz-adv-x="665" 
d="M12 0v86h14c17.333 0 28.333 7.33301 33 22l221 598h105l221 -598c4.66699 -14.667 15.667 -22 33 -22h14v-86h-55c-24.667 -0 -42.5 3.83301 -53.5 11.5s-20.833 23.167 -29.5 46.5l-53 145h-259l-53 -145c-8.66699 -23.333 -18.5 -38.833 -29.5 -46.5
s-28.833 -11.5 -53.5 -11.5h-55zM227 287h211l-77 215l-28 99h-2c-10 -41.333 -19 -74.333 -27 -99zM162 756c0 84.667 34.334 127 103.001 127c19.333 0 36.666 -5.66699 51.999 -17s28.833 -22.666 40.5 -33.999s23.5 -17 35.5 -17c14 0 24.333 6.66699 31 20
s10 28.333 10 45h65c0 -84.667 -34.333 -127 -103 -127c-19.333 0 -36.5 5.66699 -51.5 17s-28.5 22.666 -40.5 33.999s-24 17 -36 17c-14 0 -24.167 -6.5 -30.5 -19.5s-9.5 -28.167 -9.5 -45.5h-66z" />
    <glyph glyph-name="Adieresis" unicode="&#xc4;" horiz-adv-x="665" 
d="M12 0v86h14c17.333 0 28.333 7.33301 33 22l221 598h105l221 -598c4.66699 -14.667 15.667 -22 33 -22h14v-86h-55c-24.667 -0 -42.5 3.83301 -53.5 11.5s-20.833 23.167 -29.5 46.5l-53 145h-259l-53 -145c-8.66699 -23.333 -18.5 -38.833 -29.5 -46.5
s-28.833 -11.5 -53.5 -11.5h-55zM227 287h211l-77 215l-28 99h-2c-10 -41.333 -19 -74.333 -27 -99zM379 781v101h73v-101h-73zM214 781v101h74v-101h-74z" />
    <glyph glyph-name="Aring" unicode="&#xc5;" horiz-adv-x="665" 
d="M12 0v86h14c17.333 0 28.333 7.33301 33 22l221 598h105l221 -598c4.66699 -14.667 15.667 -22 33 -22h14v-86h-55c-24.667 -0 -42.5 3.83301 -53.5 11.5s-20.833 23.167 -29.5 46.5l-53 145h-259l-53 -145c-8.66699 -23.333 -18.5 -38.833 -29.5 -46.5
s-28.833 -11.5 -53.5 -11.5h-55zM227 287h211l-77 215l-28 99h-2c-10 -41.333 -19 -74.333 -27 -99zM333 743c-22.667 0 -41.834 6.83301 -57.501 20.5s-23.5 31.5 -23.5 53.5c0 22.667 7.83301 40.834 23.5 54.501s34.834 20.5 57.501 20.5c22 0 41 -6.83301 57 -20.5
s24 -31.834 24 -54.501c0 -22 -8 -39.833 -24 -53.5s-35 -20.5 -57 -20.5zM333 784c10 0 18.167 3.16699 24.5 9.5s9.5 14.166 9.5 23.499c0 10.667 -3.16699 19.167 -9.5 25.5s-14.5 9.5 -24.5 9.5s-18.167 -3.16699 -24.5 -9.5s-9.5 -14.833 -9.5 -25.5
c0 -9.33301 3.16699 -17.166 9.5 -23.499s14.5 -9.5 24.5 -9.5z" />
    <glyph glyph-name="AE" unicode="&#xc6;" horiz-adv-x="863" 
d="M10 0v86h11c16.667 0 28 7.33301 34 22l237 598h448c22.667 0 39 -5 49 -15s15 -26.333 15 -49v-89h-91v45c0 14.667 -7.33301 22 -22 22h-195v-221h242v-86h-242v-205c0 -14.667 8.66699 -22 26 -22h196c14.667 0 22 7.33301 22 22v45h92v-89c0 -22.667 -5 -39 -15 -49
s-26.333 -15 -49 -15h-301c-26 0 -44.5 4.5 -55.5 13.5s-16.5 25.833 -16.5 50.5v249h-159l-95 -255c-8.66699 -23.333 -18.5 -38.833 -29.5 -46.5s-28.833 -11.5 -53.5 -11.5h-48zM269 399h126v221h-43z" />
    <glyph glyph-name="Ccedilla" unicode="&#xc7;" horiz-adv-x="698" 
d="M327 -88l20.001 78.0039c-92.667 10 -167.834 49.5 -225.501 118.5s-86.5 152.5 -86.5 250.5c0 102 33.833 187.333 101.5 256s151.834 103 252.501 103c26 0 53.5 -2.83301 82.5 -8.5s57.667 -14.167 86 -25.5s51.666 -27.333 69.999 -48s27.5 -44.334 27.5 -71.001v-69
h-92v40c0 27.333 -18.333 49 -55 65s-75.667 24 -117 24c-71.333 0 -131 -24.667 -179 -74s-72 -113.333 -72 -192c0 -77.333 24 -142.833 72 -196.5s108 -80.5 180 -80.5c41.333 0 80.833 8 118.5 24s64.834 32 81.501 48l26 23l54 -71
c-2.66699 -3.33301 -6.5 -7.5 -11.5 -12.5s-16.167 -14 -33.5 -27s-35.666 -24.667 -54.999 -35s-44.5 -20 -75.5 -29s-62.833 -13.833 -95.5 -14.5l-7 -38c20.667 -2.66699 37.667 -10.334 51 -23.001s20 -29.334 20 -50.001c0 -28.667 -9.83301 -49.834 -29.5 -63.501
s-43.834 -20.5 -72.501 -20.5c-9.33301 0 -18.5 0.5 -27.5 1.5s-15.833 2.16699 -20.5 3.5l-7 2v58c13.333 -4.66699 27.666 -7 42.999 -7c31.333 0 47 10.333 47 31s-17.667 31 -53 31z" />
    <glyph glyph-name="Egrave" unicode="&#xc8;" horiz-adv-x="571" 
d="M98 64v556h-65v86h416c22.667 0 39 -5 49 -15s15 -26.333 15 -49v-89h-92v45c0 14.667 -7.33301 22 -22 22h-201v-221h248v-86h-248v-205c0 -14.667 7.33301 -22 22 -22h207c14.667 0 22 7.33301 22 22v45h91v-89c0 -22.667 -5 -39 -15 -49s-26.333 -15 -49 -15h-313
c-22.667 0 -39.167 5 -49.5 15s-15.5 26.333 -15.5 49zM251 755l-95 127h98l73 -127h-76z" />
    <glyph glyph-name="Eacute" unicode="&#xc9;" horiz-adv-x="571" 
d="M251 755l73 127h98l-95 -127h-76zM98 64v556h-65v86h416c22.667 0 39 -5 49 -15s15 -26.333 15 -49v-89h-92v45c0 14.667 -7.33301 22 -22 22h-201v-221h248v-86h-248v-205c0 -14.667 7.33301 -22 22 -22h207c14.667 0 22 7.33301 22 22v45h91v-89
c0 -22.667 -5 -39 -15 -49s-26.333 -15 -49 -15h-313c-22.667 0 -39.167 5 -49.5 15s-15.5 26.333 -15.5 49z" />
    <glyph glyph-name="Ecircumflex" unicode="&#xca;" horiz-adv-x="571" 
d="M159 755l87 127h89l88 -127h-79l-52 80h-2l-53 -80h-78zM98 64v556h-65v86h416c22.667 0 39 -5 49 -15s15 -26.333 15 -49v-89h-92v45c0 14.667 -7.33301 22 -22 22h-201v-221h248v-86h-248v-205c0 -14.667 7.33301 -22 22 -22h207c14.667 0 22 7.33301 22 22v45h91v-89
c0 -22.667 -5 -39 -15 -49s-26.333 -15 -49 -15h-313c-22.667 0 -39.167 5 -49.5 15s-15.5 26.333 -15.5 49z" />
    <glyph glyph-name="Edieresis" unicode="&#xcb;" horiz-adv-x="571" 
d="M337 781v101h73v-101h-73zM172 781v101h74v-101h-74zM98 64v556h-65v86h416c22.667 0 39 -5 49 -15s15 -26.333 15 -49v-89h-92v45c0 14.667 -7.33301 22 -22 22h-201v-221h248v-86h-248v-205c0 -14.667 7.33301 -22 22 -22h207c14.667 0 22 7.33301 22 22v45h91v-89
c0 -22.667 -5 -39 -15 -49s-26.333 -15 -49 -15h-313c-22.667 0 -39.167 5 -49.5 15s-15.5 26.333 -15.5 49z" />
    <glyph glyph-name="Igrave" unicode="&#xcc;" horiz-adv-x="318" 
d="M42 0v86h69v534h-69v86h233v-86h-68v-534h68v-86h-233zM120 755l-95 127h98l73 -127h-76z" />
    <glyph glyph-name="Iacute" unicode="&#xcd;" horiz-adv-x="318" 
d="M42 0v86h69v534h-69v86h233v-86h-68v-534h68v-86h-233zM119 755l73 127h98l-95 -127h-76z" />
    <glyph glyph-name="Icircumflex" unicode="&#xce;" horiz-adv-x="318" 
d="M42 0v86h69v534h-69v86h233v-86h-68v-534h68v-86h-233zM27 755l87 127h89l88 -127h-79l-52 80h-2l-53 -80h-78z" />
    <glyph glyph-name="Idieresis" unicode="&#xcf;" horiz-adv-x="318" 
d="M42 0v86h69v534h-69v86h233v-86h-68v-534h68v-86h-233zM205 781v101h73v-101h-73zM40 781v101h74v-101h-74z" />
    <glyph glyph-name="Eth" unicode="&#xd0;" horiz-adv-x="716" 
d="M100 64v248.001h-48v82h48v226h-65v86h286c108.667 0 195.5 -31.167 260.5 -93.5s97.5 -148.5 97.5 -258.5c0 -110.667 -32.5 -197.334 -97.5 -260.001s-151.833 -94 -260.5 -94h-156c-22.667 0 -39.167 5 -49.5 15s-15.5 26.333 -15.5 49zM200 108.001
c0 -14.667 7.33203 -22 21.999 -22h92c80.667 0 144.334 23.333 191.001 70s70 112.667 70 198c0 84.667 -23.5 150.167 -70.5 196.5s-110.5 69.5 -190.5 69.5h-114v-226h144v-82h-144v-204z" />
    <glyph glyph-name="Ntilde" unicode="&#xd1;" horiz-adv-x="757" 
d="M34 0v86h43c14.667 0 22 7.33301 22 22v598h91l314 -447l59 -96h2c-4.66699 38 -7 70 -7 96v383c0 22.667 5.16699 39 15.5 49s26.833 15 49.5 15h100v-86h-43c-14.667 0 -22 -7.33301 -22 -22v-598h-90l-315 447l-58 96h-2c4 -38 6 -70 6 -96v-383
c0 -22.667 -5 -39 -15 -49s-26.333 -15 -49 -15h-101zM218 756c0 84.667 34.334 127 103.001 127c19.333 0 36.666 -5.66699 51.999 -17s28.833 -22.666 40.5 -33.999s23.5 -17 35.5 -17c14 0 24.333 6.66699 31 20s10 28.333 10 45h65c0 -84.667 -34.333 -127 -103 -127
c-19.333 0 -36.5 5.66699 -51.5 17s-28.5 22.666 -40.5 33.999s-24 17 -36 17c-14 0 -24.167 -6.5 -30.5 -19.5s-9.5 -28.167 -9.5 -45.5h-66z" />
    <glyph glyph-name="Ograve" unicode="&#xd2;" horiz-adv-x="793" 
d="M34 358c0 101.333 34.833 186.666 104.5 255.999s155.5 104 257.5 104s188 -34.667 258 -104s105 -154.666 105 -255.999c0 -104 -35 -191.667 -105 -263s-156 -107 -258 -107s-187.833 35.667 -257.5 107s-104.5 159 -104.5 263zM138 358
c0 -77.333 25 -142.666 75 -195.999s111 -80 183 -80s133.167 26.667 183.5 80s75.5 118.666 75.5 195.999c0 75.333 -25.167 138.666 -75.5 189.999s-111.5 77 -183.5 77s-133 -25.667 -183 -77s-75 -114.666 -75 -189.999zM354 755l-95 127h98l73 -127h-76z" />
    <glyph glyph-name="Oacute" unicode="&#xd3;" horiz-adv-x="793" 
d="M354 755l73 127h98l-95 -127h-76zM34 358c0 101.333 34.833 186.666 104.5 255.999s155.5 104 257.5 104s188 -34.667 258 -104s105 -154.666 105 -255.999c0 -104 -35 -191.667 -105 -263s-156 -107 -258 -107s-187.833 35.667 -257.5 107s-104.5 159 -104.5 263z
M138 358c0 -77.333 25 -142.666 75 -195.999s111 -80 183 -80s133.167 26.667 183.5 80s75.5 118.666 75.5 195.999c0 75.333 -25.167 138.666 -75.5 189.999s-111.5 77 -183.5 77s-133 -25.667 -183 -77s-75 -114.666 -75 -189.999z" />
    <glyph glyph-name="Ocircumflex" unicode="&#xd4;" horiz-adv-x="793" 
d="M262 755l87 127h89l88 -127h-79l-52 80h-2l-53 -80h-78zM34 358c0 101.333 34.833 186.666 104.5 255.999s155.5 104 257.5 104s188 -34.667 258 -104s105 -154.666 105 -255.999c0 -104 -35 -191.667 -105 -263s-156 -107 -258 -107s-187.833 35.667 -257.5 107
s-104.5 159 -104.5 263zM138 358c0 -77.333 25 -142.666 75 -195.999s111 -80 183 -80s133.167 26.667 183.5 80s75.5 118.666 75.5 195.999c0 75.333 -25.167 138.666 -75.5 189.999s-111.5 77 -183.5 77s-133 -25.667 -183 -77s-75 -114.666 -75 -189.999z" />
    <glyph glyph-name="Otilde" unicode="&#xd5;" horiz-adv-x="793" 
d="M34 358c0 101.333 34.833 186.666 104.5 255.999s155.5 104 257.5 104s188 -34.667 258 -104s105 -154.666 105 -255.999c0 -104 -35 -191.667 -105 -263s-156 -107 -258 -107s-187.833 35.667 -257.5 107s-104.5 159 -104.5 263zM138 358
c0 -77.333 25 -142.666 75 -195.999s111 -80 183 -80s133.167 26.667 183.5 80s75.5 118.666 75.5 195.999c0 75.333 -25.167 138.666 -75.5 189.999s-111.5 77 -183.5 77s-133 -25.667 -183 -77s-75 -114.666 -75 -189.999zM223 756c0 84.667 34.334 127 103.001 127
c19.333 0 36.666 -5.66699 51.999 -17s28.833 -22.666 40.5 -33.999s23.5 -17 35.5 -17c14 0 24.333 6.66699 31 20s10 28.333 10 45h65c0 -84.667 -34.333 -127 -103 -127c-19.333 0 -36.5 5.66699 -51.5 17s-28.5 22.666 -40.5 33.999s-24 17 -36 17
c-14 0 -24.167 -6.5 -30.5 -19.5s-9.5 -28.167 -9.5 -45.5h-66z" />
    <glyph glyph-name="Odieresis" unicode="&#xd6;" horiz-adv-x="793" 
d="M440 781v101h73v-101h-73zM275 781v101h74v-101h-74zM34 358c0 101.333 34.833 186.666 104.5 255.999s155.5 104 257.5 104s188 -34.667 258 -104s105 -154.666 105 -255.999c0 -104 -35 -191.667 -105 -263s-156 -107 -258 -107s-187.833 35.667 -257.5 107
s-104.5 159 -104.5 263zM138 358c0 -77.333 25 -142.666 75 -195.999s111 -80 183 -80s133.167 26.667 183.5 80s75.5 118.666 75.5 195.999c0 75.333 -25.167 138.666 -75.5 189.999s-111.5 77 -183.5 77s-133 -25.667 -183 -77s-75 -114.666 -75 -189.999z" />
    <glyph glyph-name="multiply" unicode="&#xd7;" 
d="M29 55l206 230l-206 230l54 55l205 -228l205 228l55 -55l-208 -230l208 -230l-55 -55l-205 227l-205 -227z" />
    <glyph glyph-name="Oslash" unicode="&#xd8;" horiz-adv-x="793" 
d="M111 9l48.001 65.999c-39.333 34.667 -70 76.334 -92 125.001s-33 101.334 -33 158.001c0 101.333 34.833 186.666 104.5 255.999s155.5 104 257.5 104c68 0 130.667 -17 188 -51l47 65l49 -34l-47 -65c39.333 -34 70.166 -74.667 92.499 -122s33.5 -98.333 33.5 -153
c0 -104 -35 -191.667 -105 -263s-156 -107 -258 -107c-69.333 0 -132 17.667 -188 53l-47 -66zM218.001 156.999l309.001 430.999c-40.667 24.667 -84.334 37 -131.001 37c-72 0 -133 -25.667 -183 -77s-75 -114.666 -75 -189.999c0 -80.667 26.667 -147.667 80 -201z
M264.002 118.998c40 -24.667 84 -36.999 132 -36.999c72 0 133.167 26.667 183.5 80s75.5 118.666 75.5 195.999c0 76.667 -27.333 140.667 -82 192z" />
    <glyph glyph-name="Ugrave" unicode="&#xd9;" horiz-adv-x="720" 
d="M91 247l0.000976562 351c0 14.667 -7.33301 22 -22 22h-43v86h100c22.667 0 39.167 -5 49.5 -15s15.5 -26.333 15.5 -49v-391c0 -52.667 15.167 -94 45.5 -124s71.5 -45 123.5 -45c51.333 0 92.333 15.167 123 45.5s46 71.833 46 124.5v390c0 22.667 5 39 15 49
s26.333 15 49 15h101v-86h-43c-14.667 0 -22 -7.33301 -22 -22v-351c0 -77.333 -24.667 -139.833 -74 -187.5s-114 -71.5 -194 -71.5c-80.667 0 -145.834 23.833 -195.501 71.5s-74.5 110.167 -74.5 187.5zM315.001 755l-95 127h98l73 -127h-76z" />
    <glyph glyph-name="Uacute" unicode="&#xda;" horiz-adv-x="720" 
d="M321 755l73 127h98l-95 -127h-76zM91 247l0.000976562 351c0 14.667 -7.33301 22 -22 22h-43v86h100c22.667 0 39.167 -5 49.5 -15s15.5 -26.333 15.5 -49v-391c0 -52.667 15.167 -94 45.5 -124s71.5 -45 123.5 -45c51.333 0 92.333 15.167 123 45.5s46 71.833 46 124.5
v390c0 22.667 5 39 15 49s26.333 15 49 15h101v-86h-43c-14.667 0 -22 -7.33301 -22 -22v-351c0 -77.333 -24.667 -139.833 -74 -187.5s-114 -71.5 -194 -71.5c-80.667 0 -145.834 23.833 -195.501 71.5s-74.5 110.167 -74.5 187.5z" />
    <glyph glyph-name="Ucircumflex" unicode="&#xdb;" horiz-adv-x="720" 
d="M229 755l87 127h89l88 -127h-79l-52 80h-2l-53 -80h-78zM91 247l0.000976562 351c0 14.667 -7.33301 22 -22 22h-43v86h100c22.667 0 39.167 -5 49.5 -15s15.5 -26.333 15.5 -49v-391c0 -52.667 15.167 -94 45.5 -124s71.5 -45 123.5 -45
c51.333 0 92.333 15.167 123 45.5s46 71.833 46 124.5v390c0 22.667 5 39 15 49s26.333 15 49 15h101v-86h-43c-14.667 0 -22 -7.33301 -22 -22v-351c0 -77.333 -24.667 -139.833 -74 -187.5s-114 -71.5 -194 -71.5c-80.667 0 -145.834 23.833 -195.501 71.5
s-74.5 110.167 -74.5 187.5z" />
    <glyph glyph-name="Udieresis" unicode="&#xdc;" horiz-adv-x="720" 
d="M407 781v101h73v-101h-73zM242 781v101h74v-101h-74zM91 247l0.000976562 351c0 14.667 -7.33301 22 -22 22h-43v86h100c22.667 0 39.167 -5 49.5 -15s15.5 -26.333 15.5 -49v-391c0 -52.667 15.167 -94 45.5 -124s71.5 -45 123.5 -45c51.333 0 92.333 15.167 123 45.5
s46 71.833 46 124.5v390c0 22.667 5 39 15 49s26.333 15 49 15h101v-86h-43c-14.667 0 -22 -7.33301 -22 -22v-351c0 -77.333 -24.667 -139.833 -74 -187.5s-114 -71.5 -194 -71.5c-80.667 0 -145.834 23.833 -195.501 71.5s-74.5 110.167 -74.5 187.5z" />
    <glyph glyph-name="Yacute" unicode="&#xdd;" horiz-adv-x="606" 
d="M253 0l-0.00195312 308l-179 287c-9.33301 16.667 -23.666 25 -42.999 25h-20v86h46c24.667 0 43.334 -3.33301 56.001 -10s25.667 -21.334 39 -44.001l107 -178l43 -79h2c13.333 26.667 27.666 53 42.999 79l106 178c13.333 22.667 26.333 37.334 39 44.001
s31.334 10 56.001 10h47v-86h-20c-19.333 0 -34 -8.33301 -44 -25l-178 -287v-308h-100zM263.998 755l73 127h98l-95 -127h-76z" />
    <glyph glyph-name="Thorn" unicode="&#xde;" horiz-adv-x="585" 
d="M99 0l-0.000976562 598c0 14.667 -7.33301 22 -22 22h-43v86h101c22.667 0 39 -5 49 -15s15 -26.333 15 -49v-56h146c65.333 0 118.5 -20.167 159.5 -60.5s61.5 -93.833 61.5 -160.5s-20.667 -120.667 -62 -162s-94.666 -62 -159.999 -62h-145v-141h-100zM198.999 227
l130 -0.000976562c41.333 0 74 12.333 98 37s36 58.334 36 101.001c0 42 -11.833 75 -35.5 99s-56.167 36 -97.5 36h-131v-273z" />
    <glyph glyph-name="germandbls" unicode="&#xdf;" horiz-adv-x="590" 
d="M25 0l0.000976562 82.9961h37c14.667 0 22 7.33301 22 22v425c0 58 21.5 103.833 64.5 137.5s93.5 50.5 151.5 50.5c54.667 0 100.167 -15.5 136.5 -46.5s54.5 -69.167 54.5 -114.5c0 -21.333 -5.33301 -41.166 -16 -59.499s-22.167 -33 -34.5 -44
s-23.833 -23.5 -34.5 -37.5s-16 -27.333 -16 -40c0 -12 6.16699 -24.333 18.5 -37s27.333 -25.167 45 -37.5s35.167 -25.666 52.5 -39.999s32.166 -32 44.499 -53s18.5 -43.833 18.5 -68.5c0 -48.667 -16.5 -86.167 -49.5 -112.5s-73.5 -39.5 -121.5 -39.5
c-28.667 0 -55.667 4.16699 -81 12.5s-43.333 16.833 -54 25.5l-16 12l27 75c33.333 -27.333 70.666 -41 111.999 -41c24 0 44.167 5.83301 60.5 17.5s24.5 29.834 24.5 54.501c0 15.333 -6.16699 30.333 -18.5 45s-27.166 28.334 -44.499 41.001l-52.5 38.5
c-17.667 13 -32.667 28.5 -45 46.5s-18.5 37.333 -18.5 58c0 18 5.16699 35.5 15.5 52.5s21.833 31.167 34.5 42.5s24.167 24.833 34.5 40.5s15.5 31.5 15.5 47.5c0 21.333 -8.33301 39.666 -25 54.999s-40 23 -70 23c-31.333 0 -58.5 -9.66699 -81.5 -29
s-34.5 -46.666 -34.5 -81.999v-459c0 -22.667 -5 -39 -15 -49s-26.333 -15 -49 -15h-92z" />
    <glyph glyph-name="agrave" unicode="&#xe0;" horiz-adv-x="529" 
d="M28 138c0 118 102 177.002 306 177.002h22v7c0 42.667 -8.83301 73.167 -26.5 91.5s-46.167 27.5 -85.5 27.5c-18.667 0 -37.167 -2.83301 -55.5 -8.5s-27.5 -15.834 -27.5 -30.501v-29h-92v51c0 18.667 6.66699 34.834 20 48.501s30.166 23.5 50.499 29.5
s38.833 10.167 55.5 12.5s32.334 3.5 47.001 3.5c78 0 132.667 -17.333 164 -52s47 -83.334 47 -146.001v-215c0 -14.667 7.33301 -22 22 -22h41v-83h-92c-41.333 0 -62 19.333 -62 58l1 30h-2c0.666992 0 -0.833008 -3.5 -4.5 -10.5s-9.66699 -15.333 -18 -25
s-18.5 -19.334 -30.5 -29.001s-27.667 -18 -47 -25s-40.333 -10.5 -63 -10.5c-46.667 0 -86.667 13.5 -120 40.5s-50 63.5 -50 109.5zM125 147.002c0 -22 8.33301 -41.167 25 -57.5s40 -24.5 70 -24.5c40 0 72.667 16.667 98 50s38 70.333 38 111v19h-26
c-136.667 0 -205 -32.667 -205 -98zM217 580.002l-95 127h98l73 -127h-76z" />
    <glyph glyph-name="aacute" unicode="&#xe1;" horiz-adv-x="529" 
d="M28 138c0 118 102 177.002 306 177.002h22v7c0 42.667 -8.83301 73.167 -26.5 91.5s-46.167 27.5 -85.5 27.5c-18.667 0 -37.167 -2.83301 -55.5 -8.5s-27.5 -15.834 -27.5 -30.501v-29h-92v51c0 18.667 6.66699 34.834 20 48.501s30.166 23.5 50.499 29.5
s38.833 10.167 55.5 12.5s32.334 3.5 47.001 3.5c78 0 132.667 -17.333 164 -52s47 -83.334 47 -146.001v-215c0 -14.667 7.33301 -22 22 -22h41v-83h-92c-41.333 0 -62 19.333 -62 58l1 30h-2c0.666992 0 -0.833008 -3.5 -4.5 -10.5s-9.66699 -15.333 -18 -25
s-18.5 -19.334 -30.5 -29.001s-27.667 -18 -47 -25s-40.333 -10.5 -63 -10.5c-46.667 0 -86.667 13.5 -120 40.5s-50 63.5 -50 109.5zM125 147.002c0 -22 8.33301 -41.167 25 -57.5s40 -24.5 70 -24.5c40 0 72.667 16.667 98 50s38 70.333 38 111v19h-26
c-136.667 0 -205 -32.667 -205 -98zM217 580.002l73 127h98l-95 -127h-76z" />
    <glyph glyph-name="acircumflex" unicode="&#xe2;" horiz-adv-x="529" 
d="M28 138c0 118 102 177.002 306 177.002h22v7c0 42.667 -8.83301 73.167 -26.5 91.5s-46.167 27.5 -85.5 27.5c-18.667 0 -37.167 -2.83301 -55.5 -8.5s-27.5 -15.834 -27.5 -30.501v-29h-92v51c0 18.667 6.66699 34.834 20 48.501s30.166 23.5 50.499 29.5
s38.833 10.167 55.5 12.5s32.334 3.5 47.001 3.5c78 0 132.667 -17.333 164 -52s47 -83.334 47 -146.001v-215c0 -14.667 7.33301 -22 22 -22h41v-83h-92c-41.333 0 -62 19.333 -62 58l1 30h-2c0.666992 0 -0.833008 -3.5 -4.5 -10.5s-9.66699 -15.333 -18 -25
s-18.5 -19.334 -30.5 -29.001s-27.667 -18 -47 -25s-40.333 -10.5 -63 -10.5c-46.667 0 -86.667 13.5 -120 40.5s-50 63.5 -50 109.5zM125 147.002c0 -22 8.33301 -41.167 25 -57.5s40 -24.5 70 -24.5c40 0 72.667 16.667 98 50s38 70.333 38 111v19h-26
c-136.667 0 -205 -32.667 -205 -98zM125 580.002l87 127h89l88 -127h-79l-52 80h-2l-53 -80h-78z" />
    <glyph glyph-name="atilde" unicode="&#xe3;" horiz-adv-x="529" 
d="M28 138c0 118 102 177.002 306 177.002h22v7c0 42.667 -8.83301 73.167 -26.5 91.5s-46.167 27.5 -85.5 27.5c-18.667 0 -37.167 -2.83301 -55.5 -8.5s-27.5 -15.834 -27.5 -30.501v-29h-92v51c0 18.667 6.66699 34.834 20 48.501s30.166 23.5 50.499 29.5
s38.833 10.167 55.5 12.5s32.334 3.5 47.001 3.5c78 0 132.667 -17.333 164 -52s47 -83.334 47 -146.001v-215c0 -14.667 7.33301 -22 22 -22h41v-83h-92c-41.333 0 -62 19.333 -62 58l1 30h-2c0.666992 0 -0.833008 -3.5 -4.5 -10.5s-9.66699 -15.333 -18 -25
s-18.5 -19.334 -30.5 -29.001s-27.667 -18 -47 -25s-40.333 -10.5 -63 -10.5c-46.667 0 -86.667 13.5 -120 40.5s-50 63.5 -50 109.5zM125 147.002c0 -22 8.33301 -41.167 25 -57.5s40 -24.5 70 -24.5c40 0 72.667 16.667 98 50s38 70.333 38 111v19h-26
c-136.667 0 -205 -32.667 -205 -98zM87 581.002c0 84.667 34.334 127 103.001 127c19.333 0 36.666 -5.66699 51.999 -17s28.833 -22.666 40.5 -33.999s23.5 -17 35.5 -17c14 0 24.333 6.66699 31 20s10 28.333 10 45h65c0 -84.667 -34.333 -127 -103 -127
c-19.333 0 -36.5 5.66699 -51.5 17s-28.5 22.666 -40.5 33.999s-24 17 -36 17c-14 0 -24.167 -6.5 -30.5 -19.5s-9.5 -28.167 -9.5 -45.5h-66z" />
    <glyph glyph-name="adieresis" unicode="&#xe4;" horiz-adv-x="529" 
d="M28 138c0 118 102 177.002 306 177.002h22v7c0 42.667 -8.83301 73.167 -26.5 91.5s-46.167 27.5 -85.5 27.5c-18.667 0 -37.167 -2.83301 -55.5 -8.5s-27.5 -15.834 -27.5 -30.501v-29h-92v51c0 18.667 6.66699 34.834 20 48.501s30.166 23.5 50.499 29.5
s38.833 10.167 55.5 12.5s32.334 3.5 47.001 3.5c78 0 132.667 -17.333 164 -52s47 -83.334 47 -146.001v-215c0 -14.667 7.33301 -22 22 -22h41v-83h-92c-41.333 0 -62 19.333 -62 58l1 30h-2c0.666992 0 -0.833008 -3.5 -4.5 -10.5s-9.66699 -15.333 -18 -25
s-18.5 -19.334 -30.5 -29.001s-27.667 -18 -47 -25s-40.333 -10.5 -63 -10.5c-46.667 0 -86.667 13.5 -120 40.5s-50 63.5 -50 109.5zM125 147.002c0 -22 8.33301 -41.167 25 -57.5s40 -24.5 70 -24.5c40 0 72.667 16.667 98 50s38 70.333 38 111v19h-26
c-136.667 0 -205 -32.667 -205 -98zM304 606.002v101h73v-101h-73zM139 606.002v101h74v-101h-74z" />
    <glyph glyph-name="aring" unicode="&#xe5;" horiz-adv-x="529" 
d="M28 138c0 118 102 177.002 306 177.002h22v7c0 42.667 -8.83301 73.167 -26.5 91.5s-46.167 27.5 -85.5 27.5c-18.667 0 -37.167 -2.83301 -55.5 -8.5s-27.5 -15.834 -27.5 -30.501v-29h-92v51c0 18.667 6.66699 34.834 20 48.501s30.166 23.5 50.499 29.5
s38.833 10.167 55.5 12.5s32.334 3.5 47.001 3.5c78 0 132.667 -17.333 164 -52s47 -83.334 47 -146.001v-215c0 -14.667 7.33301 -22 22 -22h41v-83h-92c-41.333 0 -62 19.333 -62 58l1 30h-2c0.666992 0 -0.833008 -3.5 -4.5 -10.5s-9.66699 -15.333 -18 -25
s-18.5 -19.334 -30.5 -29.001s-27.667 -18 -47 -25s-40.333 -10.5 -63 -10.5c-46.667 0 -86.667 13.5 -120 40.5s-50 63.5 -50 109.5zM125 147.002c0 -22 8.33301 -41.167 25 -57.5s40 -24.5 70 -24.5c40 0 72.667 16.667 98 50s38 70.333 38 111v19h-26
c-136.667 0 -205 -32.667 -205 -98zM257 568.002c-22.667 0 -41.834 6.83301 -57.501 20.5s-23.5 31.5 -23.5 53.5c0 22.667 7.83301 40.834 23.5 54.501s34.834 20.5 57.501 20.5c22 0 41 -6.83301 57 -20.5s24 -31.834 24 -54.501c0 -22 -8 -39.833 -24 -53.5
s-35 -20.5 -57 -20.5zM257 609.002c10 0 18.167 3.16699 24.5 9.5s9.5 14.166 9.5 23.499c0 10.667 -3.16699 19.167 -9.5 25.5s-14.5 9.5 -24.5 9.5s-18.167 -3.16699 -24.5 -9.5s-9.5 -14.833 -9.5 -25.5c0 -9.33301 3.16699 -17.166 9.5 -23.499s14.5 -9.5 24.5 -9.5z
" />
    <glyph glyph-name="ae" unicode="&#xe6;" horiz-adv-x="849" 
d="M29 141c0 114.667 99.333 171.995 298 171.995h29v11c0 42.667 -8.83301 72.834 -26.5 90.501s-46.167 26.5 -85.5 26.5c-19.333 0 -38 -2.83301 -56 -8.5s-27 -15.834 -27 -30.501v-29h-92v51c0 22.667 9.83301 41.334 29.5 56.001s41.834 24.667 66.501 30s51 8 79 8
c88 0 145.333 -29.667 172 -89h2c41.333 59.333 101.333 89 180 89c66.667 0 119.5 -22.333 158.5 -67s58.5 -100.667 58.5 -168l-2 -41h-364c2.66699 -54.667 19.667 -96.667 51 -126s70.666 -44 117.999 -44c26 0 51.333 5 76 15s42.667 20 54 30l18 15l41 -70
c-5.33301 -5.33301 -13.333 -12.166 -24 -20.499s-33 -19.333 -67 -33s-68.667 -20.5 -104 -20.5c-101.333 0 -173.666 42 -216.999 126h-2c-3.33301 -9.33301 -8.66602 -19.666 -15.999 -30.999s-18.333 -24.666 -33 -39.999s-34.334 -28.166 -59.001 -38.499
s-52.334 -15.5 -83.001 -15.5c-48.667 0 -89.667 13.5 -123 40.5s-50 64.167 -50 111.5zM453 312.995h262.999c-2 40 -14.333 71.167 -37 93.5s-50 33.5 -82 33.5c-38 0 -69.667 -11 -95 -33s-41.666 -53.333 -48.999 -94zM126.999 146.995
c0 -22.667 8.33203 -41.834 24.999 -57.501s40.334 -23.5 71.001 -23.5c39.333 0 71.5 16.833 96.5 50.5s37.5 70.834 37.5 111.501v14h-47c-122 0 -183 -31.667 -183 -95z" />
    <glyph glyph-name="ccedilla" unicode="&#xe7;" horiz-adv-x="532" 
d="M33 253c0 75.333 25.3311 138.335 75.998 189.002s116 76 196 76c24.667 0 49.834 -3 75.501 -9s49.834 -17.833 72.501 -35.5s34 -39.834 34 -66.501v-52h-87v28c0 16.667 -10.333 29.5 -31 38.5s-42 13.5 -64 13.5c-49.333 0 -90.5 -17 -123.5 -51
s-49.5 -77.333 -49.5 -130c0 -55.333 17.333 -99.166 52 -131.499s77 -48.5 127 -48.5c28 0 55 5.83301 81 17.5s45 23.167 57 34.5l18 18l42 -69c-2 -2 -4.83301 -5 -8.5 -9s-12 -11 -25 -21s-26.833 -18.833 -41.5 -26.5s-33.667 -14.667 -57 -21
s-47.666 -9.5 -72.999 -9.5l-8 -38c21.333 -2.66699 38.666 -10.334 51.999 -23.001s20 -29.334 20 -50.001c0 -28.667 -9.83301 -49.834 -29.5 -63.501s-43.834 -20.5 -72.501 -20.5c-9.33301 0 -18.666 0.5 -27.999 1.5s-16 2.16699 -20 3.5l-7 2v58
c13.333 -4.66699 27.333 -7 42 -7c32 0 48 10.333 48 31s-17.667 31 -53 31l-18 -1l21 81c-65.333 10.667 -118 39.834 -158 87.501s-60 105.167 -60 172.5z" />
    <glyph glyph-name="egrave" unicode="&#xe8;" horiz-adv-x="539" 
d="M33 253c0 79.333 24 143.332 72 191.999s108.667 73 182 73c68.667 0 122.167 -22.5 160.5 -67.5s57.5 -101.5 57.5 -169.5c0 -11.333 -1 -25 -3 -41h-369c2.66699 -52.667 20.667 -93.834 54 -123.501s73.666 -44.5 120.999 -44.5c10.667 0 21.167 0.833008 31.5 2.5
s20 4.16699 29 7.5s17.167 6.5 24.5 9.5s14.833 6.83301 22.5 11.5s13.5 8.33398 17.5 11.001l15 10l9 7l41 -71c-11.333 -9.33301 -24.666 -18.666 -39.999 -27.999s-37.833 -19 -67.5 -29s-59.167 -15 -88.5 -15c-78.667 0 -143.167 25.167 -193.5 75.5
s-75.5 113.5 -75.5 189.5zM137 309.999h271c-1.33301 42 -13.5 74.667 -36.5 98s-51.833 35 -86.5 35c-38 0 -70.5 -11.833 -97.5 -35.5s-43.833 -56.167 -50.5 -97.5zM254 558.999l-95 127h98l73 -127h-76z" />
    <glyph glyph-name="eacute" unicode="&#xe9;" horiz-adv-x="539" 
d="M243 580l73 127h98l-95 -127h-76zM33 253c0 79.333 24 143.332 72 191.999s108.667 73 182 73c68.667 0 122.167 -22.5 160.5 -67.5s57.5 -101.5 57.5 -169.5c0 -11.333 -1 -25 -3 -41h-369c2.66699 -52.667 20.667 -93.834 54 -123.501s73.666 -44.5 120.999 -44.5
c10.667 0 21.167 0.833008 31.5 2.5s20 4.16699 29 7.5s17.167 6.5 24.5 9.5s14.833 6.83301 22.5 11.5s13.5 8.33398 17.5 11.001l15 10l9 7l41 -71c-11.333 -9.33301 -24.666 -18.666 -39.999 -27.999s-37.833 -19 -67.5 -29s-59.167 -15 -88.5 -15
c-78.667 0 -143.167 25.167 -193.5 75.5s-75.5 113.5 -75.5 189.5zM137 309.999h271c-1.33301 42 -13.5 74.667 -36.5 98s-51.833 35 -86.5 35c-38 0 -70.5 -11.833 -97.5 -35.5s-43.833 -56.167 -50.5 -97.5z" />
    <glyph glyph-name="ecircumflex" unicode="&#xea;" horiz-adv-x="539" 
d="M150 580l87 127h89l88 -127h-79l-52 80h-2l-53 -80h-78zM33 253c0 79.333 24 143.332 72 191.999s108.667 73 182 73c68.667 0 122.167 -22.5 160.5 -67.5s57.5 -101.5 57.5 -169.5c0 -11.333 -1 -25 -3 -41h-369c2.66699 -52.667 20.667 -93.834 54 -123.501
s73.666 -44.5 120.999 -44.5c10.667 0 21.167 0.833008 31.5 2.5s20 4.16699 29 7.5s17.167 6.5 24.5 9.5s14.833 6.83301 22.5 11.5s13.5 8.33398 17.5 11.001l15 10l9 7l41 -71c-11.333 -9.33301 -24.666 -18.666 -39.999 -27.999s-37.833 -19 -67.5 -29
s-59.167 -15 -88.5 -15c-78.667 0 -143.167 25.167 -193.5 75.5s-75.5 113.5 -75.5 189.5zM137 309.999h271c-1.33301 42 -13.5 74.667 -36.5 98s-51.833 35 -86.5 35c-38 0 -70.5 -11.833 -97.5 -35.5s-43.833 -56.167 -50.5 -97.5z" />
    <glyph glyph-name="edieresis" unicode="&#xeb;" horiz-adv-x="539" 
d="M328 606v101h73v-101h-73zM163 606v101h74v-101h-74zM33 253c0 79.333 24 143.332 72 191.999s108.667 73 182 73c68.667 0 122.167 -22.5 160.5 -67.5s57.5 -101.5 57.5 -169.5c0 -11.333 -1 -25 -3 -41h-369c2.66699 -52.667 20.667 -93.834 54 -123.501
s73.666 -44.5 120.999 -44.5c10.667 0 21.167 0.833008 31.5 2.5s20 4.16699 29 7.5s17.167 6.5 24.5 9.5s14.833 6.83301 22.5 11.5s13.5 8.33398 17.5 11.001l15 10l9 7l41 -71c-11.333 -9.33301 -24.666 -18.666 -39.999 -27.999s-37.833 -19 -67.5 -29
s-59.167 -15 -88.5 -15c-78.667 0 -143.167 25.167 -193.5 75.5s-75.5 113.5 -75.5 189.5zM137 309.999h271c-1.33301 42 -13.5 74.667 -36.5 98s-51.833 35 -86.5 35c-38 0 -70.5 -11.833 -97.5 -35.5s-43.833 -56.167 -50.5 -97.5z" />
    <glyph glyph-name="igrave" unicode="&#xec;" horiz-adv-x="265" 
d="M85 579l-95 127h98l73 -127h-76zM84 64v337c0 14.667 -7.33301 22 -22 22h-41v83h95c22.667 0 39.167 -5 49.5 -15s15.5 -26.333 15.5 -49v-337c0 -14.667 7.33301 -22 22 -22h41v-83h-96c-22.667 0 -39 5 -49 15s-15 26.333 -15 49z" />
    <glyph glyph-name="iacute" unicode="&#xed;" horiz-adv-x="265" 
d="M85 579l73 127h99l-96 -127h-76zM84 64v337c0 14.667 -7.33301 22 -22 22h-41v83h95c22.667 0 39.167 -5 49.5 -15s15.5 -26.333 15.5 -49v-337c0 -14.667 7.33301 -22 22 -22h41v-83h-96c-22.667 0 -39 5 -49 15s-15 26.333 -15 49z" />
    <glyph glyph-name="icircumflex" unicode="&#xee;" horiz-adv-x="265" 
d="M-7 579l87 127h89l88 -127h-79l-52 81h-2l-53 -81h-78zM84 64v337c0 14.667 -7.33301 22 -22 22h-41v83h95c22.667 0 39.167 -5 49.5 -15s15.5 -26.333 15.5 -49v-337c0 -14.667 7.33301 -22 22 -22h41v-83h-96c-22.667 0 -39 5 -49 15s-15 26.333 -15 49z" />
    <glyph glyph-name="idieresis" unicode="&#xef;" horiz-adv-x="265" 
d="M156 605v101h73v-101h-73zM16 605v101h74v-101h-74zM84 64v337c0 14.667 -7.33301 22 -22 22h-41v83h95c22.667 0 39.167 -5 49.5 -15s15.5 -26.333 15.5 -49v-337c0 -14.667 7.33301 -22 22 -22h41v-83h-96c-22.667 0 -39 5 -49 15s-15 26.333 -15 49z" />
    <glyph glyph-name="eth" unicode="&#xf0;" horiz-adv-x="562" 
d="M34 235c0 62.667 21.168 116.834 63.501 162.501s100.166 68.5 173.499 68.5c24 0 46.167 -3.5 66.5 -10.5s34.833 -14.167 43.5 -21.5l13 -10h2c-20 53.333 -56.333 97.666 -109 132.999l-180 -80l-10 62l123 55c-40.667 20.667 -83.667 36 -129 46l27 79
c77.333 -17.333 146.333 -44 207 -80l139 61l10 -61l-93 -42c96 -80 144 -187.333 144 -322c0 -35.333 -4.83301 -69.333 -14.5 -102s-24.167 -63.167 -43.5 -91.5s-46 -51 -80 -68s-72.667 -25.5 -116 -25.5c-72 0 -129.5 24.5 -172.5 73.5s-64.5 106.833 -64.5 173.5z
M133.001 233c0 -44 12.501 -81.834 37.501 -113.501s59.5 -47.5 103.5 -47.5c50 0 87.833 18.833 113.5 56.5s38.5 80.834 38.5 129.501c0 38 -12.833 69.167 -38.5 93.5s-59.834 36.5 -102.501 36.5c-48.667 0 -86.167 -15.167 -112.5 -45.5s-39.5 -66.833 -39.5 -109.5z
" />
    <glyph glyph-name="ntilde" unicode="&#xf1;" horiz-adv-x="623" 
d="M85 0l0.00195312 401c0 14.667 -7.33301 22 -22 22h-41v83h93c42.667 0 64 -18.667 64 -56v-19l-2 -29h2c13.333 28.667 36.166 55.167 68.499 79.5s73.166 36.5 122.499 36.5c115.333 0 173 -64.667 173 -194v-219c0 -14.667 7.33301 -22 22 -22h41v-83h-96
c-22.667 0 -39 5 -49 15s-15 26.333 -15 49v238c0 40.667 -6.5 72 -19.5 94s-38.167 33 -75.5 33c-38 0 -71.5 -11.5 -100.5 -34.5s-48.833 -52.833 -59.5 -89.5c-6 -17.333 -9 -40 -9 -68v-237h-97zM152.002 581c0 84.667 34.334 127 103.001 127
c19.333 0 36.666 -5.66699 51.999 -17s28.833 -22.666 40.5 -33.999s23.5 -17 35.5 -17c14 0 24.333 6.66699 31 20s10 28.333 10 45h65c0 -84.667 -34.333 -127 -103 -127c-19.333 0 -36.5 5.66699 -51.5 17s-28.5 22.666 -40.5 33.999s-24 17 -36 17
c-14 0 -24.167 -6.5 -30.5 -19.5s-9.5 -28.167 -9.5 -45.5h-66z" />
    <glyph glyph-name="ograve" unicode="&#xf2;" horiz-adv-x="611" 
d="M33 254c0 76 26.332 139 78.999 189s117 75 193 75c76.667 0 141.334 -25 194.001 -75s79 -113 79 -189s-26.5 -139.333 -79.5 -190s-117.5 -76 -193.5 -76s-140.333 25.333 -193 76s-79 114 -79 190zM130.999 254c0 -52 17 -95.333 51 -130s75 -52 123 -52
c48.667 0 89.834 17.167 123.501 51.5s50.5 77.833 50.5 130.5c0 52 -16.833 95 -50.5 129s-74.834 51 -123.501 51c-48 0 -89 -17 -123 -51s-51 -77 -51 -129zM265.999 580l-95 127h98l73 -127h-76z" />
    <glyph glyph-name="oacute" unicode="&#xf3;" horiz-adv-x="611" 
d="M266 580l73 127h98l-95 -127h-76zM33 254c0 76 26.332 139 78.999 189s117 75 193 75c76.667 0 141.334 -25 194.001 -75s79 -113 79 -189s-26.5 -139.333 -79.5 -190s-117.5 -76 -193.5 -76s-140.333 25.333 -193 76s-79 114 -79 190zM130.999 254
c0 -52 17 -95.333 51 -130s75 -52 123 -52c48.667 0 89.834 17.167 123.501 51.5s50.5 77.833 50.5 130.5c0 52 -16.833 95 -50.5 129s-74.834 51 -123.501 51c-48 0 -89 -17 -123 -51s-51 -77 -51 -129z" />
    <glyph glyph-name="ocircumflex" unicode="&#xf4;" horiz-adv-x="611" 
d="M173 580l87 127h89l88 -127h-79l-52 80h-2l-53 -80h-78zM33 254c0 76 26.332 139 78.999 189s117 75 193 75c76.667 0 141.334 -25 194.001 -75s79 -113 79 -189s-26.5 -139.333 -79.5 -190s-117.5 -76 -193.5 -76s-140.333 25.333 -193 76s-79 114 -79 190zM130.999 254
c0 -52 17 -95.333 51 -130s75 -52 123 -52c48.667 0 89.834 17.167 123.501 51.5s50.5 77.833 50.5 130.5c0 52 -16.833 95 -50.5 129s-74.834 51 -123.501 51c-48 0 -89 -17 -123 -51s-51 -77 -51 -129z" />
    <glyph glyph-name="otilde" unicode="&#xf5;" horiz-adv-x="611" 
d="M33 254c0 76 26.332 139 78.999 189s117 75 193 75c76.667 0 141.334 -25 194.001 -75s79 -113 79 -189s-26.5 -139.333 -79.5 -190s-117.5 -76 -193.5 -76s-140.333 25.333 -193 76s-79 114 -79 190zM130.999 254c0 -52 17 -95.333 51 -130s75 -52 123 -52
c48.667 0 89.834 17.167 123.501 51.5s50.5 77.833 50.5 130.5c0 52 -16.833 95 -50.5 129s-74.834 51 -123.501 51c-48 0 -89 -17 -123 -51s-51 -77 -51 -129zM134.999 581c0 84.667 34.334 127 103.001 127c19.333 0 36.666 -5.66699 51.999 -17
s28.833 -22.666 40.5 -33.999s23.5 -17 35.5 -17c14 0 24.333 6.66699 31 20s10 28.333 10 45h65c0 -84.667 -34.333 -127 -103 -127c-19.333 0 -36.5 5.66699 -51.5 17s-28.5 22.666 -40.5 33.999s-24 17 -36 17c-14 0 -24.167 -6.5 -30.5 -19.5s-9.5 -28.167 -9.5 -45.5
h-66z" />
    <glyph glyph-name="odieresis" unicode="&#xf6;" horiz-adv-x="611" 
d="M351 606v101h73v-101h-73zM186 606v101h74v-101h-74zM33 254c0 76 26.332 139 78.999 189s117 75 193 75c76.667 0 141.334 -25 194.001 -75s79 -113 79 -189s-26.5 -139.333 -79.5 -190s-117.5 -76 -193.5 -76s-140.333 25.333 -193 76s-79 114 -79 190zM130.999 254
c0 -52 17 -95.333 51 -130s75 -52 123 -52c48.667 0 89.834 17.167 123.501 51.5s50.5 77.833 50.5 130.5c0 52 -16.833 95 -50.5 129s-74.834 51 -123.501 51c-48 0 -89 -17 -123 -51s-51 -77 -51 -129z" />
    <glyph glyph-name="divide" unicode="&#xf7;" 
d="M240 435v91h95v-91h-95zM35 246v78h505v-78h-505zM240 44v91h95v-91h-95z" />
    <glyph glyph-name="oslash" unicode="&#xf8;" horiz-adv-x="611" 
d="M91 -3l38 52c-64 50.667 -96 119 -96 205c0 76 26.333 139 79 189s117 75 193 75c50 0 95 -11.333 135 -34l40 56l48 -34l-39 -54c59.333 -52.667 89 -118.667 89 -198c0 -76 -26.5 -139.333 -79.5 -190s-117.5 -76 -193.5 -76c-46.667 0 -89 10 -127 30l-39 -56z
M183 124l206 288c-26 14.667 -54 22 -84 22c-48 0 -89 -17 -123 -51s-51 -77 -51 -129c0 -50.667 17.333 -94 52 -130zM230 90c22.667 -12 47.666 -18 74.999 -18c48.667 0 89.834 17.167 123.501 51.5s50.5 77.833 50.5 130.5c0 48 -15.333 88 -46 120z" />
    <glyph glyph-name="ugrave" unicode="&#xf9;" horiz-adv-x="618" 
d="M80 182v219c0 14.667 -7.33301 22 -22 22h-41v83h95c22.667 0 39 -5 49 -15s15 -25.667 15 -47v-240c0 -40 6.66699 -71 20 -93s38.333 -33 75 -33c50 0 90 18.667 120 56s45 82.333 45 135v237h97v-401c0 -14.667 7.33301 -22 22 -22h41v-83h-93
c-42.667 0 -64 18.667 -64 56v19l1 29h-2c-12.667 -29.333 -35.5 -56 -68.5 -80s-72.167 -36 -117.5 -36c-57.333 0 -100.333 15.833 -129 47.5s-43 80.5 -43 146.5zM261 580l-95 127h98l73 -127h-76z" />
    <glyph glyph-name="uacute" unicode="&#xfa;" horiz-adv-x="618" 
d="M261 580l73 127h98l-95 -127h-76zM80 182v219c0 14.667 -7.33301 22 -22 22h-41v83h95c22.667 0 39 -5 49 -15s15 -25.667 15 -47v-240c0 -40 6.66699 -71 20 -93s38.333 -33 75 -33c50 0 90 18.667 120 56s45 82.333 45 135v237h97v-401c0 -14.667 7.33301 -22 22 -22
h41v-83h-93c-42.667 0 -64 18.667 -64 56v19l1 29h-2c-12.667 -29.333 -35.5 -56 -68.5 -80s-72.167 -36 -117.5 -36c-57.333 0 -100.333 15.833 -129 47.5s-43 80.5 -43 146.5z" />
    <glyph glyph-name="ucircumflex" unicode="&#xfb;" horiz-adv-x="618" 
d="M169 580l87 127h89l88 -127h-79l-52 80h-2l-53 -80h-78zM80 182v219c0 14.667 -7.33301 22 -22 22h-41v83h95c22.667 0 39 -5 49 -15s15 -25.667 15 -47v-240c0 -40 6.66699 -71 20 -93s38.333 -33 75 -33c50 0 90 18.667 120 56s45 82.333 45 135v237h97v-401
c0 -14.667 7.33301 -22 22 -22h41v-83h-93c-42.667 0 -64 18.667 -64 56v19l1 29h-2c-12.667 -29.333 -35.5 -56 -68.5 -80s-72.167 -36 -117.5 -36c-57.333 0 -100.333 15.833 -129 47.5s-43 80.5 -43 146.5z" />
    <glyph glyph-name="udieresis" unicode="&#xfc;" horiz-adv-x="618" 
d="M347 606v101h73v-101h-73zM182 606v101h74v-101h-74zM80 182v219c0 14.667 -7.33301 22 -22 22h-41v83h95c22.667 0 39 -5 49 -15s15 -25.667 15 -47v-240c0 -40 6.66699 -71 20 -93s38.333 -33 75 -33c50 0 90 18.667 120 56s45 82.333 45 135v237h97v-401
c0 -14.667 7.33301 -22 22 -22h41v-83h-93c-42.667 0 -64 18.667 -64 56v19l1 29h-2c-12.667 -29.333 -35.5 -56 -68.5 -80s-72.167 -36 -117.5 -36c-57.333 0 -100.333 15.833 -129 47.5s-43 80.5 -43 146.5z" />
    <glyph glyph-name="yacute" unicode="&#xfd;" horiz-adv-x="543" 
d="M42 -90c0 -0.666992 2.99707 -3.83203 8.99707 -9.49902s15.167 -11.5 27.5 -17.5s24.833 -9 37.5 -9c38.667 0 68.334 24.333 89.001 73l23 55l-173 401c-6 13.333 -16.333 20 -31 20h-13v83h57c20.667 0 36 -3.5 46 -10.5s19 -20.5 27 -40.5l114 -285l18 -61h2
c5.33301 23.333 11 43.666 17 60.999l106 285c6.66699 20 15.334 33.5 26.001 40.5s26.334 10.5 47.001 10.5h58v-83h-13c-15.333 0 -26 -6.66699 -32 -20l-199 -494c-16 -38.667 -38.333 -68.167 -67 -88.5s-61 -30.5 -97 -30.5c-22 0 -43 4.16699 -63 12.5
s-34.333 16.833 -43 25.5l-13 12zM230.997 580.002l73 127h98l-95 -127h-76z" />
    <glyph glyph-name="thorn" unicode="&#xfe;" horiz-adv-x="584" 
d="M68 -200l-0.000976562 800.999c0 14.667 -7.33301 22 -22 22h-41v83h95c22.667 0 39.167 -5 49.5 -15s15.5 -26.333 15.5 -49v-163l-2 -44h2c32 55.333 85 83 159 83c68 0 122.5 -24.5 163.5 -73.5s61.5 -112.833 61.5 -191.5c0 -78 -20.5 -141.667 -61.5 -191
s-95.5 -74 -163.5 -74c-22 0 -42.667 2.83301 -62 8.5s-34.666 12.334 -45.999 20.001s-21 15.5 -29 23.5s-13.667 14.667 -17 20l-5 9h-2c1.33301 -12 2 -26.667 2 -44v-225h-97zM161.999 252.999c0 -62 13.8311 -107.667 41.498 -137s62.834 -44 105.501 -44
s77 16.667 103 50s39 77 39 131s-13 97.667 -39 131s-60.333 50 -103 50c-43.333 0 -78.666 -14.5 -105.999 -43.5s-41 -74.833 -41 -137.5z" />
    <glyph glyph-name="ydieresis" unicode="&#xff;" horiz-adv-x="543" 
d="M42 -90c0 -0.666992 2.99707 -3.83203 8.99707 -9.49902s15.167 -11.5 27.5 -17.5s24.833 -9 37.5 -9c38.667 0 68.334 24.333 89.001 73l23 55l-173 401c-6 13.333 -16.333 20 -31 20h-13v83h57c20.667 0 36 -3.5 46 -10.5s19 -20.5 27 -40.5l114 -285l18 -61h2
c5.33301 23.333 11 43.666 17 60.999l106 285c6.66699 20 15.334 33.5 26.001 40.5s26.334 10.5 47.001 10.5h58v-83h-13c-15.333 0 -26 -6.66699 -32 -20l-199 -494c-16 -38.667 -38.333 -68.167 -67 -88.5s-61 -30.5 -97 -30.5c-22 0 -43 4.16699 -63 12.5
s-34.333 16.833 -43 25.5l-13 12zM315.997 606.002v101h73v-101h-73zM150.997 606.002v101h74v-101h-74z" />
    <glyph glyph-name="Amacron" unicode="&#x100;" horiz-adv-x="665" 
d="M12 0v86h14c17.333 0 28.333 7.33301 33 22l221 598h105l221 -598c4.66699 -14.667 15.667 -22 33 -22h14v-86h-55c-24.667 -0 -42.5 3.83301 -53.5 11.5s-20.833 23.167 -29.5 46.5l-53 145h-259l-53 -145c-8.66699 -23.333 -18.5 -38.833 -29.5 -46.5
s-28.833 -11.5 -53.5 -11.5h-55zM227 287h211l-77 215l-28 99h-2c-10 -41.333 -19 -74.333 -27 -99zM206 784v68h254v-68h-254z" />
    <glyph glyph-name="amacron" unicode="&#x101;" horiz-adv-x="529" 
d="M28 138c0 118 102 177.002 306 177.002h22v7c0 42.667 -8.83301 73.167 -26.5 91.5s-46.167 27.5 -85.5 27.5c-18.667 0 -37.167 -2.83301 -55.5 -8.5s-27.5 -15.834 -27.5 -30.501v-29h-92v51c0 18.667 6.66699 34.834 20 48.501s30.166 23.5 50.499 29.5
s38.833 10.167 55.5 12.5s32.334 3.5 47.001 3.5c78 0 132.667 -17.333 164 -52s47 -83.334 47 -146.001v-215c0 -14.667 7.33301 -22 22 -22h41v-83h-92c-41.333 0 -62 19.333 -62 58l1 30h-2c0.666992 0 -0.833008 -3.5 -4.5 -10.5s-9.66699 -15.333 -18 -25
s-18.5 -19.334 -30.5 -29.001s-27.667 -18 -47 -25s-40.333 -10.5 -63 -10.5c-46.667 0 -86.667 13.5 -120 40.5s-50 63.5 -50 109.5zM125 147.002c0 -22 8.33301 -41.167 25 -57.5s40 -24.5 70 -24.5c40 0 72.667 16.667 98 50s38 70.333 38 111v19h-26
c-136.667 0 -205 -32.667 -205 -98zM130 609.002v68h254v-68h-254z" />
    <glyph glyph-name="Abreve" unicode="&#x102;" horiz-adv-x="665" 
d="M12 0v86h14c17.333 0 28.333 7.33301 33 22l221 598h105l221 -598c4.66699 -14.667 15.667 -22 33 -22h14v-86h-55c-24.667 -0 -42.5 3.83301 -53.5 11.5s-20.833 23.167 -29.5 46.5l-53 145h-259l-53 -145c-8.66699 -23.333 -18.5 -38.833 -29.5 -46.5
s-28.833 -11.5 -53.5 -11.5h-55zM227 287h211l-77 215l-28 99h-2c-10 -41.333 -19 -74.333 -27 -99zM332 751c-34 0 -63.833 10.333 -89.5 31s-38.5 49.334 -38.5 86.001v14h67v-13c0 -20 5.83301 -35 17.5 -45s26.167 -15 43.5 -15s32 5.16699 44 15.5s18 25.5 18 45.5v12
h66v-14c0 -36.667 -12.667 -65.334 -38 -86.001s-55.333 -31 -90 -31z" />
    <glyph glyph-name="abreve" unicode="&#x103;" horiz-adv-x="529" 
d="M28 138c0 118 102 177.002 306 177.002h22v7c0 42.667 -8.83301 73.167 -26.5 91.5s-46.167 27.5 -85.5 27.5c-18.667 0 -37.167 -2.83301 -55.5 -8.5s-27.5 -15.834 -27.5 -30.501v-29h-92v51c0 18.667 6.66699 34.834 20 48.501s30.166 23.5 50.499 29.5
s38.833 10.167 55.5 12.5s32.334 3.5 47.001 3.5c78 0 132.667 -17.333 164 -52s47 -83.334 47 -146.001v-215c0 -14.667 7.33301 -22 22 -22h41v-83h-92c-41.333 0 -62 19.333 -62 58l1 30h-2c0.666992 0 -0.833008 -3.5 -4.5 -10.5s-9.66699 -15.333 -18 -25
s-18.5 -19.334 -30.5 -29.001s-27.667 -18 -47 -25s-40.333 -10.5 -63 -10.5c-46.667 0 -86.667 13.5 -120 40.5s-50 63.5 -50 109.5zM125 147.002c0 -22 8.33301 -41.167 25 -57.5s40 -24.5 70 -24.5c40 0 72.667 16.667 98 50s38 70.333 38 111v19h-26
c-136.667 0 -205 -32.667 -205 -98zM256 576.002c-34 0 -63.833 10.333 -89.5 31s-38.5 49.334 -38.5 86.001v14h67v-13c0 -20 5.83301 -35 17.5 -45s26.167 -15 43.5 -15s32 5.16699 44 15.5s18 25.5 18 45.5v12h66v-14c0 -36.667 -12.667 -65.334 -38 -86.001
s-55.333 -31 -90 -31z" />
    <glyph glyph-name="Aogonek" unicode="&#x104;" horiz-adv-x="665" 
d="M12 0l-0.000976562 86h14c17.333 0 28.333 7.33301 33 22l221 598h105l221 -598c4.66699 -14.667 15.667 -22 33 -22h14v-86c-42.667 -36 -64 -65.667 -64 -89c0 -11.333 4.66699 -20.5 14 -27.5s18.666 -11.5 27.999 -13.5l14 -2l-23 -75c-3.33301 0 -7.5 0.5 -12.5 1.5
s-14.167 3.5 -27.5 7.5s-25.166 9.16699 -35.499 15.5s-19.666 15.666 -27.999 27.999s-12.5 26.5 -12.5 42.5c0 42.667 22.667 80.334 68 113.001v2c-16 2 -28.167 7 -36.5 15s-15.833 21.333 -22.5 40l-53 145h-259l-53 -145c-8.66699 -23.333 -18.5 -38.833 -29.5 -46.5
s-28.833 -11.5 -53.5 -11.5h-55zM226.999 287h211l-77 215l-28 99h-2c-10 -41.333 -19 -74.333 -27 -99z" />
    <glyph glyph-name="aogonek" unicode="&#x105;" horiz-adv-x="529" 
d="M28 142c0 115.333 102.332 173.001 306.999 173.001h21v8c0 42.667 -8.83301 73 -26.5 91s-46.167 27 -85.5 27c-19.333 0 -38 -2.83301 -56 -8.5s-27 -15.834 -27 -30.501v-29h-92v51c0 18.667 6.5 34.834 19.5 48.501s29.833 23.5 50.5 29.5s39.5 10.167 56.5 12.5
s33.167 3.5 48.5 3.5c77.333 0 131.5 -17.5 162.5 -52.5s46.5 -83.5 46.5 -145.5v-215c0 -14.667 7.33301 -22 22 -22h41v-83c-43.333 -33.333 -65 -63 -65 -89c0 -11.333 4.66699 -20.5 14 -27.5s18.666 -11.5 27.999 -13.5l14 -2l-23 -75c-3.33301 0 -7.5 0.5 -12.5 1.5
s-14.167 3.5 -27.5 7.5s-25.166 9.16699 -35.499 15.5s-19.666 15.666 -27.999 27.999s-12.5 26.5 -12.5 42.5c0 40 22 76.667 66 110v2h-18c-19.333 -0 -33.333 5.33301 -42 16s-13 23.667 -13 39v5l2 28h-2c-13.333 -28 -33.333 -51.667 -60 -71s-60 -29 -100 -29
c-48 0 -88.833 13.667 -122.5 41s-50.5 65 -50.5 113zM126.999 147.001c0 -22 8.33301 -41 25 -57s40 -24 70 -24c38.667 0 70.667 16.833 96 50.5s38 70.5 38 110.5v18h-25c-136 0 -204 -32.667 -204 -98z" />
    <glyph glyph-name="Cacute" unicode="&#x106;" horiz-adv-x="698" 
d="M346 755l73 127h98l-95 -127h-76zM35 359c0 102 33.834 187.331 101.501 255.998s151.834 103 252.501 103c26 0 53.333 -2.83301 82 -8.5s57.167 -14 85.5 -25s51.666 -27 69.999 -48s27.5 -44.833 27.5 -71.5v-69h-92v40c0 27.333 -18.333 49 -55 65
s-75.334 24 -116.001 24c-72 0 -132 -24.667 -180 -74s-72 -113.333 -72 -192c0 -77.333 24.5 -142.833 73.5 -196.5s109.5 -80.5 181.5 -80.5c26 0 51.5 3.33301 76.5 10s46 14.667 63 24s32 18.666 45 27.999s22.833 17.333 29.5 24l9 10l54 -72
c-2.66699 -3.33301 -6.66699 -7.66602 -12 -12.999s-16.833 -14.666 -34.5 -27.999s-36.5 -25.166 -56.5 -35.499s-45.833 -19.833 -77.5 -28.5s-64.167 -13 -97.5 -13c-104 0 -189.667 35.5 -257 106.5s-101 159.167 -101 264.5z" />
    <glyph glyph-name="cacute" unicode="&#x107;" horiz-adv-x="530" 
d="M249 580l73 127h98l-95 -127h-76zM33 253c0 75.333 25.166 138.333 75.499 189s115.833 76 196.5 76c17.333 0 35.666 -1.83301 54.999 -5.5s38.833 -9.5 58.5 -17.5s36 -19.667 49 -35s19.5 -33 19.5 -53v-52h-88v28c0 16.667 -10.167 29.5 -30.5 38.5
s-41.5 13.5 -63.5 13.5c-50 0 -91.5 -16.833 -124.5 -50.5s-49.5 -77.167 -49.5 -130.5c0 -55.333 17.333 -99.166 52 -131.499s77 -48.5 127 -48.5c28 0 55.167 5.83301 81.5 17.5s45.5 23.167 57.5 34.5l18 18l41 -69c-2 -2.66699 -4.83301 -5.83398 -8.5 -9.50098
s-12 -10.5 -25 -20.5s-26.833 -18.833 -41.5 -26.5s-33.667 -14.667 -57 -21s-47.666 -9.5 -72.999 -9.5c-79.333 0 -144.166 25 -194.499 75s-75.5 113.333 -75.5 190z" />
    <glyph glyph-name="Ccircumflex" unicode="&#x108;" horiz-adv-x="698" 
d="M253 755l87 127h89l88 -127h-79l-52 80h-2l-53 -80h-78zM35 359c0 102 33.834 187.331 101.501 255.998s151.834 103 252.501 103c26 0 53.333 -2.83301 82 -8.5s57.167 -14 85.5 -25s51.666 -27 69.999 -48s27.5 -44.833 27.5 -71.5v-69h-92v40
c0 27.333 -18.333 49 -55 65s-75.334 24 -116.001 24c-72 0 -132 -24.667 -180 -74s-72 -113.333 -72 -192c0 -77.333 24.5 -142.833 73.5 -196.5s109.5 -80.5 181.5 -80.5c26 0 51.5 3.33301 76.5 10s46 14.667 63 24s32 18.666 45 27.999s22.833 17.333 29.5 24l9 10
l54 -72c-2.66699 -3.33301 -6.66699 -7.66602 -12 -12.999s-16.833 -14.666 -34.5 -27.999s-36.5 -25.166 -56.5 -35.499s-45.833 -19.833 -77.5 -28.5s-64.167 -13 -97.5 -13c-104 0 -189.667 35.5 -257 106.5s-101 159.167 -101 264.5z" />
    <glyph glyph-name="ccircumflex" unicode="&#x109;" horiz-adv-x="530" 
d="M156 580l87 127h89l88 -127h-79l-52 80h-2l-53 -80h-78zM33 253c0 75.333 25.166 138.333 75.499 189s115.833 76 196.5 76c17.333 0 35.666 -1.83301 54.999 -5.5s38.833 -9.5 58.5 -17.5s36 -19.667 49 -35s19.5 -33 19.5 -53v-52h-88v28
c0 16.667 -10.167 29.5 -30.5 38.5s-41.5 13.5 -63.5 13.5c-50 0 -91.5 -16.833 -124.5 -50.5s-49.5 -77.167 -49.5 -130.5c0 -55.333 17.333 -99.166 52 -131.499s77 -48.5 127 -48.5c28 0 55.167 5.83301 81.5 17.5s45.5 23.167 57.5 34.5l18 18l41 -69
c-2 -2.66699 -4.83301 -5.83398 -8.5 -9.50098s-12 -10.5 -25 -20.5s-26.833 -18.833 -41.5 -26.5s-33.667 -14.667 -57 -21s-47.666 -9.5 -72.999 -9.5c-79.333 0 -144.166 25 -194.499 75s-75.5 113.333 -75.5 190z" />
    <glyph glyph-name="Cdotaccent" unicode="&#x10a;" horiz-adv-x="698" 
d="M35 359c0 102 33.834 187.331 101.501 255.998s151.834 103 252.501 103c26 0 53.333 -2.83301 82 -8.5s57.167 -14 85.5 -25s51.666 -27 69.999 -48s27.5 -44.833 27.5 -71.5v-69h-92v40c0 27.333 -18.333 49 -55 65s-75.334 24 -116.001 24
c-72 0 -132 -24.667 -180 -74s-72 -113.333 -72 -192c0 -77.333 24.5 -142.833 73.5 -196.5s109.5 -80.5 181.5 -80.5c26 0 51.5 3.33301 76.5 10s46 14.667 63 24s32 18.666 45 27.999s22.833 17.333 29.5 24l9 10l54 -72c-2.66699 -3.33301 -6.66699 -7.66602 -12 -12.999
s-16.833 -14.666 -34.5 -27.999s-36.5 -25.166 -56.5 -35.499s-45.833 -19.833 -77.5 -28.5s-64.167 -13 -97.5 -13c-104 0 -189.667 35.5 -257 106.5s-101 159.167 -101 264.5zM341.001 780.998v101h87v-101h-87z" />
    <glyph glyph-name="cdotaccent" unicode="&#x10b;" horiz-adv-x="530" 
d="M33 253c0 75.333 25.166 138.333 75.499 189s115.833 76 196.5 76c17.333 0 35.666 -1.83301 54.999 -5.5s38.833 -9.5 58.5 -17.5s36 -19.667 49 -35s19.5 -33 19.5 -53v-52h-88v28c0 16.667 -10.167 29.5 -30.5 38.5s-41.5 13.5 -63.5 13.5
c-50 0 -91.5 -16.833 -124.5 -50.5s-49.5 -77.167 -49.5 -130.5c0 -55.333 17.333 -99.166 52 -131.499s77 -48.5 127 -48.5c28 0 55.167 5.83301 81.5 17.5s45.5 23.167 57.5 34.5l18 18l41 -69c-2 -2.66699 -4.83301 -5.83398 -8.5 -9.50098s-12 -10.5 -25 -20.5
s-26.833 -18.833 -41.5 -26.5s-33.667 -14.667 -57 -21s-47.666 -9.5 -72.999 -9.5c-79.333 0 -144.166 25 -194.499 75s-75.5 113.333 -75.5 190zM243.999 606v101h87v-101h-87z" />
    <glyph glyph-name="Ccaron" unicode="&#x10c;" horiz-adv-x="698" 
d="M341 755l-88 127h79l52 -81h2l52 81h80l-88 -127h-89zM35 359c0 102 33.834 187.331 101.501 255.998s151.834 103 252.501 103c26 0 53.333 -2.83301 82 -8.5s57.167 -14 85.5 -25s51.666 -27 69.999 -48s27.5 -44.833 27.5 -71.5v-69h-92v40
c0 27.333 -18.333 49 -55 65s-75.334 24 -116.001 24c-72 0 -132 -24.667 -180 -74s-72 -113.333 -72 -192c0 -77.333 24.5 -142.833 73.5 -196.5s109.5 -80.5 181.5 -80.5c26 0 51.5 3.33301 76.5 10s46 14.667 63 24s32 18.666 45 27.999s22.833 17.333 29.5 24l9 10
l54 -72c-2.66699 -3.33301 -6.66699 -7.66602 -12 -12.999s-16.833 -14.666 -34.5 -27.999s-36.5 -25.166 -56.5 -35.499s-45.833 -19.833 -77.5 -28.5s-64.167 -13 -97.5 -13c-104 0 -189.667 35.5 -257 106.5s-101 159.167 -101 264.5z" />
    <glyph glyph-name="ccaron" unicode="&#x10d;" horiz-adv-x="530" 
d="M244 580l-88 127h79l52 -81h2l52 81h80l-88 -127h-89zM33 253c0 75.333 25.166 138.333 75.499 189s115.833 76 196.5 76c17.333 0 35.666 -1.83301 54.999 -5.5s38.833 -9.5 58.5 -17.5s36 -19.667 49 -35s19.5 -33 19.5 -53v-52h-88v28
c0 16.667 -10.167 29.5 -30.5 38.5s-41.5 13.5 -63.5 13.5c-50 0 -91.5 -16.833 -124.5 -50.5s-49.5 -77.167 -49.5 -130.5c0 -55.333 17.333 -99.166 52 -131.499s77 -48.5 127 -48.5c28 0 55.167 5.83301 81.5 17.5s45.5 23.167 57.5 34.5l18 18l41 -69
c-2 -2.66699 -4.83301 -5.83398 -8.5 -9.50098s-12 -10.5 -25 -20.5s-26.833 -18.833 -41.5 -26.5s-33.667 -14.667 -57 -21s-47.666 -9.5 -72.999 -9.5c-79.333 0 -144.166 25 -194.499 75s-75.5 113.333 -75.5 190z" />
    <glyph glyph-name="Dcaron" unicode="&#x10e;" horiz-adv-x="714" 
d="M293 755l-88 127h79l52 -81h2l52 81h80l-88 -127h-89zM98 64v556.001h-65v86h286c108.667 0 195.5 -31.167 260.5 -93.5s97.5 -148.5 97.5 -258.5c0 -110.667 -32.5 -197.334 -97.5 -260.001s-151.833 -94 -260.5 -94h-156c-22.667 0 -39.167 5 -49.5 15
s-15.5 26.333 -15.5 49zM198 108.001c0 -14.667 7.33203 -22 21.999 -22h92c80.667 0 144.334 23.333 191.001 70s70 112.667 70 198c0 84.667 -23.5 150.167 -70.5 196.5s-110.5 69.5 -190.5 69.5h-114v-512z" />
    <glyph glyph-name="dcaron" unicode="&#x10f;" horiz-adv-x="601" 
d="M571 706h79c4 -18 6 -34.333 6 -49c0 -27.333 -8 -58 -24 -92h-69c12.667 32.667 19 60 19 82c0 19.333 -3.66699 39 -11 59zM35 253c0 80 21.165 144.168 63.498 192.501s97.166 72.5 164.499 72.5c22 0 42.333 -2.66699 61 -8s33.5 -11.833 44.5 -19.5
s20.667 -15.334 29 -23.001s13.833 -14.167 16.5 -19.5l5 -8h2c-0.666992 10 -1 21.333 -1 34v127c0 14.667 -7.33301 22 -22 22h-41v83h95c22.667 0 39.167 -5 49.5 -15s15.5 -26.333 15.5 -49v-537c0 -14.667 7.33301 -22 22 -22h41v-83h-93c-41.333 0 -62 18 -62 54l1 26
h-2c-1.33301 -2.66699 -3.16602 -6 -5.49902 -10s-8.16602 -11.333 -17.499 -22s-19.666 -20 -30.999 -28s-27 -15.333 -47 -22s-41.667 -10 -65 -10c-68 0 -122.167 24.333 -162.5 73s-60.5 112.667 -60.5 192zM132.998 253.001c0 -54.667 13.332 -98.499 39.999 -131.499
s61.334 -49.5 104.001 -49.5c41.333 0 75.833 15.167 103.5 45.5s41.5 75.833 41.5 136.5c0 49.333 -12.333 91.666 -37 126.999s-60 53 -106 53c-41.333 0 -76 -16.333 -104 -49s-42 -76.667 -42 -132z" />
    <glyph glyph-name="Dcroat" unicode="&#x110;" horiz-adv-x="716" 
d="M100 64v248.001h-48v82h48v226h-65v86h286c108.667 0 195.5 -31.167 260.5 -93.5s97.5 -148.5 97.5 -258.5c0 -110.667 -32.5 -197.334 -97.5 -260.001s-151.833 -94 -260.5 -94h-156c-22.667 0 -39.167 5 -49.5 15s-15.5 26.333 -15.5 49zM200 108.001
c0 -14.667 7.33203 -22 21.999 -22h92c80.667 0 144.334 23.333 191.001 70s70 112.667 70 198c0 84.667 -23.5 150.167 -70.5 196.5s-110.5 69.5 -190.5 69.5h-114v-226h144v-82h-144v-204z" />
    <glyph glyph-name="dcroat" unicode="&#x111;" horiz-adv-x="601" 
d="M35 253c0 80 21.165 144.168 63.498 192.501s97.166 72.5 164.499 72.5c22 0 42.333 -2.66699 61 -8s33.5 -11.833 44.5 -19.5s20.667 -15.334 29 -23.001s13.833 -14.167 16.5 -19.5l5 -8h2c-0.666992 10 -1 21.333 -1 34v89h-129v63h129v80h97v-80h77v-63h-77v-458
c0 -14.667 7.33301 -22 22 -22h41v-83h-93c-41.333 0 -62 18 -62 54l1 26h-2c-1.33301 -2.66699 -3.16602 -6 -5.49902 -10s-8.16602 -11.333 -17.499 -22s-19.666 -20 -30.999 -28s-27 -15.333 -47 -22s-41.667 -10 -65 -10c-68 0 -122.167 24.333 -162.5 73
s-60.5 112.667 -60.5 192zM132.998 253.001c0 -54.667 13.332 -98.499 39.999 -131.499s61.334 -49.5 104.001 -49.5c41.333 0 75.833 15.167 103.5 45.5s41.5 75.833 41.5 136.5c0 49.333 -12.333 91.666 -37 126.999s-60 53 -106 53c-41.333 0 -76 -16.333 -104 -49
s-42 -76.667 -42 -132z" />
    <glyph glyph-name="Emacron" unicode="&#x112;" horiz-adv-x="571" 
d="M98 64v556h-65v86h416c22.667 0 39 -5 49 -15s15 -26.333 15 -49v-89h-92v45c0 14.667 -7.33301 22 -22 22h-201v-221h248v-86h-248v-205c0 -14.667 7.33301 -22 22 -22h207c14.667 0 22 7.33301 22 22v45h91v-89c0 -22.667 -5 -39 -15 -49s-26.333 -15 -49 -15h-313
c-22.667 0 -39.167 5 -49.5 15s-15.5 26.333 -15.5 49zM164 784v68h254v-68h-254z" />
    <glyph glyph-name="emacron" unicode="&#x113;" horiz-adv-x="539" 
d="M33 253c0 79.333 24 143.332 72 191.999s108.667 73 182 73c68.667 0 122.167 -22.5 160.5 -67.5s57.5 -101.5 57.5 -169.5c0 -11.333 -1 -25 -3 -41h-369c2.66699 -52.667 20.667 -93.834 54 -123.501s73.666 -44.5 120.999 -44.5c10.667 0 21.167 0.833008 31.5 2.5
s20 4.16699 29 7.5s17.167 6.5 24.5 9.5s14.833 6.83301 22.5 11.5s13.5 8.33398 17.5 11.001l15 10l9 7l41 -71c-11.333 -9.33301 -24.666 -18.666 -39.999 -27.999s-37.833 -19 -67.5 -29s-59.167 -15 -88.5 -15c-78.667 0 -143.167 25.167 -193.5 75.5
s-75.5 113.5 -75.5 189.5zM137 309.999h271c-1.33301 42 -13.5 74.667 -36.5 98s-51.833 35 -86.5 35c-38 0 -70.5 -11.833 -97.5 -35.5s-43.833 -56.167 -50.5 -97.5zM155 608.999v68h254v-68h-254z" />
    <glyph glyph-name="Ebreve" unicode="&#x114;" horiz-adv-x="571" 
d="M98 64v556h-65v86h416c22.667 0 39 -5 49 -15s15 -26.333 15 -49v-89h-92v45c0 14.667 -7.33301 22 -22 22h-201v-221h248v-86h-248v-205c0 -14.667 7.33301 -22 22 -22h207c14.667 0 22 7.33301 22 22v45h91v-89c0 -22.667 -5 -39 -15 -49s-26.333 -15 -49 -15h-313
c-22.667 0 -39.167 5 -49.5 15s-15.5 26.333 -15.5 49zM290 751c-34 0 -63.833 10.333 -89.5 31s-38.5 49.334 -38.5 86.001v14h67v-13c0 -20 5.83301 -35 17.5 -45s26.167 -15 43.5 -15s32 5.16699 44 15.5s18 25.5 18 45.5v12h66v-14
c0 -36.667 -12.667 -65.334 -38 -86.001s-55.333 -31 -90 -31z" />
    <glyph glyph-name="ebreve" unicode="&#x115;" horiz-adv-x="539" 
d="M33 253c0 79.333 24 143.332 72 191.999s108.667 73 182 73c68.667 0 122.167 -22.5 160.5 -67.5s57.5 -101.5 57.5 -169.5c0 -11.333 -1 -25 -3 -41h-369c2.66699 -52.667 20.667 -93.834 54 -123.501s73.666 -44.5 120.999 -44.5c10.667 0 21.167 0.833008 31.5 2.5
s20 4.16699 29 7.5s17.167 6.5 24.5 9.5s14.833 6.83301 22.5 11.5s13.5 8.33398 17.5 11.001l15 10l9 7l41 -71c-11.333 -9.33301 -24.666 -18.666 -39.999 -27.999s-37.833 -19 -67.5 -29s-59.167 -15 -88.5 -15c-78.667 0 -143.167 25.167 -193.5 75.5
s-75.5 113.5 -75.5 189.5zM137 309.999h271c-1.33301 42 -13.5 74.667 -36.5 98s-51.833 35 -86.5 35c-38 0 -70.5 -11.833 -97.5 -35.5s-43.833 -56.167 -50.5 -97.5zM282 575.999c-34 0 -63.833 10.333 -89.5 31s-38.5 49.334 -38.5 86.001v14h67v-13
c0 -20 5.83301 -35 17.5 -45s26.167 -15 43.5 -15s32 5.16699 44 15.5s18 25.5 18 45.5v12h66v-14c0 -36.667 -12.667 -65.334 -38 -86.001s-55.333 -31 -90 -31z" />
    <glyph glyph-name="Edotaccent" unicode="&#x116;" horiz-adv-x="571" 
d="M98 64v556h-65v86h416c22.667 0 39 -5 49 -15s15 -26.333 15 -49v-89h-92v45c0 14.667 -7.33301 22 -22 22h-201v-221h248v-86h-248v-205c0 -14.667 7.33301 -22 22 -22h207c14.667 0 22 7.33301 22 22v45h91v-89c0 -22.667 -5 -39 -15 -49s-26.333 -15 -49 -15h-313
c-22.667 0 -39.167 5 -49.5 15s-15.5 26.333 -15.5 49zM247 781v101h87v-101h-87z" />
    <glyph glyph-name="edotaccent" unicode="&#x117;" horiz-adv-x="539" 
d="M33 253c0 79.333 24 143.332 72 191.999s108.667 73 182 73c68.667 0 122.167 -22.5 160.5 -67.5s57.5 -101.5 57.5 -169.5c0 -11.333 -1 -25 -3 -41h-369c2.66699 -52.667 20.667 -93.834 54 -123.501s73.666 -44.5 120.999 -44.5c10.667 0 21.167 0.833008 31.5 2.5
s20 4.16699 29 7.5s17.167 6.5 24.5 9.5s14.833 6.83301 22.5 11.5s13.5 8.33398 17.5 11.001l15 10l9 7l41 -71c-11.333 -9.33301 -24.666 -18.666 -39.999 -27.999s-37.833 -19 -67.5 -29s-59.167 -15 -88.5 -15c-78.667 0 -143.167 25.167 -193.5 75.5
s-75.5 113.5 -75.5 189.5zM137 309.999h271c-1.33301 42 -13.5 74.667 -36.5 98s-51.833 35 -86.5 35c-38 0 -70.5 -11.833 -97.5 -35.5s-43.833 -56.167 -50.5 -97.5zM238 605.999v101h87v-101h-87z" />
    <glyph glyph-name="Eogonek" unicode="&#x118;" horiz-adv-x="571" 
d="M98 64l-0.00195312 555.998h-65v86h416c22.667 0 39 -5 49 -15s15 -26.333 15 -49v-89h-92v45c0 14.667 -7.33301 22 -22 22h-201v-221h248v-86h-248v-205c0 -14.667 7.33301 -22 22 -22h207c14.667 0 22 7.33301 22 22v45h91v-89
c0 -22.667 -7.33301 -41.334 -22 -56.001c-1.33301 -1.33301 -4.66602 -4.16602 -9.99902 -8.49902l-11.5 -9.5l-11 -9.5c-5 -4.33301 -8.83301 -7.83301 -11.5 -10.5s-5.83398 -6.16699 -9.50098 -10.5s-6.5 -8.16602 -8.5 -11.499s-4.16699 -7.16602 -6.5 -11.499
s-4 -8.66602 -5 -12.999s-1.5 -8.5 -1.5 -12.5c0 -11.333 4.5 -20.5 13.5 -27.5s18.167 -11.5 27.5 -13.5l14 -2l-23 -75c-3.33301 0 -7.5 0.5 -12.5 1.5s-14.167 3.5 -27.5 7.5s-25.166 9.16699 -35.499 15.5s-19.666 15.666 -27.999 27.999s-12.5 26.5 -12.5 42.5
c0 40 21.667 76.667 65 110v2h-261c-22.667 0 -39.167 5 -49.5 15s-15.5 26.333 -15.5 49z" />
    <glyph glyph-name="eogonek" unicode="&#x119;" horiz-adv-x="540" 
d="M33 253c0 79.333 23.999 143.333 71.999 192s108.667 73 182 73c68.667 0 122.167 -22.333 160.5 -67s57.5 -101.334 57.5 -170.001c0 -9.33301 -1 -22 -3 -38h-369c2.66699 -53.333 20.667 -95.166 54 -125.499s73.666 -45.5 120.999 -45.5
c10.667 0 21.167 0.833008 31.5 2.5s20 4.16699 29 7.5s17.167 6.5 24.5 9.5s14.833 6.83301 22.5 11.5s13.5 8.33398 17.5 11.001l15 10l9 7l41 -71c-6 -6 -22.167 -18.5 -48.5 -37.5s-47.166 -37.333 -62.499 -55s-23 -36.5 -23 -56.5c0 -11.333 4.66699 -20.5 14 -27.5
s18.666 -11.5 27.999 -13.5l13 -2l-23 -75c-3.33301 0 -7.5 0.5 -12.5 1.5s-14.167 3.5 -27.5 7.5s-25.166 9.16699 -35.499 15.5s-19.666 15.666 -27.999 27.999s-12.5 26.5 -12.5 42.5c0 34 18.667 67.667 56 101v2c-10.667 -2 -22 -3 -34 -3
c-78.667 0 -143.167 25.167 -193.5 75.5s-75.5 113.5 -75.5 189.5zM136.999 307l271 -0.000976562c-1.33301 42.667 -13.5 75.834 -36.5 99.501s-51.833 35.5 -86.5 35.5c-38 0 -70.5 -12 -97.5 -36s-43.833 -57 -50.5 -99z" />
    <glyph glyph-name="Ecaron" unicode="&#x11a;" horiz-adv-x="571" 
d="M246 755l-88 127h79l52 -81h2l52 81h80l-88 -127h-89zM98 64v556h-65v86h416c22.667 0 39 -5 49 -15s15 -26.333 15 -49v-89h-92v45c0 14.667 -7.33301 22 -22 22h-201v-221h248v-86h-248v-205c0 -14.667 7.33301 -22 22 -22h207c14.667 0 22 7.33301 22 22v45h91v-89
c0 -22.667 -5 -39 -15 -49s-26.333 -15 -49 -15h-313c-22.667 0 -39.167 5 -49.5 15s-15.5 26.333 -15.5 49z" />
    <glyph glyph-name="ecaron" unicode="&#x11b;" horiz-adv-x="539" 
d="M238 580l-88 127h79l52 -81h2l52 81h80l-88 -127h-89zM33 253c0 79.333 24 143.332 72 191.999s108.667 73 182 73c68.667 0 122.167 -22.5 160.5 -67.5s57.5 -101.5 57.5 -169.5c0 -11.333 -1 -25 -3 -41h-369c2.66699 -52.667 20.667 -93.834 54 -123.501
s73.666 -44.5 120.999 -44.5c10.667 0 21.167 0.833008 31.5 2.5s20 4.16699 29 7.5s17.167 6.5 24.5 9.5s14.833 6.83301 22.5 11.5s13.5 8.33398 17.5 11.001l15 10l9 7l41 -71c-11.333 -9.33301 -24.666 -18.666 -39.999 -27.999s-37.833 -19 -67.5 -29
s-59.167 -15 -88.5 -15c-78.667 0 -143.167 25.167 -193.5 75.5s-75.5 113.5 -75.5 189.5zM137 309.999h271c-1.33301 42 -13.5 74.667 -36.5 98s-51.833 35 -86.5 35c-38 0 -70.5 -11.833 -97.5 -35.5s-43.833 -56.167 -50.5 -97.5z" />
    <glyph glyph-name="Gcircumflex" unicode="&#x11c;" horiz-adv-x="728" 
d="M256 755l87 127h89l88 -127h-79l-52 80h-2l-53 -80h-78zM35 356c0 102 34.001 187.833 102.001 257.5s152.667 104.5 254 104.5c50 0 96 -7.33301 138 -22s71.667 -29.334 89 -44.001l25 -21l-57 -73c-6 5.33301 -14.167 11.666 -24.5 18.999s-32.333 17.333 -66 30
s-67.834 19 -102.501 19c-71.333 0 -131.5 -25.5 -180.5 -76.5s-73.5 -115.5 -73.5 -193.5c0 -80.667 24.333 -146.5 73 -197.5s109.667 -76.5 183 -76.5c23.333 0 46.333 3 69 9s41.5 13.333 56.5 22s28.5 17.334 40.5 26.001s21 16 27 22l8 9v71
c0 14.667 -7.33301 22 -22 22h-43v86h92c22.667 0 39.167 -5 49.5 -15s15.5 -26.333 15.5 -49v-285h-88v44l1 30h-2c-2 -2 -5.16699 -5 -9.5 -9s-13.5 -11 -27.5 -21s-28.833 -18.667 -44.5 -26s-36.167 -14.166 -61.5 -20.499s-51 -9.5 -77 -9.5
c-96.667 0 -178.167 34.333 -244.5 103s-99.5 157 -99.5 265z" />
    <glyph glyph-name="gcircumflex" unicode="&#x11d;" horiz-adv-x="593" 
d="M166 580l87 127h89l88 -127h-79l-52 80h-2l-53 -80h-78zM114 -90c42 -22.667 87.9971 -33.9971 137.997 -33.9971c48 0 86.833 11.5 116.5 34.5s44.5 58.5 44.5 106.5v34l1 32h-2c-31.333 -51.333 -81.333 -77 -150 -77s-123.667 24.5 -165 73.5s-62 110.833 -62 185.5
s19.833 135.5 59.5 182.5s93.834 70.5 162.501 70.5c24 0 45.833 -2.66699 65.5 -8s35.334 -12 47.001 -20s21.5 -15.833 29.5 -23.5s13.667 -14.167 17 -19.5l4 -8h2c-0.666992 5.33301 -1 10.666 -1 15.999c0 34 19 51 57 51h94v-83h-41c-14.667 0 -22 -6.66699 -22 -20
v-382c0 -40 -7.16699 -75.333 -21.5 -106s-33.666 -54.834 -57.999 -72.501s-51.333 -30.834 -81 -39.501s-61.167 -13 -94.5 -13c-60 0 -117.333 14 -172 42zM280.997 90.0029c39.333 0 71.5 13.667 96.5 41s37.5 71.666 37.5 132.999c0 113.333 -47.667 170 -143 170
c-43.333 0 -77.166 -14.833 -101.499 -44.5s-36.5 -70.5 -36.5 -122.5c0 -53.333 13.167 -96.166 39.5 -128.499s62.166 -48.5 107.499 -48.5z" />
    <glyph glyph-name="Gbreve" unicode="&#x11e;" horiz-adv-x="728" 
d="M35 356c0 102 34.001 187.833 102.001 257.5s152.667 104.5 254 104.5c50 0 96 -7.33301 138 -22s71.667 -29.334 89 -44.001l25 -21l-57 -73c-6 5.33301 -14.167 11.666 -24.5 18.999s-32.333 17.333 -66 30s-67.834 19 -102.501 19
c-71.333 0 -131.5 -25.5 -180.5 -76.5s-73.5 -115.5 -73.5 -193.5c0 -80.667 24.333 -146.5 73 -197.5s109.667 -76.5 183 -76.5c23.333 0 46.333 3 69 9s41.5 13.333 56.5 22s28.5 17.334 40.5 26.001s21 16 27 22l8 9v71c0 14.667 -7.33301 22 -22 22h-43v86h92
c22.667 0 39.167 -5 49.5 -15s15.5 -26.333 15.5 -49v-285h-88v44l1 30h-2c-2 -2 -5.16699 -5 -9.5 -9s-13.5 -11 -27.5 -21s-28.833 -18.667 -44.5 -26s-36.167 -14.166 -61.5 -20.499s-51 -9.5 -77 -9.5c-96.667 0 -178.167 34.333 -244.5 103s-99.5 157 -99.5 265z
M387.001 751c-34 0 -63.833 10.333 -89.5 31s-38.5 49.334 -38.5 86.001v14h67v-13c0 -20 6 -35 18 -45s26.333 -15 43 -15c17.333 0 32 5.16699 44 15.5s18 25.5 18 45.5v12h66v-14c0 -36.667 -12.667 -65.334 -38 -86.001s-55.333 -31 -90 -31z" />
    <glyph glyph-name="gbreve" unicode="&#x11f;" horiz-adv-x="593" 
d="M114 -90c42 -22.667 87.9971 -33.9971 137.997 -33.9971c48 0 86.833 11.5 116.5 34.5s44.5 58.5 44.5 106.5v34l1 32h-2c-31.333 -51.333 -81.333 -77 -150 -77s-123.667 24.5 -165 73.5s-62 110.833 -62 185.5s19.833 135.5 59.5 182.5s93.834 70.5 162.501 70.5
c24 0 45.833 -2.66699 65.5 -8s35.334 -12 47.001 -20s21.5 -15.833 29.5 -23.5s13.667 -14.167 17 -19.5l4 -8h2c-0.666992 5.33301 -1 10.666 -1 15.999c0 34 19 51 57 51h94v-83h-41c-14.667 0 -22 -6.66699 -22 -20v-382c0 -40 -7.16699 -75.333 -21.5 -106
s-33.666 -54.834 -57.999 -72.501s-51.333 -30.834 -81 -39.501s-61.167 -13 -94.5 -13c-60 0 -117.333 14 -172 42zM280.997 90.0029c39.333 0 71.5 13.667 96.5 41s37.5 71.666 37.5 132.999c0 113.333 -47.667 170 -143 170c-43.333 0 -77.166 -14.833 -101.499 -44.5
s-36.5 -70.5 -36.5 -122.5c0 -53.333 13.167 -96.166 39.5 -128.499s62.166 -48.5 107.499 -48.5zM296.997 576.003c-34 0 -63.833 10.333 -89.5 31s-38.5 49.334 -38.5 86.001v14h67v-13c0 -20 6 -35 18 -45s26.333 -15 43 -15c17.333 0 32 5.16699 44 15.5
s18 25.5 18 45.5v12h66v-14c0 -36.667 -12.667 -65.334 -38 -86.001s-55.333 -31 -90 -31z" />
    <glyph glyph-name="Gdotaccent" unicode="&#x120;" horiz-adv-x="728" 
d="M35 356c0 102 34.001 187.833 102.001 257.5s152.667 104.5 254 104.5c50 0 96 -7.33301 138 -22s71.667 -29.334 89 -44.001l25 -21l-57 -73c-6 5.33301 -14.167 11.666 -24.5 18.999s-32.333 17.333 -66 30s-67.834 19 -102.501 19
c-71.333 0 -131.5 -25.5 -180.5 -76.5s-73.5 -115.5 -73.5 -193.5c0 -80.667 24.333 -146.5 73 -197.5s109.667 -76.5 183 -76.5c23.333 0 46.333 3 69 9s41.5 13.333 56.5 22s28.5 17.334 40.5 26.001s21 16 27 22l8 9v71c0 14.667 -7.33301 22 -22 22h-43v86h92
c22.667 0 39.167 -5 49.5 -15s15.5 -26.333 15.5 -49v-285h-88v44l1 30h-2c-2 -2 -5.16699 -5 -9.5 -9s-13.5 -11 -27.5 -21s-28.833 -18.667 -44.5 -26s-36.167 -14.166 -61.5 -20.499s-51 -9.5 -77 -9.5c-96.667 0 -178.167 34.333 -244.5 103s-99.5 157 -99.5 265z
M344.001 781v101h87v-101h-87z" />
    <glyph glyph-name="gdotaccent" unicode="&#x121;" horiz-adv-x="593" 
d="M114 -90c42 -22.667 87.9971 -33.9971 137.997 -33.9971c48 0 86.833 11.5 116.5 34.5s44.5 58.5 44.5 106.5v34l1 32h-2c-31.333 -51.333 -81.333 -77 -150 -77s-123.667 24.5 -165 73.5s-62 110.833 -62 185.5s19.833 135.5 59.5 182.5s93.834 70.5 162.501 70.5
c24 0 45.833 -2.66699 65.5 -8s35.334 -12 47.001 -20s21.5 -15.833 29.5 -23.5s13.667 -14.167 17 -19.5l4 -8h2c-0.666992 5.33301 -1 10.666 -1 15.999c0 34 19 51 57 51h94v-83h-41c-14.667 0 -22 -6.66699 -22 -20v-382c0 -40 -7.16699 -75.333 -21.5 -106
s-33.666 -54.834 -57.999 -72.501s-51.333 -30.834 -81 -39.501s-61.167 -13 -94.5 -13c-60 0 -117.333 14 -172 42zM280.997 90.0029c39.333 0 71.5 13.667 96.5 41s37.5 71.666 37.5 132.999c0 113.333 -47.667 170 -143 170c-43.333 0 -77.166 -14.833 -101.499 -44.5
s-36.5 -70.5 -36.5 -122.5c0 -53.333 13.167 -96.166 39.5 -128.499s62.166 -48.5 107.499 -48.5zM253.997 606.003v101h87v-101h-87z" />
    <glyph glyph-name="Gcommaaccent" unicode="&#x122;" horiz-adv-x="728" 
d="M340 -59h79c4 -18 6 -34.333 6 -49c0 -27.333 -8 -58 -24 -92h-69c12.667 32.667 19 60 19 82c0 19.333 -3.66699 39 -11 59zM35 356c0 102 34.001 187.833 102.001 257.5s152.667 104.5 254 104.5c50 0 96 -7.33301 138 -22s71.667 -29.334 89 -44.001l25 -21l-57 -73
c-6 5.33301 -14.167 11.666 -24.5 18.999s-32.333 17.333 -66 30s-67.834 19 -102.501 19c-71.333 0 -131.5 -25.5 -180.5 -76.5s-73.5 -115.5 -73.5 -193.5c0 -80.667 24.333 -146.5 73 -197.5s109.667 -76.5 183 -76.5c23.333 0 46.333 3 69 9s41.5 13.333 56.5 22
s28.5 17.334 40.5 26.001s21 16 27 22l8 9v71c0 14.667 -7.33301 22 -22 22h-43v86h92c22.667 0 39.167 -5 49.5 -15s15.5 -26.333 15.5 -49v-285h-88v44l1 30h-2c-2 -2 -5.16699 -5 -9.5 -9s-13.5 -11 -27.5 -21s-28.833 -18.667 -44.5 -26s-36.167 -14.166 -61.5 -20.499
s-51 -9.5 -77 -9.5c-96.667 0 -178.167 34.333 -244.5 103s-99.5 157 -99.5 265z" />
    <glyph glyph-name="gcommaaccent" unicode="&#x123;" horiz-adv-x="593" 
d="M324 565h-79c-4 18 -6 34.333 -6 49c0 27.333 8 58 24 92h69c-12.667 -32.667 -19 -60 -19 -82c0 -19.333 3.66699 -39 11 -59zM114 -90c42 -22.667 87.9971 -33.9971 137.997 -33.9971c48 0 86.833 11.5 116.5 34.5s44.5 58.5 44.5 106.5v34l1 32h-2
c-31.333 -51.333 -81.333 -77 -150 -77s-123.667 24.5 -165 73.5s-62 110.833 -62 185.5s19.833 135.5 59.5 182.5s93.834 70.5 162.501 70.5c24 0 45.833 -2.66699 65.5 -8s35.334 -12 47.001 -20s21.5 -15.833 29.5 -23.5s13.667 -14.167 17 -19.5l4 -8h2
c-0.666992 5.33301 -1 10.666 -1 15.999c0 34 19 51 57 51h94v-83h-41c-14.667 0 -22 -6.66699 -22 -20v-382c0 -40 -7.16699 -75.333 -21.5 -106s-33.666 -54.834 -57.999 -72.501s-51.333 -30.834 -81 -39.501s-61.167 -13 -94.5 -13c-60 0 -117.333 14 -172 42z
M280.997 90.0029c39.333 0 71.5 13.667 96.5 41s37.5 71.666 37.5 132.999c0 113.333 -47.667 170 -143 170c-43.333 0 -77.166 -14.833 -101.499 -44.5s-36.5 -70.5 -36.5 -122.5c0 -53.333 13.167 -96.166 39.5 -128.499s62.166 -48.5 107.499 -48.5z" />
    <glyph glyph-name="Hcircumflex" unicode="&#x124;" horiz-adv-x="757" 
d="M247 755l87 127h89l88 -127h-79l-52 80h-2l-53 -80h-78zM99 0v598c0 14.667 -7.33301 22 -22 22h-43v86h101c22.667 0 39 -5 49 -15s15 -26.333 15 -49v-247h359v247c0 22.667 5.16699 39 15.5 49s26.833 15 49.5 15h100v-86h-43c-14.667 0 -22 -7.33301 -22 -22v-598
h-100v310h-359v-310h-100z" />
    <glyph glyph-name="hcircumflex" unicode="&#x125;" horiz-adv-x="605" 
d="M-13 755l87 127h89l88 -127h-79l-52 80h-2l-53 -80h-78zM67 0v601c0 14.667 -7.33301 22 -22 22h-41v83h95c43.333 0 65 -20.667 65 -62v-197l-2 -42h2c13.333 29.333 36.333 55.5 69 78.5s72 34.5 118 34.5c116 0 174 -64.667 174 -194v-219
c0 -14.667 7.33301 -22 22 -22h41v-83h-96c-22.667 0 -39 5 -49 15s-15 26.333 -15 49v238c0 40.667 -6.5 72 -19.5 94s-38.167 33 -75.5 33c-38 0 -71.667 -11.667 -101 -35s-49.333 -53.333 -60 -90c-5.33301 -18 -8 -40.333 -8 -67v-237h-97z" />
    <glyph glyph-name="Hbar" unicode="&#x126;" horiz-adv-x="760" 
d="M100 0v514h-65v68h65v124h100v-124h360v124h100v-124h65v-68h-65v-514h-100v310h-360v-310h-100zM200 395h360v119h-360v-119z" />
    <glyph glyph-name="hbar" unicode="&#x127;" horiz-adv-x="605" 
d="M67 0v563.001h-76v63h76v80h97v-80h128v-63h-128v-116l-2 -42h2c2.66699 8.66699 8.16699 18.5 16.5 29.5s19.833 23.167 34.5 36.5s34 24.5 58 33.5s50 13.5 78 13.5c116 0 174 -64.667 174 -194v-219c0 -14.667 7.33301 -22 22 -22h41v-83h-96c-22.667 0 -39 5 -49 15
s-15 26.333 -15 49v238c0 40 -6.5 71.167 -19.5 93.5s-38.167 33.5 -75.5 33.5c-50 0 -90.667 -18.333 -122 -55s-47 -82.334 -47 -137.001v-237h-97z" />
    <glyph glyph-name="Itilde" unicode="&#x128;" horiz-adv-x="318" 
d="M42 0v86h69v534h-69v86h233v-86h-68v-534h68v-86h-233zM-11 756c0 84.667 34.334 127 103.001 127c19.333 0 36.666 -5.66699 51.999 -17s28.833 -22.666 40.5 -33.999s23.5 -17 35.5 -17c14 0 24.333 6.66699 31 20s10 28.333 10 45h65
c0 -84.667 -34.333 -127 -103 -127c-19.333 0 -36.5 5.66699 -51.5 17s-28.5 22.666 -40.5 33.999s-24 17 -36 17c-14 0 -24.167 -6.5 -30.5 -19.5s-9.5 -28.167 -9.5 -45.5h-66z" />
    <glyph glyph-name="itilde" unicode="&#x129;" horiz-adv-x="265" 
d="M-23 581c0 84.667 30.667 127 92 127c12.667 0 24.667 -3.5 36 -10.5s20.166 -14.5 26.499 -22.5s13.166 -15.5 20.499 -22.5s14 -10.5 20 -10.5c22.667 0 34 21 34 63h64c0 -84.667 -30.667 -127 -92 -127c-12.667 0 -24.667 3.33301 -36 10
s-20.166 14.167 -26.499 22.5s-13.166 15.833 -20.499 22.5s-14 10 -20 10c-22.667 0 -34 -20.667 -34 -62h-64zM84 64v337c0 14.667 -7.33301 22 -22 22h-41v83h95c22.667 0 39.167 -5 49.5 -15s15.5 -26.333 15.5 -49v-337c0 -14.667 7.33301 -22 22 -22h41v-83h-96
c-22.667 0 -39 5 -49 15s-15 26.333 -15 49z" />
    <glyph glyph-name="Imacron" unicode="&#x12a;" horiz-adv-x="318" 
d="M42 0v86h69v534h-69v86h233v-86h-68v-534h68v-86h-233zM32 784v68h254v-68h-254z" />
    <glyph glyph-name="imacron" unicode="&#x12b;" horiz-adv-x="265" 
d="M10 609v68h231v-68h-231zM84 64v337c0 14.667 -7.33301 22 -22 22h-41v83h95c22.667 0 39.167 -5 49.5 -15s15.5 -26.333 15.5 -49v-337c0 -14.667 7.33301 -22 22 -22h41v-83h-96c-22.667 0 -39 5 -49 15s-15 26.333 -15 49z" />
    <glyph glyph-name="Ibreve" unicode="&#x12c;" horiz-adv-x="318" 
d="M42 0v86h69v534h-69v86h233v-86h-68v-534h68v-86h-233zM159 751c-34 0 -63.833 10.333 -89.5 31s-38.5 49.334 -38.5 86.001v14h67v-13c0 -20 6 -35 18 -45s26.333 -15 43 -15c17.333 0 32 5.16699 44 15.5s18 25.5 18 45.5v12h66v-14
c0 -36.667 -12.667 -65.334 -38 -86.001s-55.333 -31 -90 -31z" />
    <glyph glyph-name="ibreve" unicode="&#x12d;" horiz-adv-x="265" 
d="M125 575c-34.667 0 -64.833 10.5 -90.5 31.5s-38.5 49.833 -38.5 86.5v13h67v-12c0 -20 6 -35.167 18 -45.5s26.667 -15.5 44 -15.5c16.667 0 31 5.16699 43 15.5s18 25.5 18 45.5v12h67v-13c0 -36.667 -12.833 -65.5 -38.5 -86.5s-55.5 -31.5 -89.5 -31.5zM84.001 64
v337c0 14.667 -7.33301 22 -22 22h-41v83h95c22.667 0 39.167 -5 49.5 -15s15.5 -26.333 15.5 -49v-337c0 -14.667 7.33301 -22 22 -22h41v-83h-96c-22.667 0 -39 5 -49 15s-15 26.333 -15 49z" />
    <glyph glyph-name="Iogonek" unicode="&#x12e;" horiz-adv-x="318" 
d="M42 0l-0.000976562 86.001h69v534h-69v86h233v-86h-68v-534h68v-86c-42.667 -36 -64 -65.667 -64 -89c0 -11.333 4.66699 -20.5 14 -27.5s18.666 -11.5 27.999 -13.5l14 -2l-23 -75c-3.33301 0 -7.5 0.5 -12.5 1.5s-14.167 3.5 -27.5 7.5s-25.166 9.16699 -35.499 15.5
s-19.666 15.666 -27.999 27.999s-12.5 26.5 -12.5 42.5c0 39.333 21.333 76 64 110v2h-150z" />
    <glyph glyph-name="iogonek" unicode="&#x12f;" horiz-adv-x="265" 
d="M86 605v101h87v-101h-87zM84 81l-0.000976562 320.001c0 14.667 -7.33301 22 -22 22h-41v83h95c22.667 0 39.167 -5 49.5 -15s15.5 -26.333 15.5 -49v-337c0 -14.667 7.33301 -22 22 -22h41v-83c-42.667 -34.667 -64 -64.334 -64 -89.001
c0 -11.333 4.66699 -20.5 14 -27.5s18.666 -11.5 27.999 -13.5l13 -2l-23 -75c-3.33301 0 -7.5 0.5 -12.5 1.5s-14.167 3.5 -27.5 7.5s-25.166 9.16699 -35.499 15.5s-19.666 15.666 -27.999 27.999s-12.5 26.5 -12.5 42.5c0 40.667 21.667 77.334 65 110.001v2h-20
c-38 0 -57 27 -57 81z" />
    <glyph glyph-name="Idotaccent" unicode="&#x130;" horiz-adv-x="318" 
d="M42 0v86h69v534h-69v86h233v-86h-68v-534h68v-86h-233zM114 781v101h87v-101h-87z" />
    <glyph glyph-name="dotlessi" unicode="&#x131;" horiz-adv-x="265" 
d="M84 64v337c0 14.667 -7.33301 22 -22 22h-41v83h95c22.667 0 39.167 -5 49.5 -15s15.5 -26.333 15.5 -49v-337c0 -14.667 7.33301 -22 22 -22h41v-83h-96c-22.667 0 -39 5 -49 15s-15 26.333 -15 49z" />
    <glyph glyph-name="IJ" unicode="&#x132;" horiz-adv-x="675" 
d="M364 -5l-0.000976562 91.0049c16.667 0 32.167 2 46.5 6s28.833 11.167 43.5 21.5s26.334 26.166 35.001 47.499s13 47.666 13 78.999v358c0 14.667 -7.33301 22 -22 22h-112v86h170c22.667 0 39 -5 49 -15s15 -26.333 15 -49v-403c0 -48.667 -7 -89.834 -21 -123.501
s-33.333 -58.834 -58 -75.501s-49.667 -28.334 -75 -35.001s-53.333 -10 -84 -10zM41.999 0.00488281v86h69v534h-69v86h233v-86h-68v-534h68v-86h-233z" />
    <glyph glyph-name="ij" unicode="&#x133;" horiz-adv-x="509" 
d="M86 605v101h87v-101h-87zM84 64v337c0 14.667 -7.33301 22 -22 22h-41v83h95c22.667 0 39.167 -5 49.5 -15s15.5 -26.333 15.5 -49v-337c0 -14.667 7.33301 -22 22 -22h41v-83h-96c-22.667 0 -39 5 -49 15s-15 26.333 -15 49zM350 605v101h87v-101h-87zM348 -11
l0.00195312 411.999c0 14.667 -7.33301 22 -22 22h-41v83h96c22.667 0 39 -5 49 -15s15 -26.333 15 -49v-459c0 -32 -4.83301 -60 -14.5 -84s-21.334 -42.5 -35.001 -55.5s-30 -23.5 -49 -31.5s-35.833 -13 -50.5 -15s-29.667 -3 -45 -3l-34 2v83
c6 -0.666992 13.333 -1 22 -1c12 0 23.333 1.33301 34 4s22.167 7.33398 34.5 14.001s22.166 18 29.499 34s11 35.667 11 59z" />
    <glyph glyph-name="Jcircumflex" unicode="&#x134;" horiz-adv-x="511" 
d="M151 755l87 127h89l88 -127h-79l-52 80h-2l-53 -80h-78zM16 203v34.999h100v-27c0 -45.333 10.833 -78.166 32.5 -98.499s48.167 -30.5 79.5 -30.5c30.667 0 56.667 10.167 78 30.5s32 51.833 32 94.5v391c0 14.667 -7.33301 22 -22 22h-173v86h230
c22.667 0 39.167 -5 49.5 -15s15.5 -26.333 15.5 -49v-439c0 -71.333 -20.667 -125 -62 -161s-91 -54 -149 -54s-107.667 18.167 -149 54.5s-62 89.833 -62 160.5z" />
    <glyph glyph-name="jcircumflex" unicode="&#x135;" horiz-adv-x="243" 
d="M-27 579l88 127h88l88 -127h-79l-53 82l-53 -82h-79zM84 -12v416c0 14.667 -8.33301 22 -25 22h-38v80h93c23.333 0 40 -4.16699 50 -12.5s15 -23.5 15 -45.5v-465c0 -32 -4.83301 -60 -14.5 -84s-21.167 -42.5 -34.5 -55.5s-29.5 -23.5 -48.5 -31.5s-35.667 -13 -50 -15
s-29.166 -3 -44.499 -3l-34 2v81c6 -0.666992 13.333 -1 22 -1c12 0 23.333 1.33301 34 4s22.167 7.5 34.5 14.5s22.166 18.5 29.499 34.5s11 35.667 11 59z" />
    <glyph glyph-name="Kcommaaccent" unicode="&#x136;" horiz-adv-x="612" 
d="M280 -59h79c4 -18 6 -34.333 6 -49c0 -27.333 -8 -58 -24 -92h-69c12.667 32.667 19 60 19 82c0 19.333 -3.66699 39 -11 59zM99 0l0.00195312 598.002c0 14.667 -7.33301 22 -22 22h-43v86h101c22.667 0 39 -5 49 -15s15 -26.333 15 -49v-233h67
c29.333 0 48.666 8 57.999 24l157 273h112l-171 -293c-6 -10.667 -12.333 -19.834 -19 -27.501s-11.667 -12.834 -15 -15.501l-6 -3v-2c13.333 -3.33301 26.666 -18 39.999 -44l106 -212c7.33301 -15.333 24 -23 50 -23h19v-86h-55c-28.667 -0 -49.5 3.33301 -62.5 10
s-24.833 21 -35.5 43l-122 245c-9.33301 17.333 -30.333 26 -63 26h-60v-324h-100z" />
    <glyph glyph-name="kcommaaccent" unicode="&#x137;" horiz-adv-x="513" 
d="M224 -59h79c4 -18 6 -34.333 6 -49c0 -27.333 -8 -58 -24 -92h-69c12.667 32.667 19 60 19 82c0 19.333 -3.66699 39 -11 59zM67 0l0.000976562 600.999c0 14.667 -7.33301 22 -22 22h-41v83h95c23.333 0 40 -4.16699 50 -12.5s15 -23.5 15 -45.5v-328h45
c24 0 41.333 7.33301 52 22l117 164h112l-138 -188c-6.66699 -9.33301 -13.167 -17.166 -19.5 -23.499s-11.166 -10.5 -14.499 -12.5l-4 -2v-2c11.333 -4 22.666 -16.667 33.999 -38l75 -137c7.33301 -13.333 22 -20 44 -20h30v-83h-70c-23.333 0 -40.333 3 -51 9
s-21.334 18.667 -32.001 38l-93 170c-7.33301 14 -24 21 -50 21h-37v-238h-97z" />
    <glyph glyph-name="kgreenlandic" unicode="&#x138;" horiz-adv-x="529" 
d="M85 0v401c0 14.667 -7.33301 22 -22 22h-41v83h96c23.333 0 39.833 -4.16699 49.5 -12.5s14.5 -23.5 14.5 -45.5v-148h45c25.333 0 43 7 53 21l122 185h110l-143 -207c-6.66699 -9.33301 -13 -17 -19 -23s-10.333 -10 -13 -12l-4 -2v-2c10 -4 20.667 -17 32 -39l65 -118
c7.33301 -13.333 22 -20 44 -20h35v-83h-74c-23.333 0 -40.5 3 -51.5 9s-21.833 18.667 -32.5 38l-82 150c-6.66699 13.333 -23 20 -49 20h-38v-217h-97z" />
    <glyph glyph-name="Lacute" unicode="&#x139;" horiz-adv-x="541" 
d="M118 755l73 127h98l-95 -127h-76zM98 64v534c0 14.667 -7.33301 22 -22 22h-43v86h101c22.667 0 39 -5 49 -15s15 -26.333 15 -49v-534c0 -14.667 7.33301 -22 22 -22h196c14.667 0 22 7.33301 22 22v45h91v-89c0 -22.667 -5 -39 -15 -49s-26.333 -15 -49 -15h-302
c-22.667 0 -39.167 5 -49.5 15s-15.5 26.333 -15.5 49z" />
    <glyph glyph-name="lacute" unicode="&#x13a;" horiz-adv-x="249" 
d="M64 755l73 127h98l-95 -127h-76zM67 64v537c0 14.667 -7.33301 22 -22 22h-40v83h95c22.667 0 39 -5 49 -15s15 -26.333 15 -49v-537c0 -14.667 7.33301 -22 22 -22h41v-83h-95c-22.667 0 -39.167 5 -49.5 15s-15.5 26.333 -15.5 49z" />
    <glyph glyph-name="Lcommaaccent" unicode="&#x13b;" horiz-adv-x="541" 
d="M270 -59h79c4 -18 6 -34.333 6 -49c0 -27.333 -8 -58 -24 -92h-69c12.667 32.667 19 60 19 82c0 19.333 -3.66699 39 -11 59zM98 64v534c0 14.667 -7.33301 22 -22 22h-43v86h101c22.667 0 39 -5 49 -15s15 -26.333 15 -49v-534c0 -14.667 7.33301 -22 22 -22h196
c14.667 0 22 7.33301 22 22v45h91v-89c0 -22.667 -5 -39 -15 -49s-26.333 -15 -49 -15h-302c-22.667 0 -39.167 5 -49.5 15s-15.5 26.333 -15.5 49z" />
    <glyph glyph-name="lcommaaccent" unicode="&#x13c;" horiz-adv-x="249" 
d="M89 -59h79c4 -18 6 -34.333 6 -49c0 -27.333 -8 -58 -24 -92h-69c12.667 32.667 19 60 19 82c0 19.333 -3.66699 39 -11 59zM67 64v537c0 14.667 -7.33301 22 -22 22h-40v83h95c22.667 0 39 -5 49 -15s15 -26.333 15 -49v-537c0 -14.667 7.33301 -22 22 -22h41v-83h-95
c-22.667 0 -39.167 5 -49.5 15s-15.5 26.333 -15.5 49z" />
    <glyph glyph-name="Lcaron" unicode="&#x13d;" horiz-adv-x="542" 
d="M283 706h79c4 -18 6 -34.333 6 -49c0 -27.333 -8 -58 -24 -92h-69c12.667 32.667 19 60 19 82c0 19.333 -3.66699 39 -11 59zM98 64v534c0 14.667 -7.33301 22 -22 22h-43v86h101c22.667 0 39 -5 49 -15s15 -26.333 15 -49v-534c0 -14.667 7.33301 -22 22 -22h196
c14.667 0 22 7.33301 22 22v45h91v-89c0 -22.667 -5 -39 -15 -49s-26.333 -15 -49 -15h-302c-22.667 0 -39.167 5 -49.5 15s-15.5 26.333 -15.5 49z" />
    <glyph glyph-name="lcaron" unicode="&#x13e;" horiz-adv-x="249" 
d="M220 706h79c4 -18 6 -34.333 6 -49c0 -27.333 -8 -58 -24 -92h-69c12.667 32.667 19 60 19 82c0 19.333 -3.66699 39 -11 59zM67 64v537c0 14.667 -7.33301 22 -22 22h-40v83h95c22.667 0 39 -5 49 -15s15 -26.333 15 -49v-537c0 -14.667 7.33301 -22 22 -22h41v-83h-95
c-22.667 0 -39.167 5 -49.5 15s-15.5 26.333 -15.5 49z" />
    <glyph glyph-name="Ldot" unicode="&#x13f;" horiz-adv-x="542" 
d="M98 64v534c0 14.667 -7.33301 22 -22 22h-43v86h101c22.667 0 39 -5 49 -15s15 -26.333 15 -49v-534c0 -14.667 7.33301 -22 22 -22h196c14.667 0 22 7.33301 22 22v45h91v-89c0 -22.667 -5 -39 -15 -49s-26.333 -15 -49 -15h-302c-22.667 0 -39.167 5 -49.5 15
s-15.5 26.333 -15.5 49zM310 327v103h99v-103h-99z" />
    <glyph glyph-name="ldot" unicode="&#x140;" horiz-adv-x="340" 
d="M67 64v537c0 14.667 -7.33301 22 -22 22h-40v83h95c22.667 0 39 -5 49 -15s15 -26.333 15 -49v-537c0 -14.667 7.33301 -22 22 -22h41v-83h-95c-22.667 0 -39.167 5 -49.5 15s-15.5 26.333 -15.5 49zM235 327v103h99v-103h-99z" />
    <glyph glyph-name="Lslash" unicode="&#x141;" horiz-adv-x="544" 
d="M101 64v239l-63 -36v97l63 36v198c0 14.667 -7.33301 22 -22 22h-43v86h101c22.667 0 39 -5 49 -15s15 -26.333 15 -49v-185l104 60v-97l-104 -60v-252c0 -14.667 7.33301 -22 22 -22h195c14.667 0 22 7.33301 22 22v45h92v-89c0 -22.667 -5.16699 -39 -15.5 -49
s-26.833 -15 -49.5 -15h-302c-22.667 0 -39 5 -49 15s-15 26.333 -15 49z" />
    <glyph glyph-name="lslash" unicode="&#x142;" horiz-adv-x="264" 
d="M79 64v257l-75 -43v97l75 44v182c0 14.667 -7.33301 22 -22 22h-41v83h96c22.667 0 39 -5 49 -15s15 -26.333 15 -49v-168l78 45v-97l-78 -46v-271c0 -14.667 7.33301 -22 22 -22h41v-83h-96c-22.667 0 -39 5 -49 15s-15 26.333 -15 49z" />
    <glyph glyph-name="Nacute" unicode="&#x143;" horiz-adv-x="757" 
d="M349 755l73 127h98l-95 -127h-76zM34 0v86h43c14.667 0 22 7.33301 22 22v598h91l314 -447l59 -96h2c-4.66699 38 -7 70 -7 96v383c0 22.667 5.16699 39 15.5 49s26.833 15 49.5 15h100v-86h-43c-14.667 0 -22 -7.33301 -22 -22v-598h-90l-315 447l-58 96h-2
c4 -38 6 -70 6 -96v-383c0 -22.667 -5 -39 -15 -49s-26.333 -15 -49 -15h-101z" />
    <glyph glyph-name="nacute" unicode="&#x144;" horiz-adv-x="623" 
d="M283 580l73 127h98l-95 -127h-76zM85 0l0.00195312 401c0 14.667 -7.33301 22 -22 22h-41v83h93c42.667 0 64 -18.667 64 -56v-19l-2 -29h2c13.333 28.667 36.166 55.167 68.499 79.5s73.166 36.5 122.499 36.5c115.333 0 173 -64.667 173 -194v-219
c0 -14.667 7.33301 -22 22 -22h41v-83h-96c-22.667 0 -39 5 -49 15s-15 26.333 -15 49v238c0 40.667 -6.5 72 -19.5 94s-38.167 33 -75.5 33c-38 0 -71.5 -11.5 -100.5 -34.5s-48.833 -52.833 -59.5 -89.5c-6 -17.333 -9 -40 -9 -68v-237h-97z" />
    <glyph glyph-name="Ncommaaccent" unicode="&#x145;" horiz-adv-x="757" 
d="M335 -59h79c4 -18 6 -34.333 6 -49c0 -27.333 -8 -58 -24 -92h-69c12.667 32.667 19 60 19 82c0 19.333 -3.66699 39 -11 59zM34 0v86h43c14.667 0 22 7.33301 22 22v598h91l314 -447l59 -96h2c-4.66699 38 -7 70 -7 96v383c0 22.667 5.16699 39 15.5 49
s26.833 15 49.5 15h100v-86h-43c-14.667 0 -22 -7.33301 -22 -22v-598h-90l-315 447l-58 96h-2c4 -38 6 -70 6 -96v-383c0 -22.667 -5 -39 -15 -49s-26.333 -15 -49 -15h-101z" />
    <glyph glyph-name="ncommaaccent" unicode="&#x146;" horiz-adv-x="623" 
d="M284 -59h79c4 -18 6 -34.333 6 -49c0 -27.333 -8 -58 -24 -92h-69c12.667 32.667 19 60 19 82c0 19.333 -3.66699 39 -11 59zM85 0l0.00195312 401c0 14.667 -7.33301 22 -22 22h-41v83h93c42.667 0 64 -18.667 64 -56v-19l-2 -29h2
c13.333 28.667 36.166 55.167 68.499 79.5s73.166 36.5 122.499 36.5c115.333 0 173 -64.667 173 -194v-219c0 -14.667 7.33301 -22 22 -22h41v-83h-96c-22.667 0 -39 5 -49 15s-15 26.333 -15 49v238c0 40.667 -6.5 72 -19.5 94s-38.167 33 -75.5 33
c-38 0 -71.5 -11.5 -100.5 -34.5s-48.833 -52.833 -59.5 -89.5c-6 -17.333 -9 -40 -9 -68v-237h-97z" />
    <glyph glyph-name="Ncaron" unicode="&#x147;" horiz-adv-x="757" 
d="M344 755l-88 127h79l52 -81h2l52 81h80l-88 -127h-89zM34 0v86h43c14.667 0 22 7.33301 22 22v598h91l314 -447l59 -96h2c-4.66699 38 -7 70 -7 96v383c0 22.667 5.16699 39 15.5 49s26.833 15 49.5 15h100v-86h-43c-14.667 0 -22 -7.33301 -22 -22v-598h-90l-315 447
l-58 96h-2c4 -38 6 -70 6 -96v-383c0 -22.667 -5 -39 -15 -49s-26.333 -15 -49 -15h-101z" />
    <glyph glyph-name="ncaron" unicode="&#x148;" horiz-adv-x="623" 
d="M278 580l-88 127h79l52 -81h2l52 81h80l-88 -127h-89zM85 0l0.00195312 401c0 14.667 -7.33301 22 -22 22h-41v83h93c42.667 0 64 -18.667 64 -56v-19l-2 -29h2c13.333 28.667 36.166 55.167 68.499 79.5s73.166 36.5 122.499 36.5c115.333 0 173 -64.667 173 -194v-219
c0 -14.667 7.33301 -22 22 -22h41v-83h-96c-22.667 0 -39 5 -49 15s-15 26.333 -15 49v238c0 40.667 -6.5 72 -19.5 94s-38.167 33 -75.5 33c-38 0 -71.5 -11.5 -100.5 -34.5s-48.833 -52.833 -59.5 -89.5c-6 -17.333 -9 -40 -9 -68v-237h-97z" />
    <glyph glyph-name="napostrophe" unicode="&#x149;" horiz-adv-x="623" 
d="M-33 706h79c4 -18 6 -34.333 6 -49c0 -27.333 -8 -58 -24 -92h-69c12.667 32.667 19 60 19 82c0 19.333 -3.66699 39 -11 59zM85 0l0.00195312 401c0 14.667 -7.33301 22 -22 22h-41v83h93c42.667 0 64 -18.667 64 -56v-19l-2 -29h2
c13.333 28.667 36.166 55.167 68.499 79.5s73.166 36.5 122.499 36.5c115.333 0 173 -64.667 173 -194v-219c0 -14.667 7.33301 -22 22 -22h41v-83h-96c-22.667 0 -39 5 -49 15s-15 26.333 -15 49v238c0 40.667 -6.5 72 -19.5 94s-38.167 33 -75.5 33
c-38 0 -71.5 -11.5 -100.5 -34.5s-48.833 -52.833 -59.5 -89.5c-6 -17.333 -9 -40 -9 -68v-237h-97z" />
    <glyph glyph-name="Eng" unicode="&#x14a;" horiz-adv-x="757" 
d="M34 0l-0.000976562 86.002h43c14.667 0 22 7.33301 22 22v598h91l314 -447l59 -96h2c-4.66699 38 -7 70 -7 96v383c0 22.667 5.16699 39 15.5 49s26.833 15 49.5 15h100v-86h-43c-14.667 0 -22 -7.33301 -22 -22v-571c0 -43.333 -6.83301 -80.833 -20.5 -112.5
s-32.167 -55.834 -55.5 -72.501s-47.833 -28.667 -73.5 -36s-53.167 -11 -82.5 -11v91c32.667 0 62.834 10.167 90.501 30.5s41.5 51.166 41.5 92.499v7l-305 431l-58 96h-2c4 -38 6 -70 6 -96v-383c0 -22.667 -5 -39 -15 -49s-26.333 -15 -49 -15h-101z" />
    <glyph glyph-name="eng" unicode="&#x14b;" horiz-adv-x="600" 
d="M85 0l0.00390625 401c0 14.667 -7.33301 22 -22 22h-41v83h93c42.667 0 64 -18.667 64 -56v-19l-2 -29h2c13.333 28.667 36.166 55.167 68.499 79.5s73.166 36.5 122.499 36.5c115.333 0 173 -64.667 173 -194v-344c0 -32 -4.83301 -60 -14.5 -84
s-21.334 -42.5 -35.001 -55.5s-30 -23.5 -49 -31.5s-35.833 -13 -50.5 -15s-29.667 -3 -45 -3l-34 2v83c6 -0.666992 13.333 -1 22 -1c12 0 23.333 1.33301 34 4s22.167 7.5 34.5 14.5s22.166 18.5 29.499 34.5s11 35.667 11 59v315c0 40.667 -6.5 72 -19.5 94
s-38.167 33 -75.5 33c-38 0 -71.667 -11.667 -101 -35s-49.333 -53.333 -60 -90c-5.33301 -18 -8 -40.333 -8 -67v-237h-97z" />
    <glyph glyph-name="Omacron" unicode="&#x14c;" horiz-adv-x="793" 
d="M267 784v68h254v-68h-254zM34 358c0 101.333 34.833 186.666 104.5 255.999s155.5 104 257.5 104s188 -34.667 258 -104s105 -154.666 105 -255.999c0 -104 -35 -191.667 -105 -263s-156 -107 -258 -107s-187.833 35.667 -257.5 107s-104.5 159 -104.5 263zM138 358
c0 -77.333 25 -142.666 75 -195.999s111 -80 183 -80s133.167 26.667 183.5 80s75.5 118.666 75.5 195.999c0 75.333 -25.167 138.666 -75.5 189.999s-111.5 77 -183.5 77s-133 -25.667 -183 -77s-75 -114.666 -75 -189.999z" />
    <glyph glyph-name="omacron" unicode="&#x14d;" horiz-adv-x="611" 
d="M178 609v68h254v-68h-254zM33 254c0 76 26.332 139 78.999 189s117 75 193 75c76.667 0 141.334 -25 194.001 -75s79 -113 79 -189s-26.5 -139.333 -79.5 -190s-117.5 -76 -193.5 -76s-140.333 25.333 -193 76s-79 114 -79 190zM130.999 254c0 -52 17 -95.333 51 -130
s75 -52 123 -52c48.667 0 89.834 17.167 123.501 51.5s50.5 77.833 50.5 130.5c0 52 -16.833 95 -50.5 129s-74.834 51 -123.501 51c-48 0 -89 -17 -123 -51s-51 -77 -51 -129z" />
    <glyph glyph-name="Obreve" unicode="&#x14e;" horiz-adv-x="793" 
d="M34 358c0 101.333 34.833 186.666 104.5 255.999s155.5 104 257.5 104s188 -34.667 258 -104s105 -154.666 105 -255.999c0 -104 -35 -191.667 -105 -263s-156 -107 -258 -107s-187.833 35.667 -257.5 107s-104.5 159 -104.5 263zM138 358
c0 -77.333 25 -142.666 75 -195.999s111 -80 183 -80s133.167 26.667 183.5 80s75.5 118.666 75.5 195.999c0 75.333 -25.167 138.666 -75.5 189.999s-111.5 77 -183.5 77s-133 -25.667 -183 -77s-75 -114.666 -75 -189.999zM393 751c-34 0 -63.833 10.333 -89.5 31
s-38.5 49.334 -38.5 86.001v14h67v-13c0 -20 6 -35 18 -45s26.333 -15 43 -15c17.333 0 32 5.16699 44 15.5s18 25.5 18 45.5v12h66v-14c0 -36.667 -12.667 -65.334 -38 -86.001s-55.333 -31 -90 -31z" />
    <glyph glyph-name="obreve" unicode="&#x14f;" horiz-adv-x="611" 
d="M33 254c0 76 26.332 139 78.999 189s117 75 193 75c76.667 0 141.334 -25 194.001 -75s79 -113 79 -189s-26.5 -139.333 -79.5 -190s-117.5 -76 -193.5 -76s-140.333 25.333 -193 76s-79 114 -79 190zM130.999 254c0 -52 17 -95.333 51 -130s75 -52 123 -52
c48.667 0 89.834 17.167 123.501 51.5s50.5 77.833 50.5 130.5c0 52 -16.833 95 -50.5 129s-74.834 51 -123.501 51c-48 0 -89 -17 -123 -51s-51 -77 -51 -129zM304.999 576c-34 0 -63.833 10.333 -89.5 31s-38.5 49.334 -38.5 86.001v14h67v-13c0 -20 6 -35 18 -45
s26.333 -15 43 -15c17.333 0 32 5.16699 44 15.5s18 25.5 18 45.5v12h66v-14c0 -36.667 -12.667 -65.334 -38 -86.001s-55.333 -31 -90 -31z" />
    <glyph glyph-name="Ohungarumlaut" unicode="&#x150;" horiz-adv-x="793" 
d="M428 755l72 127h99l-96 -127h-75zM275 755l69 127h84l-70 -127h-83zM34 358c0 101.333 34.833 186.666 104.5 255.999s155.5 104 257.5 104s188 -34.667 258 -104s105 -154.666 105 -255.999c0 -104 -35 -191.667 -105 -263s-156 -107 -258 -107
s-187.833 35.667 -257.5 107s-104.5 159 -104.5 263zM138 358c0 -77.333 25 -142.666 75 -195.999s111 -80 183 -80s133.167 26.667 183.5 80s75.5 118.666 75.5 195.999c0 75.333 -25.167 138.666 -75.5 189.999s-111.5 77 -183.5 77s-133 -25.667 -183 -77
s-75 -114.666 -75 -189.999z" />
    <glyph glyph-name="ohungarumlaut" unicode="&#x151;" horiz-adv-x="611" 
d="M340 580l72 127h99l-96 -127h-75zM187 580l69 127h84l-70 -127h-83zM33 254c0 76 26.332 139 78.999 189s117 75 193 75c76.667 0 141.334 -25 194.001 -75s79 -113 79 -189s-26.5 -139.333 -79.5 -190s-117.5 -76 -193.5 -76s-140.333 25.333 -193 76s-79 114 -79 190z
M130.999 254c0 -52 17 -95.333 51 -130s75 -52 123 -52c48.667 0 89.834 17.167 123.501 51.5s50.5 77.833 50.5 130.5c0 52 -16.833 95 -50.5 129s-74.834 51 -123.501 51c-48 0 -89 -17 -123 -51s-51 -77 -51 -129z" />
    <glyph glyph-name="OE" unicode="&#x152;" horiz-adv-x="938" 
d="M34 354c0 102 33.332 187.667 99.999 257s149.334 104 248.001 104c19.333 0 45 -1.5 77 -4.5s54 -4.5 66 -4.5h290c22.667 0 39 -5 49 -15s15 -26.333 15 -49v-89h-91v45c0 14.667 -7.33301 22 -22 22h-195v-221h241v-86h-241v-227h222c14.667 0 22 7.33301 22 22v45h92
v-89c0 -22.667 -4.83301 -39 -14.5 -49s-25.167 -15 -46.5 -15h-320c-12 0 -34.167 -1.5 -66.5 -4.5s-58.166 -4.5 -77.499 -4.5c-98.667 0 -181.334 35 -248.001 105s-100 156 -100 258zM138.999 354c0 -78 22.5 -142.5 67.5 -193.5s103.5 -76.5 175.5 -76.5
c36 0 65.667 2.66699 89 8v522c-23.333 5.33301 -53 8 -89 8c-72 0 -130.5 -25.333 -175.5 -76s-67.5 -114.667 -67.5 -192z" />
    <glyph glyph-name="oe" unicode="&#x153;" horiz-adv-x="988" 
d="M33 252c0 78 26.167 141.831 78.5 191.498s116.5 74.5 192.5 74.5c49.333 0 93 -10.667 131 -32s68.333 -50.666 91 -87.999h2c42 80 111.667 120 209 120c68.667 0 122.167 -22.5 160.5 -67.5s57.5 -101.5 57.5 -169.5l-3 -41h-370c4 -54 22.5 -95.5 55.5 -124.5
s72.833 -43.5 119.5 -43.5c26 0 51.333 5 76 15s43 20 55 30l17 15l42 -70c-6 -5.33301 -14.167 -12.166 -24.5 -20.499s-32.5 -19.333 -66.5 -33s-68.667 -20.5 -104 -20.5c-102.667 0 -176.667 41 -222 123h-2c-48 -82 -122.667 -123 -224 -123
c-76 0 -140.167 24.5 -192.5 73.5s-78.5 112.5 -78.5 190.5zM587 310.998h268c-2 40.667 -14 72.5 -36 95.5s-49.667 34.5 -83 34.5c-38.667 0 -71.5 -11.333 -98.5 -34s-43.833 -54.667 -50.5 -96zM131 251.998c0 -53.333 16.833 -96.668 50.5 -130.001s74.5 -50 122.5 -50
c48.667 0 90 16.833 124 50.5s51 77.834 51 132.501c0 52.667 -17.167 95.667 -51.5 129s-75.5 50 -123.5 50s-88.833 -16.833 -122.5 -50.5s-50.5 -77.5 -50.5 -131.5z" />
    <glyph glyph-name="Racute" unicode="&#x154;" horiz-adv-x="622" 
d="M243 755l73 127h98l-95 -127h-76zM98 0v619.998h-65v86h309c62.667 0 113.5 -18.667 152.5 -56s58.5 -87.666 58.5 -150.999c0 -53.333 -13.667 -96.166 -41 -128.499s-56.333 -51.833 -87 -58.5v-2c12 -6 22 -16.667 30 -32l85 -169c8 -15.333 25 -23 51 -23h13v-86h-49
c-29.333 -0 -50.333 3.33301 -63 10s-24.667 21 -36 43l-96 190c-8 16 -16.5 26.333 -25.5 31s-23.5 7 -43.5 7h-93v-281h-100zM198 366.998h130.999c38 0 67.667 11.333 89 34s32 54 32 94c0 39.333 -10.667 70 -32 92s-50.666 33 -87.999 33h-132v-253z" />
    <glyph glyph-name="racute" unicode="&#x155;" horiz-adv-x="376" 
d="M160 580l73 127h98l-95 -127h-76zM85 0l0.000976562 400.999c0 14.667 -7.33301 22 -22 22h-41v83h93c42.667 0 64 -19.667 64 -59v-32l-2 -35h2c12.667 38.667 33.167 70.334 61.5 95.001s61.166 37 98.499 37l26 -2v-96c-8.66699 2 -18 3 -28 3
c-32 0 -60.833 -10.5 -86.5 -31.5s-44.5 -50.167 -56.5 -87.5c-8 -26 -12 -56.333 -12 -91v-207h-97z" />
    <glyph glyph-name="Rcommaaccent" unicode="&#x156;" horiz-adv-x="622" 
d="M296 -59h79c4 -18 6 -34.333 6 -49c0 -27.333 -8 -58 -24 -92h-69c12.667 32.667 19 60 19 82c0 19.333 -3.66699 39 -11 59zM98 0v619.998h-65v86h309c62.667 0 113.5 -18.667 152.5 -56s58.5 -87.666 58.5 -150.999c0 -53.333 -13.667 -96.166 -41 -128.499
s-56.333 -51.833 -87 -58.5v-2c12 -6 22 -16.667 30 -32l85 -169c8 -15.333 25 -23 51 -23h13v-86h-49c-29.333 -0 -50.333 3.33301 -63 10s-24.667 21 -36 43l-96 190c-8 16 -16.5 26.333 -25.5 31s-23.5 7 -43.5 7h-93v-281h-100zM198 366.998h130.999
c38 0 67.667 11.333 89 34s32 54 32 94c0 39.333 -10.667 70 -32 92s-50.666 33 -87.999 33h-132v-253z" />
    <glyph glyph-name="rcommaaccent" unicode="&#x157;" horiz-adv-x="376" 
d="M98 -59h79c4 -18 6 -34.333 6 -49c0 -27.333 -8 -58 -24 -92h-69c12.667 32.667 19 60 19 82c0 19.333 -3.66699 39 -11 59zM85 0l0.000976562 400.999c0 14.667 -7.33301 22 -22 22h-41v83h93c42.667 0 64 -19.667 64 -59v-32l-2 -35h2
c12.667 38.667 33.167 70.334 61.5 95.001s61.166 37 98.499 37l26 -2v-96c-8.66699 2 -18 3 -28 3c-32 0 -60.833 -10.5 -86.5 -31.5s-44.5 -50.167 -56.5 -87.5c-8 -26 -12 -56.333 -12 -91v-207h-97z" />
    <glyph glyph-name="Rcaron" unicode="&#x158;" horiz-adv-x="622" 
d="M238 755l-88 127h79l52 -81h2l52 81h80l-88 -127h-89zM98 0v619.998h-65v86h309c62.667 0 113.5 -18.667 152.5 -56s58.5 -87.666 58.5 -150.999c0 -53.333 -13.667 -96.166 -41 -128.499s-56.333 -51.833 -87 -58.5v-2c12 -6 22 -16.667 30 -32l85 -169
c8 -15.333 25 -23 51 -23h13v-86h-49c-29.333 -0 -50.333 3.33301 -63 10s-24.667 21 -36 43l-96 190c-8 16 -16.5 26.333 -25.5 31s-23.5 7 -43.5 7h-93v-281h-100zM198 366.998h130.999c38 0 67.667 11.333 89 34s32 54 32 94c0 39.333 -10.667 70 -32 92
s-50.666 33 -87.999 33h-132v-253z" />
    <glyph glyph-name="rcaron" unicode="&#x159;" horiz-adv-x="376" 
d="M155 580l-88 127h79l52 -81h2l52 81h80l-88 -127h-89zM85 0l0.000976562 400.999c0 14.667 -7.33301 22 -22 22h-41v83h93c42.667 0 64 -19.667 64 -59v-32l-2 -35h2c12.667 38.667 33.167 70.334 61.5 95.001s61.166 37 98.499 37l26 -2v-96c-8.66699 2 -18 3 -28 3
c-32 0 -60.833 -10.5 -86.5 -31.5s-44.5 -50.167 -56.5 -87.5c-8 -26 -12 -56.333 -12 -91v-207h-97z" />
    <glyph glyph-name="Sacute" unicode="&#x15a;" horiz-adv-x="525" 
d="M228 755l73 127h98l-95 -127h-76zM29 93l57.9971 71.0029c2 -2 4.83301 -5 8.5 -9s11.667 -10.833 24 -20.5s25 -18.334 38 -26.001s29.333 -14.5 49 -20.5s39.167 -9 58.5 -9c33.333 0 61.666 9.66699 84.999 29s35 44.666 35 75.999c0 26.667 -11.667 50 -35 70
s-51.666 37.333 -84.999 52s-66.666 30.5 -99.999 47.5s-61.666 40.333 -84.999 70s-35 64.834 -35 105.501c0 54 21.167 99 63.5 135s96.5 54 162.5 54c28.667 0 57.334 -3.83301 86.001 -11.5s54.834 -21.834 78.501 -42.501s35.5 -46 35.5 -76v-58h-92v33
c0 18 -10.833 33.167 -32.5 45.5s-47.167 18.5 -76.5 18.5c-36.667 0 -66.5 -9 -89.5 -27s-34.5 -40.667 -34.5 -68c0 -22 8.5 -41.5 25.5 -58.5s38 -30.833 63 -41.5s52.333 -23.167 82 -37.5s57 -29 82 -44s46 -36.5 63 -64.5s25.5 -60.333 25.5 -97
c0 -56 -20.333 -103.5 -61 -142.5s-95 -58.5 -163 -58.5c-28 0 -55.333 3.66699 -82 11s-48.667 16 -66 26s-32.833 20.167 -46.5 30.5s-23.834 19.166 -30.501 26.499z" />
    <glyph glyph-name="sacute" unicode="&#x15b;" horiz-adv-x="449" 
d="M187 580l73 127h98l-95 -127h-76zM28 77l49.0029 64.998c1.33301 -2 3.66602 -4.66699 6.99902 -8s10.166 -9.33301 20.499 -18s21 -16.334 32 -23.001s25.167 -12.667 42.5 -18s34.666 -8 51.999 -8c24.667 0 45.334 5.66699 62.001 17s25 27.333 25 48
c0 16.667 -9.5 31.334 -28.5 44.001s-42 24.167 -69 34.5s-53.833 21.833 -80.5 34.5s-49.5 30.167 -68.5 52.5s-28.5 48.5 -28.5 78.5c0 46 17.667 81.167 53 105.5s80.333 36.5 135 36.5c39.333 0 76.833 -7.83301 112.5 -23.5s53.5 -40.5 53.5 -74.5v-48h-87v25
c0 13.333 -8.16699 23.833 -24.5 31.5s-33.5 11.5 -51.5 11.5c-29.333 0 -52.5 -5.16699 -69.5 -15.5s-25.5 -25.166 -25.5 -44.499c0 -17.333 9.5 -32.5 28.5 -45.5s42.167 -24.333 69.5 -34s54.5 -20.5 81.5 -32.5s50 -29.167 69 -51.5s28.5 -49.166 28.5 -80.499
c0 -44.667 -17.5 -80.5 -52.5 -107.5s-79.5 -40.5 -133.5 -40.5c-25.333 0 -49.5 3 -72.5 9s-42 13.333 -57 22s-28.333 17.5 -40 26.5s-19.834 16.5 -24.501 22.5z" />
    <glyph glyph-name="Scircumflex" unicode="&#x15c;" horiz-adv-x="525" 
d="M136 755l87 127h89l88 -127h-79l-52 80h-2l-53 -80h-78zM29 93l57.9971 71.0029c2 -2 4.83301 -5 8.5 -9s11.667 -10.833 24 -20.5s25 -18.334 38 -26.001s29.333 -14.5 49 -20.5s39.167 -9 58.5 -9c33.333 0 61.666 9.66699 84.999 29s35 44.666 35 75.999
c0 26.667 -11.667 50 -35 70s-51.666 37.333 -84.999 52s-66.666 30.5 -99.999 47.5s-61.666 40.333 -84.999 70s-35 64.834 -35 105.501c0 54 21.167 99 63.5 135s96.5 54 162.5 54c28.667 0 57.334 -3.83301 86.001 -11.5s54.834 -21.834 78.501 -42.501
s35.5 -46 35.5 -76v-58h-92v33c0 18 -10.833 33.167 -32.5 45.5s-47.167 18.5 -76.5 18.5c-36.667 0 -66.5 -9 -89.5 -27s-34.5 -40.667 -34.5 -68c0 -22 8.5 -41.5 25.5 -58.5s38 -30.833 63 -41.5s52.333 -23.167 82 -37.5s57 -29 82 -44s46 -36.5 63 -64.5
s25.5 -60.333 25.5 -97c0 -56 -20.333 -103.5 -61 -142.5s-95 -58.5 -163 -58.5c-28 0 -55.333 3.66699 -82 11s-48.667 16 -66 26s-32.833 20.167 -46.5 30.5s-23.834 19.166 -30.501 26.499z" />
    <glyph glyph-name="scircumflex" unicode="&#x15d;" horiz-adv-x="449" 
d="M95 580l87 127h89l88 -127h-79l-52 80h-2l-53 -80h-78zM28 77l49.0029 64.998c1.33301 -2 3.66602 -4.66699 6.99902 -8s10.166 -9.33301 20.499 -18s21 -16.334 32 -23.001s25.167 -12.667 42.5 -18s34.666 -8 51.999 -8c24.667 0 45.334 5.66699 62.001 17
s25 27.333 25 48c0 16.667 -9.5 31.334 -28.5 44.001s-42 24.167 -69 34.5s-53.833 21.833 -80.5 34.5s-49.5 30.167 -68.5 52.5s-28.5 48.5 -28.5 78.5c0 46 17.667 81.167 53 105.5s80.333 36.5 135 36.5c39.333 0 76.833 -7.83301 112.5 -23.5s53.5 -40.5 53.5 -74.5v-48
h-87v25c0 13.333 -8.16699 23.833 -24.5 31.5s-33.5 11.5 -51.5 11.5c-29.333 0 -52.5 -5.16699 -69.5 -15.5s-25.5 -25.166 -25.5 -44.499c0 -17.333 9.5 -32.5 28.5 -45.5s42.167 -24.333 69.5 -34s54.5 -20.5 81.5 -32.5s50 -29.167 69 -51.5s28.5 -49.166 28.5 -80.499
c0 -44.667 -17.5 -80.5 -52.5 -107.5s-79.5 -40.5 -133.5 -40.5c-25.333 0 -49.5 3 -72.5 9s-42 13.333 -57 22s-28.333 17.5 -40 26.5s-19.834 16.5 -24.501 22.5z" />
    <glyph glyph-name="Scedilla" unicode="&#x15e;" horiz-adv-x="526" 
d="M30 93l58 71.0068c2 -2 4.83301 -5 8.5 -9s11.5 -10.833 23.5 -20.5s24.5 -18.334 37.5 -26.001s29.333 -14.5 49 -20.5s39.167 -9 58.5 -9c34 0 62.667 9.66699 86 29s35 44.666 35 75.999c0 22.667 -8.5 43.167 -25.5 61.5s-38 33.166 -63 44.499l-82 39
c-29.667 14.667 -57 29.667 -82 45s-46 36.333 -63 63s-25.5 57.334 -25.5 92.001c0 53.333 21.167 98.166 63.5 134.499s96.5 54.5 162.5 54.5c28.667 0 57.334 -3.83301 86.001 -11.5s55 -21.834 79 -42.501s36 -46 36 -76v-58h-92v33c0 18 -11 33.167 -33 45.5
s-47.333 18.5 -76 18.5c-37.333 0 -67.333 -9 -90 -27s-34 -40.667 -34 -68c0 -22 8.5 -41.5 25.5 -58.5s38 -30.833 63 -41.5s52.333 -23.167 82 -37.5s57 -29 82 -44s46 -36.5 63 -64.5s25.5 -60.333 25.5 -97c0 -53.333 -18.5 -99 -55.5 -137s-86.5 -59 -148.5 -63
l-8 -39c21.333 -2.66699 38.666 -10.334 51.999 -23.001s20 -29.334 20 -50.001c0 -28.667 -9.83301 -49.834 -29.5 -63.501s-43.834 -20.5 -72.501 -20.5c-9.33301 0 -18.666 0.5 -27.999 1.5s-16 2.16699 -20 3.5l-7 2v58c13.333 -4.66699 27.333 -7 42 -7
c32 0 48 10.333 48 31s-17.667 31 -53 31l-18 -1l20 78c-38.667 4 -74.667 14.667 -108 32s-57 33.333 -71 48z" />
    <glyph glyph-name="scedilla" unicode="&#x15f;" horiz-adv-x="450" 
d="M28 77l49.0039 65.0029c1.33301 -2 3.66602 -4.66699 6.99902 -8s10.166 -9.33301 20.499 -18s21 -16.334 32 -23.001s25.167 -12.667 42.5 -18s34.666 -8 51.999 -8c24.667 0 45.334 5.66699 62.001 17s25 27.333 25 48c0 16.667 -9.5 31.334 -28.5 44.001
s-42 24.167 -69 34.5s-53.833 21.833 -80.5 34.5s-49.5 30.167 -68.5 52.5s-28.5 48.5 -28.5 78.5c0 46 17.667 81.167 53 105.5s80.333 36.5 135 36.5c39.333 0 76.833 -7.83301 112.5 -23.5s53.5 -40.5 53.5 -74.5v-48h-87v25c0 13.333 -8.16699 23.833 -24.5 31.5
s-33.5 11.5 -51.5 11.5c-29.333 0 -52.5 -5.16699 -69.5 -15.5s-25.5 -25.166 -25.5 -44.499c0 -17.333 9.5 -32.5 28.5 -45.5s42.167 -24.333 69.5 -34s54.5 -20.5 81.5 -32.5s50 -29.167 69 -51.5s28.5 -49.166 28.5 -80.499c0 -42.667 -16.333 -77.334 -49 -104.001
s-74.334 -41.334 -125.001 -44.001l-8 -38c20.667 -2.66699 37.667 -10.334 51 -23.001s20 -29.334 20 -50.001c0 -28.667 -9.66699 -49.834 -29 -63.501s-43.666 -20.5 -72.999 -20.5c-9.33301 0 -18.5 0.5 -27.5 1.5s-15.833 2.16699 -20.5 3.5l-7 2v58
c13.333 -4.66699 27.666 -7 42.999 -7c31.333 0 47 10.333 47 31s-17.667 31 -53 31l-17 -1l20 79c-32 4.66699 -61.333 14.167 -88 28.5s-45.334 27.5 -56.001 39.5z" />
    <glyph glyph-name="Scaron" unicode="&#x160;" horiz-adv-x="525" 
d="M223 755l-88 127h79l52 -81h2l52 81h80l-88 -127h-89zM29 93l57.9971 71.0029c2 -2 4.83301 -5 8.5 -9s11.667 -10.833 24 -20.5s25 -18.334 38 -26.001s29.333 -14.5 49 -20.5s39.167 -9 58.5 -9c33.333 0 61.666 9.66699 84.999 29s35 44.666 35 75.999
c0 26.667 -11.667 50 -35 70s-51.666 37.333 -84.999 52s-66.666 30.5 -99.999 47.5s-61.666 40.333 -84.999 70s-35 64.834 -35 105.501c0 54 21.167 99 63.5 135s96.5 54 162.5 54c28.667 0 57.334 -3.83301 86.001 -11.5s54.834 -21.834 78.501 -42.501
s35.5 -46 35.5 -76v-58h-92v33c0 18 -10.833 33.167 -32.5 45.5s-47.167 18.5 -76.5 18.5c-36.667 0 -66.5 -9 -89.5 -27s-34.5 -40.667 -34.5 -68c0 -22 8.5 -41.5 25.5 -58.5s38 -30.833 63 -41.5s52.333 -23.167 82 -37.5s57 -29 82 -44s46 -36.5 63 -64.5
s25.5 -60.333 25.5 -97c0 -56 -20.333 -103.5 -61 -142.5s-95 -58.5 -163 -58.5c-28 0 -55.333 3.66699 -82 11s-48.667 16 -66 26s-32.833 20.167 -46.5 30.5s-23.834 19.166 -30.501 26.499z" />
    <glyph glyph-name="scaron" unicode="&#x161;" horiz-adv-x="449" 
d="M182 580l-88 127h79l52 -81h2l52 81h80l-88 -127h-89zM28 77l49.0029 64.998c1.33301 -2 3.66602 -4.66699 6.99902 -8s10.166 -9.33301 20.499 -18s21 -16.334 32 -23.001s25.167 -12.667 42.5 -18s34.666 -8 51.999 -8c24.667 0 45.334 5.66699 62.001 17
s25 27.333 25 48c0 16.667 -9.5 31.334 -28.5 44.001s-42 24.167 -69 34.5s-53.833 21.833 -80.5 34.5s-49.5 30.167 -68.5 52.5s-28.5 48.5 -28.5 78.5c0 46 17.667 81.167 53 105.5s80.333 36.5 135 36.5c39.333 0 76.833 -7.83301 112.5 -23.5s53.5 -40.5 53.5 -74.5v-48
h-87v25c0 13.333 -8.16699 23.833 -24.5 31.5s-33.5 11.5 -51.5 11.5c-29.333 0 -52.5 -5.16699 -69.5 -15.5s-25.5 -25.166 -25.5 -44.499c0 -17.333 9.5 -32.5 28.5 -45.5s42.167 -24.333 69.5 -34s54.5 -20.5 81.5 -32.5s50 -29.167 69 -51.5s28.5 -49.166 28.5 -80.499
c0 -44.667 -17.5 -80.5 -52.5 -107.5s-79.5 -40.5 -133.5 -40.5c-25.333 0 -49.5 3 -72.5 9s-42 13.333 -57 22s-28.333 17.5 -40 26.5s-19.834 16.5 -24.501 22.5z" />
    <glyph glyph-name="Tcommaaccent" unicode="&#x162;" horiz-adv-x="632" 
d="M266 0l-0.00195312 620.003h-141c-14.667 0 -22 -7.33301 -22 -22v-45h-90v93c0 22.667 4.33301 38.334 13 47.001s24.334 13 47.001 13h486c22.667 0 38.334 -4.33301 47.001 -13s13 -24.334 13 -47.001v-93h-89v45c0 14.667 -7.33301 22 -22 22h-142v-620h-24l-10 -50
c20.667 -2.66699 37.667 -10.334 51 -23.001s20 -29.334 20 -50.001c0 -28.667 -9.66699 -49.834 -29 -63.501s-43.333 -20.5 -72 -20.5c-9.33301 0 -18.666 0.5 -27.999 1.5s-16.333 2.16699 -21 3.5l-7 2v58c13.333 -4.66699 27.666 -7 42.999 -7
c31.333 0 47 10.333 47 31s-17.333 31 -52 31l-18 -1l22 88h-22z" />
    <glyph glyph-name="tcommaaccent" unicode="&#x163;" horiz-adv-x="328" 
d="M83 185l0.00195312 243.002h-66v78h68v139h95v-139h122v-78h-122v-232c0 -19.333 2.66699 -36.166 8 -50.499s11.833 -25.5 19.5 -33.5s16.667 -14.333 27 -19s19.666 -7.66699 27.999 -9s16.833 -2 25.5 -2l23 2v-86c-9.33301 -1.33301 -20.666 -2 -33.999 -2
c-18.667 0 -36.334 1.66699 -53.001 5l-10 -51c21.333 -2.66699 38.666 -10.334 51.999 -23.001s20 -29.334 20 -50.001c0 -28.667 -9.83301 -49.834 -29.5 -63.501s-43.834 -20.5 -72.501 -20.5c-9.33301 0 -18.666 0.5 -27.999 1.5s-16 2.16699 -20 3.5l-7 2v58
c13.333 -4.66699 27.333 -7 42 -7c32 0 48 10.333 48 31s-17.667 31 -53 31l-18 -1l27 104c-61.333 28.667 -92 85 -92 169z" />
    <glyph glyph-name="Tcaron" unicode="&#x164;" horiz-adv-x="632" 
d="M272 755l-88 127h79l52 -81h2l52 81h80l-88 -127h-89zM266 0l-0.00195312 620h-141c-14.667 0 -22 -7.33301 -22 -22v-45h-90v93c0 22.667 4.33301 38.334 13 47.001s24.334 13 47.001 13h486c22.667 0 38.334 -4.33301 47.001 -13s13 -24.334 13 -47.001v-93h-89v45
c0 14.667 -7.33301 22 -22 22h-142v-620h-100z" />
    <glyph glyph-name="tcaron" unicode="&#x165;" horiz-adv-x="328" 
d="M243 706h79c4 -18 6 -34.333 6 -49c0 -27.333 -8 -58 -24 -92h-69c12.667 32.667 19 60 19 82c0 19.333 -3.66699 39 -11 59zM83 185l0.00292969 242.999h-66v78h68v139h95v-139h122v-78h-122v-232c0 -19.333 2.66699 -36.166 8 -50.499s11.833 -25.5 19.5 -33.5
s16.667 -14.333 27 -19s19.666 -7.66699 27.999 -9s16.833 -2 25.5 -2l23 2v-86c-9.33301 -1.33301 -20.666 -2 -33.999 -2c-16 0 -31.333 1 -46 3s-31.334 7 -50.001 15s-34.834 18.5 -48.501 31.5s-25.334 31.5 -35.001 55.5s-14.5 52 -14.5 84z" />
    <glyph glyph-name="Tbar" unicode="&#x166;" horiz-adv-x="646" 
d="M272 0l-0.000976562 310h-154v76h154v234h-141c-14.667 0 -22 -7.33301 -22 -22v-45h-90v93c0 22.667 4.5 38.334 13.5 47.001s24.833 13 47.5 13h485c22.667 0 38.334 -4.33301 47.001 -13s13 -24.334 13 -47.001v-93h-89v45c0 14.667 -7.33301 22 -22 22h-142v-234h161
v-76h-161v-310h-100z" />
    <glyph glyph-name="tbar" unicode="&#x167;" horiz-adv-x="331" 
d="M84 185l0.00292969 74h-66v68h66v101h-66v78h68v139h95v-139h121v-78h-121v-101h121v-68h-121v-66c0 -22.667 3.66699 -42 11 -58s17 -27.5 29 -34.5s23.333 -11.833 34 -14.5s21.667 -4 33 -4l23 2v-86c-8.66699 -1.33301 -20 -2 -34 -2c-15.333 0 -30.333 1 -45 3
s-31.334 7 -50.001 15s-34.834 18.5 -48.501 31.5s-25.334 31.5 -35.001 55.5s-14.5 52 -14.5 84z" />
    <glyph glyph-name="Utilde" unicode="&#x168;" horiz-adv-x="720" 
d="M91 247l0.000976562 351c0 14.667 -7.33301 22 -22 22h-43v86h100c22.667 0 39.167 -5 49.5 -15s15.5 -26.333 15.5 -49v-391c0 -52.667 15.167 -94 45.5 -124s71.5 -45 123.5 -45c51.333 0 92.333 15.167 123 45.5s46 71.833 46 124.5v390c0 22.667 5 39 15 49
s26.333 15 49 15h101v-86h-43c-14.667 0 -22 -7.33301 -22 -22v-351c0 -77.333 -24.667 -139.833 -74 -187.5s-114 -71.5 -194 -71.5c-80.667 0 -145.834 23.833 -195.501 71.5s-74.5 110.167 -74.5 187.5zM190.001 756c0 84.667 34.334 127 103.001 127
c19.333 0 36.666 -5.66699 51.999 -17s28.833 -22.666 40.5 -33.999s23.5 -17 35.5 -17c14 0 24.333 6.66699 31 20s10 28.333 10 45h65c0 -84.667 -34.333 -127 -103 -127c-19.333 0 -36.5 5.66699 -51.5 17s-28.5 22.666 -40.5 33.999s-24 17 -36 17
c-14 0 -24.167 -6.5 -30.5 -19.5s-9.5 -28.167 -9.5 -45.5h-66z" />
    <glyph glyph-name="utilde" unicode="&#x169;" horiz-adv-x="618" 
d="M80 182v219c0 14.667 -7.33301 22 -22 22h-41v83h95c22.667 0 39 -5 49 -15s15 -25.667 15 -47v-240c0 -40 6.66699 -71 20 -93s38.333 -33 75 -33c50 0 90 18.667 120 56s45 82.333 45 135v237h97v-401c0 -14.667 7.33301 -22 22 -22h41v-83h-93
c-42.667 0 -64 18.667 -64 56v19l1 29h-2c-12.667 -29.333 -35.5 -56 -68.5 -80s-72.167 -36 -117.5 -36c-57.333 0 -100.333 15.833 -129 47.5s-43 80.5 -43 146.5zM131 581c0 84.667 34.334 127 103.001 127c19.333 0 36.666 -5.66699 51.999 -17
s28.833 -22.666 40.5 -33.999s23.5 -17 35.5 -17c14 0 24.333 6.66699 31 20s10 28.333 10 45h65c0 -84.667 -34.333 -127 -103 -127c-19.333 0 -36.5 5.66699 -51.5 17s-28.5 22.666 -40.5 33.999s-24 17 -36 17c-14 0 -24.167 -6.5 -30.5 -19.5s-9.5 -28.167 -9.5 -45.5
h-66z" />
    <glyph glyph-name="Umacron" unicode="&#x16a;" horiz-adv-x="720" 
d="M91 247l0.000976562 351c0 14.667 -7.33301 22 -22 22h-43v86h100c22.667 0 39.167 -5 49.5 -15s15.5 -26.333 15.5 -49v-391c0 -52.667 15.167 -94 45.5 -124s71.5 -45 123.5 -45c51.333 0 92.333 15.167 123 45.5s46 71.833 46 124.5v390c0 22.667 5 39 15 49
s26.333 15 49 15h101v-86h-43c-14.667 0 -22 -7.33301 -22 -22v-351c0 -77.333 -24.667 -139.833 -74 -187.5s-114 -71.5 -194 -71.5c-80.667 0 -145.834 23.833 -195.501 71.5s-74.5 110.167 -74.5 187.5zM234.001 784v68h254v-68h-254z" />
    <glyph glyph-name="umacron" unicode="&#x16b;" horiz-adv-x="618" 
d="M80 182v219c0 14.667 -7.33301 22 -22 22h-41v83h95c22.667 0 39 -5 49 -15s15 -25.667 15 -47v-240c0 -40 6.66699 -71 20 -93s38.333 -33 75 -33c50 0 90 18.667 120 56s45 82.333 45 135v237h97v-401c0 -14.667 7.33301 -22 22 -22h41v-83h-93
c-42.667 0 -64 18.667 -64 56v19l1 29h-2c-12.667 -29.333 -35.5 -56 -68.5 -80s-72.167 -36 -117.5 -36c-57.333 0 -100.333 15.833 -129 47.5s-43 80.5 -43 146.5zM174 609v68h254v-68h-254z" />
    <glyph glyph-name="Ubreve" unicode="&#x16c;" horiz-adv-x="720" 
d="M91 247l0.000976562 351c0 14.667 -7.33301 22 -22 22h-43v86h100c22.667 0 39.167 -5 49.5 -15s15.5 -26.333 15.5 -49v-391c0 -52.667 15.167 -94 45.5 -124s71.5 -45 123.5 -45c51.333 0 92.333 15.167 123 45.5s46 71.833 46 124.5v390c0 22.667 5 39 15 49
s26.333 15 49 15h101v-86h-43c-14.667 0 -22 -7.33301 -22 -22v-351c0 -77.333 -24.667 -139.833 -74 -187.5s-114 -71.5 -194 -71.5c-80.667 0 -145.834 23.833 -195.501 71.5s-74.5 110.167 -74.5 187.5zM360.001 751c-34 0 -63.833 10.333 -89.5 31
s-38.5 49.334 -38.5 86.001v14h67v-13c0 -20 5.83301 -35 17.5 -45s26.167 -15 43.5 -15s32 5.16699 44 15.5s18 25.5 18 45.5v12h66v-14c0 -36.667 -12.667 -65.334 -38 -86.001s-55.333 -31 -90 -31z" />
    <glyph glyph-name="ubreve" unicode="&#x16d;" horiz-adv-x="618" 
d="M80 182v219c0 14.667 -7.33301 22 -22 22h-41v83h95c22.667 0 39 -5 49 -15s15 -25.667 15 -47v-240c0 -40 6.66699 -71 20 -93s38.333 -33 75 -33c50 0 90 18.667 120 56s45 82.333 45 135v237h97v-401c0 -14.667 7.33301 -22 22 -22h41v-83h-93
c-42.667 0 -64 18.667 -64 56v19l1 29h-2c-12.667 -29.333 -35.5 -56 -68.5 -80s-72.167 -36 -117.5 -36c-57.333 0 -100.333 15.833 -129 47.5s-43 80.5 -43 146.5zM300 576c-34 0 -63.833 10.333 -89.5 31s-38.5 49.334 -38.5 86.001v14h67v-13
c0 -20 5.83301 -35 17.5 -45s26.167 -15 43.5 -15s32 5.16699 44 15.5s18 25.5 18 45.5v12h66v-14c0 -36.667 -12.667 -65.334 -38 -86.001s-55.333 -31 -90 -31z" />
    <glyph glyph-name="Uring" unicode="&#x16e;" horiz-adv-x="720" 
d="M360 743c-22.667 0 -41.834 6.83301 -57.501 20.5s-23.5 31.5 -23.5 53.5c0 22.667 7.83301 40.834 23.5 54.501s34.834 20.5 57.501 20.5c22 0 41 -6.83301 57 -20.5s24 -31.834 24 -54.501c0 -22 -8 -39.833 -24 -53.5s-35 -20.5 -57 -20.5zM360 784
c10 0 18.167 3.16699 24.5 9.5s9.5 14.166 9.5 23.499c0 10.667 -3.16699 19.167 -9.5 25.5s-14.5 9.5 -24.5 9.5s-18.167 -3.16699 -24.5 -9.5s-9.5 -14.833 -9.5 -25.5c0 -9.33301 3.16699 -17.166 9.5 -23.499s14.5 -9.5 24.5 -9.5zM91 247l0.000976562 351
c0 14.667 -7.33301 22 -22 22h-43v86h100c22.667 0 39.167 -5 49.5 -15s15.5 -26.333 15.5 -49v-391c0 -52.667 15.167 -94 45.5 -124s71.5 -45 123.5 -45c51.333 0 92.333 15.167 123 45.5s46 71.833 46 124.5v390c0 22.667 5 39 15 49s26.333 15 49 15h101v-86h-43
c-14.667 0 -22 -7.33301 -22 -22v-351c0 -77.333 -24.667 -139.833 -74 -187.5s-114 -71.5 -194 -71.5c-80.667 0 -145.834 23.833 -195.501 71.5s-74.5 110.167 -74.5 187.5z" />
    <glyph glyph-name="uring" unicode="&#x16f;" horiz-adv-x="618" 
d="M301 568c-22.667 0 -41.834 6.83301 -57.501 20.5s-23.5 31.5 -23.5 53.5c0 22.667 7.83301 40.834 23.5 54.501s34.834 20.5 57.501 20.5c22 0 41 -6.83301 57 -20.5s24 -31.834 24 -54.501c0 -22 -8 -39.833 -24 -53.5s-35 -20.5 -57 -20.5zM301 609
c10 0 18.167 3.16699 24.5 9.5s9.5 14.166 9.5 23.499c0 10.667 -3.16699 19.167 -9.5 25.5s-14.5 9.5 -24.5 9.5s-18.167 -3.16699 -24.5 -9.5s-9.5 -14.833 -9.5 -25.5c0 -9.33301 3.16699 -17.166 9.5 -23.499s14.5 -9.5 24.5 -9.5zM80 182v219
c0 14.667 -7.33301 22 -22 22h-41v83h95c22.667 0 39 -5 49 -15s15 -25.667 15 -47v-240c0 -40 6.66699 -71 20 -93s38.333 -33 75 -33c50 0 90 18.667 120 56s45 82.333 45 135v237h97v-401c0 -14.667 7.33301 -22 22 -22h41v-83h-93c-42.667 0 -64 18.667 -64 56v19l1 29
h-2c-12.667 -29.333 -35.5 -56 -68.5 -80s-72.167 -36 -117.5 -36c-57.333 0 -100.333 15.833 -129 47.5s-43 80.5 -43 146.5z" />
    <glyph glyph-name="Uhungarumlaut" unicode="&#x170;" horiz-adv-x="720" 
d="M91 247l0.000976562 351c0 14.667 -7.33301 22 -22 22h-43v86h100c22.667 0 39.167 -5 49.5 -15s15.5 -26.333 15.5 -49v-391c0 -52.667 15.167 -94 45.5 -124s71.5 -45 123.5 -45c51.333 0 92.333 15.167 123 45.5s46 71.833 46 124.5v390c0 22.667 5 39 15 49
s26.333 15 49 15h101v-86h-43c-14.667 0 -22 -7.33301 -22 -22v-351c0 -77.333 -24.667 -139.833 -74 -187.5s-114 -71.5 -194 -71.5c-80.667 0 -145.834 23.833 -195.501 71.5s-74.5 110.167 -74.5 187.5zM395.001 755l72 127h99l-96 -127h-75zM242.001 755l69 127h84
l-70 -127h-83z" />
    <glyph glyph-name="uhungarumlaut" unicode="&#x171;" horiz-adv-x="618" 
d="M80 182v219c0 14.667 -7.33301 22 -22 22h-41v83h95c22.667 0 39 -5 49 -15s15 -25.667 15 -47v-240c0 -40 6.66699 -71 20 -93s38.333 -33 75 -33c50 0 90 18.667 120 56s45 82.333 45 135v237h97v-401c0 -14.667 7.33301 -22 22 -22h41v-83h-93
c-42.667 0 -64 18.667 -64 56v19l1 29h-2c-12.667 -29.333 -35.5 -56 -68.5 -80s-72.167 -36 -117.5 -36c-57.333 0 -100.333 15.833 -129 47.5s-43 80.5 -43 146.5zM335 580l72 127h99l-96 -127h-75zM182 580l69 127h84l-70 -127h-83z" />
    <glyph glyph-name="Uogonek" unicode="&#x172;" horiz-adv-x="722" 
d="M91 247l-0.000976562 351.001c0 14.667 -7.33301 22 -22 22h-43v86h100c22.667 0 39.167 -5 49.5 -15s15.5 -26.333 15.5 -49v-391c0 -52.667 15.167 -94 45.5 -124s71.5 -45 123.5 -45c51.333 0 92.333 15.167 123 45.5s46 71.833 46 124.5v390c0 22.667 5 39 15 49
s26.333 15 49 15h101v-86h-43c-14.667 0 -22 -7.33301 -22 -22v-355c0 -99.333 -46.667 -176 -140 -230c-57.333 -32.667 -86 -66.667 -86 -102c0 -11.333 4.66699 -20.5 14 -27.5s18.666 -11.5 27.999 -13.5l14 -2l-23 -75c-3.33301 0 -7.5 0.5 -12.5 1.5
s-14.167 3.5 -27.5 7.5s-25.166 9.16699 -35.499 15.5s-19.666 15.666 -27.999 27.999s-12.5 26.5 -12.5 42.5c0 38.667 17.333 72 52 100v2c-7.33301 -0.666992 -14.333 -1 -21 -1c-76.667 0 -139.167 24 -187.5 72s-72.5 110 -72.5 186z" />
    <glyph glyph-name="uogonek" unicode="&#x173;" horiz-adv-x="618" 
d="M80 182l-0.000976562 219.001c0 14.667 -7.33301 22 -22 22h-41v83h96c26 0 43.167 -6.16699 51.5 -18.5s12.5 -33.833 12.5 -64.5v-219c0 -40.667 6.5 -71.834 19.5 -93.501s37.833 -32.5 74.5 -32.5c50 0 90 18.667 120 56s45 82.333 45 135v237h97v-401
c0 -14.667 7.33301 -22 22 -22h41v-83c-42.667 -34.667 -64 -64.334 -64 -89.001c0 -11.333 4.66699 -20.5 14 -27.5s18.666 -11.5 27.999 -13.5l13 -2l-23 -75c-3.33301 0 -7.5 0.5 -12.5 1.5s-14.167 3.5 -27.5 7.5s-25.166 9.16699 -35.499 15.5
s-19.666 15.666 -27.999 27.999s-12.5 26.5 -12.5 42.5c0 40 22.333 77 67 111v2h-19c-38 0 -57 18.333 -57 55v19l2 29h-3c-1.33301 -3.33301 -3.33301 -7.5 -6 -12.5s-9.16699 -14.167 -19.5 -27.5s-21.833 -25.166 -34.5 -35.499s-30.167 -19.666 -52.5 -27.999
s-46.5 -12.5 -72.5 -12.5c-58 0 -101.333 15.667 -130 47s-43 80.333 -43 147z" />
    <glyph glyph-name="Wcircumflex" unicode="&#x174;" horiz-adv-x="967" 
d="M357 755l87 127h89l88 -127h-79l-52 80h-2l-53 -80h-78zM220 0l-154.002 598c-4 14.667 -15.667 22 -35 22h-15v86h58c26 0 45.5 -4 58.5 -12s22.167 -23.333 27.5 -46l110 -454l13 -75h2c4.66699 24 10.334 49 17.001 75l143 510h89l132 -510l15 -75h2
c3.33301 24.667 8 49.667 14 75l110 454c5.33301 22.667 14.333 38 27 46s32.334 12 59.001 12h58v-86h-15c-19.333 0 -31 -7.33301 -35 -22l-154 -598h-117l-120 446l-20 97h-2c-6 -34 -13.333 -66 -22 -96l-129 -447h-117z" />
    <glyph glyph-name="wcircumflex" unicode="&#x175;" horiz-adv-x="845" 
d="M291 580l87 127h89l88 -127h-79l-52 80h-2l-53 -80h-78zM194 0l-133.001 402.999c-4.66699 13.333 -15.334 20 -32.001 20h-14v83h61c22.667 0 39.334 -3.66699 50.001 -11s19.334 -21.666 26.001 -42.999l89 -301l12 -54h2c4 18.667 8.66699 36.667 14 54l109 353h90
l109 -353l13 -54h2c3.33301 18.667 7.66602 36.667 12.999 54l89 301c6.66699 21.333 15.167 35.666 25.5 42.999s26.833 11 49.5 11h61v-83h-14c-15.333 0 -25.666 -6.66699 -30.999 -20l-133 -403h-109l-105 325l-14 55h-2c-4 -19.333 -8.66699 -37.666 -14 -54.999
l-105 -325h-109z" />
    <glyph glyph-name="Ycircumflex" unicode="&#x176;" horiz-adv-x="606" 
d="M253 0l-0.00195312 308l-179 287c-9.33301 16.667 -23.666 25 -42.999 25h-20v86h46c24.667 0 43.334 -3.33301 56.001 -10s25.667 -21.334 39 -44.001l107 -178l43 -79h2c13.333 26.667 27.666 53 42.999 79l106 178c13.333 22.667 26.333 37.334 39 44.001
s31.334 10 56.001 10h47v-86h-20c-19.333 0 -34 -8.33301 -44 -25l-178 -287v-308h-100zM170.998 755l87 127h89l88 -127h-79l-52 80h-2l-53 -80h-78z" />
    <glyph glyph-name="ycircumflex" unicode="&#x177;" horiz-adv-x="543" 
d="M42 -90c0 -0.666992 2.99707 -3.83203 8.99707 -9.49902s15.167 -11.5 27.5 -17.5s24.833 -9 37.5 -9c38.667 0 68.334 24.333 89.001 73l23 55l-173 401c-6 13.333 -16.333 20 -31 20h-13v83h57c20.667 0 36 -3.5 46 -10.5s19 -20.5 27 -40.5l114 -285l18 -61h2
c5.33301 23.333 11 43.666 17 60.999l106 285c6.66699 20 15.334 33.5 26.001 40.5s26.334 10.5 47.001 10.5h58v-83h-13c-15.333 0 -26 -6.66699 -32 -20l-199 -494c-16 -38.667 -38.333 -68.167 -67 -88.5s-61 -30.5 -97 -30.5c-22 0 -43 4.16699 -63 12.5
s-34.333 16.833 -43 25.5l-13 12zM137.997 580.002l87 127h89l88 -127h-79l-52 80h-2l-53 -80h-78z" />
    <glyph glyph-name="Ydieresis" unicode="&#x178;" horiz-adv-x="606" 
d="M253 0l-0.00195312 308l-179 287c-9.33301 16.667 -23.666 25 -42.999 25h-20v86h46c24.667 0 43.334 -3.33301 56.001 -10s25.667 -21.334 39 -44.001l107 -178l43 -79h2c13.333 26.667 27.666 53 42.999 79l106 178c13.333 22.667 26.333 37.334 39 44.001
s31.334 10 56.001 10h47v-86h-20c-19.333 0 -34 -8.33301 -44 -25l-178 -287v-308h-100zM349.998 781v101h73v-101h-73zM184.998 781v101h74v-101h-74z" />
    <glyph glyph-name="Zacute" unicode="&#x179;" horiz-adv-x="600" 
d="M270 755l73 127h98l-95 -127h-76zM32 0v66.001l348 490c8 11.333 16.5 22.5 25.5 33.5l20.5 24.5l7 7v2c-12.667 -2 -30.334 -3 -53.001 -3h-227c-14.667 0 -22 -7.33301 -22 -22v-45h-91v89c0 22.667 5 39 15 49s26.333 15 49 15h452v-65l-348 -491
c-8 -11.333 -16.5 -22.333 -25.5 -33s-15.833 -18.334 -20.5 -23.001l-7 -8v-2c12.667 1.33301 30.334 2 53.001 2h249c14.667 0 22 7.33301 22 22v45h91v-89c0 -22.667 -5 -39 -15 -49s-26.333 -15 -49 -15h-474z" />
    <glyph glyph-name="zacute" unicode="&#x17a;" horiz-adv-x="515" 
d="M224 580l73 127h98l-95 -127h-76zM37 0v56l259 320l41 47v2c-10 -1.33301 -26 -2 -48 -2h-139c-14.667 0 -22 -7.33301 -22 -22v-34h-89v75c0 22.667 5.16699 39 15.5 49s26.833 15 49.5 15h361v-56l-259 -321l-42 -46v-2c10.667 1.33301 27 2 49 2h161
c14.667 0 22 7.33301 22 22v34h89v-75c0 -22.667 -5 -39 -15 -49s-26.333 -15 -49 -15h-384z" />
    <glyph glyph-name="Zdotaccent" unicode="&#x17b;" horiz-adv-x="600" 
d="M32 0v66.001l348 490c8 11.333 16.5 22.5 25.5 33.5l20.5 24.5l7 7v2c-12.667 -2 -30.334 -3 -53.001 -3h-227c-14.667 0 -22 -7.33301 -22 -22v-45h-91v89c0 22.667 5 39 15 49s26.333 15 49 15h452v-65l-348 -491c-8 -11.333 -16.5 -22.333 -25.5 -33
s-15.833 -18.334 -20.5 -23.001l-7 -8v-2c12.667 1.33301 30.334 2 53.001 2h249c14.667 0 22 7.33301 22 22v45h91v-89c0 -22.667 -5 -39 -15 -49s-26.333 -15 -49 -15h-474zM266 781.001v101h87v-101h-87z" />
    <glyph glyph-name="zdotaccent" unicode="&#x17c;" horiz-adv-x="515" 
d="M37 0v56l259 320l41 47v2c-10 -1.33301 -26 -2 -48 -2h-139c-14.667 0 -22 -7.33301 -22 -22v-34h-89v75c0 22.667 5.16699 39 15.5 49s26.833 15 49.5 15h361v-56l-259 -321l-42 -46v-2c10.667 1.33301 27 2 49 2h161c14.667 0 22 7.33301 22 22v34h89v-75
c0 -22.667 -5 -39 -15 -49s-26.333 -15 -49 -15h-384zM220 606v101h87v-101h-87z" />
    <glyph glyph-name="Zcaron" unicode="&#x17d;" horiz-adv-x="600" 
d="M265 755l-88 127h79l52 -81h2l52 81h80l-88 -127h-89zM32 0v66.001l348 490c8 11.333 16.5 22.5 25.5 33.5l20.5 24.5l7 7v2c-12.667 -2 -30.334 -3 -53.001 -3h-227c-14.667 0 -22 -7.33301 -22 -22v-45h-91v89c0 22.667 5 39 15 49s26.333 15 49 15h452v-65l-348 -491
c-8 -11.333 -16.5 -22.333 -25.5 -33s-15.833 -18.334 -20.5 -23.001l-7 -8v-2c12.667 1.33301 30.334 2 53.001 2h249c14.667 0 22 7.33301 22 22v45h91v-89c0 -22.667 -5 -39 -15 -49s-26.333 -15 -49 -15h-474z" />
    <glyph glyph-name="zcaron" unicode="&#x17e;" horiz-adv-x="515" 
d="M219 580l-88 127h79l52 -81h2l52 81h80l-88 -127h-89zM37 0v56l259 320l41 47v2c-10 -1.33301 -26 -2 -48 -2h-139c-14.667 0 -22 -7.33301 -22 -22v-34h-89v75c0 22.667 5.16699 39 15.5 49s26.833 15 49.5 15h361v-56l-259 -321l-42 -46v-2c10.667 1.33301 27 2 49 2
h161c14.667 0 22 7.33301 22 22v34h89v-75c0 -22.667 -5 -39 -15 -49s-26.333 -15 -49 -15h-384z" />
    <glyph glyph-name="longs" unicode="&#x17f;" horiz-adv-x="262" 
d="M85 0v428.001h-63v78h63v17c0 32 4.66699 59.833 14 83.5s20.833 42 34.5 55s29.667 23.333 48 31s34.833 12.667 49.5 15s29.667 3.5 45 3.5l37 -3v-83c-6.66699 1.33301 -15 2 -25 2c-11.333 0 -22.333 -1.33301 -33 -4s-22 -7.33398 -34 -14.001
s-21.5 -17.667 -28.5 -33s-10.5 -34 -10.5 -56v-520h-97z" />
    <glyph glyph-name="florin" unicode="&#x192;" 
d="M82 30c6.66699 -1.33301 14.667 -2 24 -2c11.333 0 22.333 1.33301 33 4s22.167 7.5 34.5 14.5s22.833 18.333 31.5 34s14 35.167 16 58.5l18 211h-75v78h83l8 95c2.66699 32 9.83398 59.833 21.501 83.5s24.667 42 39 55s31 23.333 50 31s36 12.667 51 15
s30.167 3.5 45.5 3.5l37 -3l-8 -83c-6.66699 1.33301 -15 2 -25 2c-11.333 0 -22.333 -1.33301 -33 -4s-22.167 -7.5 -34.5 -14.5s-22.833 -18.333 -31.5 -34s-14 -35.167 -16 -58.5l-8 -88h105v-78h-112l-19 -218c-2.66699 -32 -9.83398 -59.833 -21.501 -83.5
s-24.667 -42 -39 -55s-31 -23.333 -50 -31s-35.833 -12.667 -50.5 -15s-29.667 -3.5 -45 -3.5l-37 2z" />
    <glyph glyph-name="Scommaaccent" unicode="&#x218;" horiz-adv-x="525" 
d="M222 -59h79c4 -18 6 -34.333 6 -49c0 -27.333 -8 -58 -24 -92h-69c12.667 32.667 19 60 19 82c0 19.333 -3.66699 39 -11 59zM29 93l57.9971 71.0029c2 -2 4.83301 -5 8.5 -9s11.667 -10.833 24 -20.5s25 -18.334 38 -26.001s29.333 -14.5 49 -20.5s39.167 -9 58.5 -9
c33.333 0 61.666 9.66699 84.999 29s35 44.666 35 75.999c0 26.667 -11.667 50 -35 70s-51.666 37.333 -84.999 52s-66.666 30.5 -99.999 47.5s-61.666 40.333 -84.999 70s-35 64.834 -35 105.501c0 54 21.167 99 63.5 135s96.5 54 162.5 54
c28.667 0 57.334 -3.83301 86.001 -11.5s54.834 -21.834 78.501 -42.501s35.5 -46 35.5 -76v-58h-92v33c0 18 -10.833 33.167 -32.5 45.5s-47.167 18.5 -76.5 18.5c-36.667 0 -66.5 -9 -89.5 -27s-34.5 -40.667 -34.5 -68c0 -22 8.5 -41.5 25.5 -58.5s38 -30.833 63 -41.5
s52.333 -23.167 82 -37.5s57 -29 82 -44s46 -36.5 63 -64.5s25.5 -60.333 25.5 -97c0 -56 -20.333 -103.5 -61 -142.5s-95 -58.5 -163 -58.5c-28 0 -55.333 3.66699 -82 11s-48.667 16 -66 26s-32.833 20.167 -46.5 30.5s-23.834 19.166 -30.501 26.499z" />
    <glyph glyph-name="scommaaccent" unicode="&#x219;" horiz-adv-x="449" 
d="M185 -59h79c4 -18 6 -34.333 6 -49c0 -27.333 -8 -58 -24 -92h-69c12.667 32.667 19 60 19 82c0 19.333 -3.66699 39 -11 59zM28 77l49.0029 64.998c1.33301 -2 3.66602 -4.66699 6.99902 -8s10.166 -9.33301 20.499 -18s21 -16.334 32 -23.001s25.167 -12.667 42.5 -18
s34.666 -8 51.999 -8c24.667 0 45.334 5.66699 62.001 17s25 27.333 25 48c0 16.667 -9.5 31.334 -28.5 44.001s-42 24.167 -69 34.5s-53.833 21.833 -80.5 34.5s-49.5 30.167 -68.5 52.5s-28.5 48.5 -28.5 78.5c0 46 17.667 81.167 53 105.5s80.333 36.5 135 36.5
c39.333 0 76.833 -7.83301 112.5 -23.5s53.5 -40.5 53.5 -74.5v-48h-87v25c0 13.333 -8.16699 23.833 -24.5 31.5s-33.5 11.5 -51.5 11.5c-29.333 0 -52.5 -5.16699 -69.5 -15.5s-25.5 -25.166 -25.5 -44.499c0 -17.333 9.5 -32.5 28.5 -45.5s42.167 -24.333 69.5 -34
s54.5 -20.5 81.5 -32.5s50 -29.167 69 -51.5s28.5 -49.166 28.5 -80.499c0 -44.667 -17.5 -80.5 -52.5 -107.5s-79.5 -40.5 -133.5 -40.5c-25.333 0 -49.5 3 -72.5 9s-42 13.333 -57 22s-28.333 17.5 -40 26.5s-19.834 16.5 -24.501 22.5z" />
    <glyph glyph-name="uni021A" unicode="&#x21a;" horiz-adv-x="632" 
d="M273 -59h79c4 -18 6 -34.333 6 -49c0 -27.333 -8 -58 -24 -92h-69c12.667 32.667 19 60 19 82c0 19.333 -3.66699 39 -11 59zM266 0l-0.00195312 620h-141c-14.667 0 -22 -7.33301 -22 -22v-45h-90v93c0 22.667 4.33301 38.334 13 47.001s24.334 13 47.001 13h486
c22.667 0 38.334 -4.33301 47.001 -13s13 -24.334 13 -47.001v-93h-89v45c0 14.667 -7.33301 22 -22 22h-142v-620h-100z" />
    <glyph glyph-name="uni021B" unicode="&#x21b;" horiz-adv-x="328" 
d="M151 -59h79c4 -18 6 -34.333 6 -49c0 -27.333 -8 -58 -24 -92h-69c12.667 32.667 19 60 19 82c0 19.333 -3.66699 39 -11 59zM83 185l0.00292969 242.999h-66v78h68v139h95v-139h122v-78h-122v-232c0 -19.333 2.66699 -36.166 8 -50.499s11.833 -25.5 19.5 -33.5
s16.667 -14.333 27 -19s19.666 -7.66699 27.999 -9s16.833 -2 25.5 -2l23 2v-86c-9.33301 -1.33301 -20.666 -2 -33.999 -2c-16 0 -31.333 1 -46 3s-31.334 7 -50.001 15s-34.834 18.5 -48.501 31.5s-25.334 31.5 -35.001 55.5s-14.5 52 -14.5 84z" />
    <glyph glyph-name="circumflex" unicode="&#x2c6;" horiz-adv-x="485" 
d="M111 755l87 127h89l88 -127h-79l-52 80h-2l-53 -80h-78z" />
    <glyph glyph-name="caron" unicode="&#x2c7;" horiz-adv-x="488" 
d="M198 755l-88 127h79l52 -81h2l52 81h80l-88 -127h-89z" />
    <glyph glyph-name="breve" unicode="&#x2d8;" horiz-adv-x="501" 
d="M243 751c-34 0 -63.833 10.333 -89.5 31s-38.5 49.334 -38.5 86.001v14h67v-13c0 -20 6 -35 18 -45s26.333 -15 43 -15c17.333 0 32 5.16699 44 15.5s18 25.5 18 45.5v12h66v-14c0 -36.667 -12.667 -65.334 -38 -86.001s-55.333 -31 -90 -31z" />
    <glyph glyph-name="dotaccent" unicode="&#x2d9;" horiz-adv-x="256" 
d="M84 781v101h87v-101h-87z" />
    <glyph glyph-name="ring" unicode="&#x2da;" horiz-adv-x="380" 
d="M190 743c-22.667 0 -41.834 6.83301 -57.501 20.5s-23.5 31.5 -23.5 53.5c0 22.667 7.83301 40.834 23.5 54.501s34.834 20.5 57.501 20.5c22 0 41 -6.83301 57 -20.5s24 -31.834 24 -54.501c0 -22 -8 -39.833 -24 -53.5s-35 -20.5 -57 -20.5zM190 784
c10 0 18.167 3.16699 24.5 9.5s9.5 14.166 9.5 23.499c0 10.667 -3.16699 19.167 -9.5 25.5s-14.5 9.5 -24.5 9.5s-18.167 -3.16699 -24.5 -9.5s-9.5 -14.833 -9.5 -25.5c0 -9.33301 3.16699 -17.166 9.5 -23.499s14.5 -9.5 24.5 -9.5z" />
    <glyph glyph-name="ogonek" unicode="&#x2db;" horiz-adv-x="361" 
d="M108 -112c0 22.667 7.66504 44.6689 22.998 66.002s30.333 37.333 45 48l23 15l69 -7c-6 -4 -13.167 -9.33301 -21.5 -16s-19.666 -18.834 -33.999 -36.501s-21.5 -33.167 -21.5 -46.5c0 -11.333 4.66699 -20.5 14 -27.5s18.666 -11.5 27.999 -13.5l14 -2l-23 -75
c-3.33301 0 -7.5 0.5 -12.5 1.5s-14.167 3.5 -27.5 7.5s-25.166 9.16699 -35.499 15.5s-19.666 15.666 -27.999 27.999s-12.5 26.5 -12.5 42.5z" />
    <glyph glyph-name="tilde" unicode="&#x2dc;" horiz-adv-x="519" 
d="M92 756c0 84.667 34.334 127 103.001 127c19.333 0 36.666 -5.66699 51.999 -17s28.833 -22.666 40.5 -33.999s23.5 -17 35.5 -17c14 0 24.333 6.66699 31 20s10 28.333 10 45h65c0 -84.667 -34.333 -127 -103 -127c-19.333 0 -36.5 5.66699 -51.5 17
s-28.5 22.666 -40.5 33.999s-24 17 -36 17c-14 0 -24.167 -6.5 -30.5 -19.5s-9.5 -28.167 -9.5 -45.5h-66z" />
    <glyph glyph-name="hungarumlaut" unicode="&#x2dd;" horiz-adv-x="535" 
d="M252 755l72 127h99l-96 -127h-75zM99 755l69 127h84l-70 -127h-83z" />
    <glyph glyph-name="uni0400" unicode="&#x400;" horiz-adv-x="571" 
d="M98 64v556h-65v86h416c22.667 0 39 -5 49 -15s15 -26.333 15 -49v-89h-92v45c0 14.667 -7.33301 22 -22 22h-201v-221h248v-86h-248v-205c0 -14.667 7.33301 -22 22 -22h207c14.667 0 22 7.33301 22 22v45h91v-89c0 -22.667 -5 -39 -15 -49s-26.333 -15 -49 -15h-313
c-22.667 0 -39.167 5 -49.5 15s-15.5 26.333 -15.5 49zM285 755l-95 127h98l73 -127h-76z" />
    <glyph glyph-name="uni0401" unicode="&#x401;" horiz-adv-x="571" 
d="M349 781v101h73v-101h-73zM184 781v101h74v-101h-74zM98 64v556h-65v86h416c22.667 0 39 -5 49 -15s15 -26.333 15 -49v-89h-92v45c0 14.667 -7.33301 22 -22 22h-201v-221h248v-86h-248v-205c0 -14.667 7.33301 -22 22 -22h207c14.667 0 22 7.33301 22 22v45h91v-89
c0 -22.667 -5 -39 -15 -49s-26.333 -15 -49 -15h-313c-22.667 0 -39.167 5 -49.5 15s-15.5 26.333 -15.5 49z" />
    <glyph glyph-name="uni0402" unicode="&#x402;" horiz-adv-x="747" 
d="M231 0l-0.000976562 623.998h-112c-14.667 0 -22 -7.33301 -22 -22v-49h-83v93c0 22.667 4.5 38.334 13.5 47.001s24.833 13 47.5 13h485v-82h-229v-201l-1 -31h2c56 27.333 114.333 41 175 41c70.667 0 125.167 -19.667 163.5 -59s57.5 -91 57.5 -155
c0 -72 -20.667 -128.5 -62 -169.5s-94.666 -61.5 -159.999 -61.5c-6 0 -15 0.333008 -27 1s-18.667 1 -20 1v84c4 -1.33301 15.333 -2 34 -2c37.333 0 69.5 11 96.5 33s40.5 58 40.5 108c0 40.667 -12 72.834 -36 96.501s-59.667 35.5 -107 35.5
c-25.333 0 -51 -3.5 -77 -10.5s-45.667 -13.833 -59 -20.5l-20 -10v-304h-100z" />
    <glyph glyph-name="uni0403" unicode="&#x403;" horiz-adv-x="514" 
d="M234 755l73 127h98l-95 -127h-76zM98 0v620h-65v86h404c22.667 0 39 -5 49 -15s15 -26.333 15 -49v-89h-91v45c0 14.667 -7.33301 22 -22 22h-190v-620h-100z" />
    <glyph glyph-name="uni0404" unicode="&#x404;" horiz-adv-x="694" 
d="M142 309c8 -67.333 35.1699 -122.665 81.5029 -165.998s103.166 -65 170.499 -65c40.667 0 79.334 7.66699 116.001 23s63.334 30.666 80.001 45.999l25 23l52 -68c-2.66699 -3.33301 -6.5 -7.5 -11.5 -12.5s-16.333 -14 -34 -27s-36.334 -24.5 -56.001 -34.5
s-45.167 -19.167 -76.5 -27.5s-63.666 -12.5 -96.999 -12.5c-104 0 -189.667 35.667 -257 107s-101 158.666 -101 261.999c0 102.667 33.667 188.5 101 257.5s150.666 103.5 249.999 103.5c27.333 0 55.666 -2.83301 84.999 -8.5s58.166 -14 86.499 -25
s51.666 -27 69.999 -48s27.5 -44.833 27.5 -71.5v-65h-92v40c0 27.333 -18.333 48.833 -55 64.5s-75.667 23.5 -117 23.5c-68 0 -125 -22 -171 -66s-72.333 -101 -79 -171h370v-82h-368z" />
    <glyph glyph-name="uni0405" unicode="&#x405;" horiz-adv-x="525" 
d="M29 93l57.9971 71.0029c2 -2 4.83301 -5 8.5 -9s11.667 -10.833 24 -20.5s25 -18.334 38 -26.001s29.333 -14.5 49 -20.5s39.167 -9 58.5 -9c33.333 0 61.666 9.66699 84.999 29s35 44.666 35 75.999c0 26.667 -11.667 50 -35 70s-51.666 37.333 -84.999 52
s-66.666 30.5 -99.999 47.5s-61.666 40.333 -84.999 70s-35 64.834 -35 105.501c0 54 21.167 99 63.5 135s96.5 54 162.5 54c28.667 0 57.334 -3.83301 86.001 -11.5s54.834 -21.834 78.501 -42.501s35.5 -46 35.5 -76v-58h-92v33c0 18 -10.833 33.167 -32.5 45.5
s-47.167 18.5 -76.5 18.5c-36.667 0 -66.5 -9 -89.5 -27s-34.5 -40.667 -34.5 -68c0 -22 8.5 -41.5 25.5 -58.5s38 -30.833 63 -41.5s52.333 -23.167 82 -37.5s57 -29 82 -44s46 -36.5 63 -64.5s25.5 -60.333 25.5 -97c0 -56 -20.333 -103.5 -61 -142.5
s-95 -58.5 -163 -58.5c-28 0 -55.333 3.66699 -82 11s-48.667 16 -66 26s-32.833 20.167 -46.5 30.5s-23.834 19.166 -30.501 26.499z" />
    <glyph glyph-name="uni0406" unicode="&#x406;" horiz-adv-x="315" 
d="M41 0v86h69v534h-69v86h233v-86h-68v-534h68v-86h-233z" />
    <glyph glyph-name="uni0407" unicode="&#x407;" horiz-adv-x="315" 
d="M204 781v101h73v-101h-73zM39 781v101h74v-101h-74zM41 0v86h69v534h-69v86h233v-86h-68v-534h68v-86h-233z" />
    <glyph glyph-name="uni0408" unicode="&#x408;" horiz-adv-x="511" 
d="M16 203v34.999h100v-27c0 -45.333 10.833 -78.166 32.5 -98.499s48.167 -30.5 79.5 -30.5c30.667 0 56.667 10.167 78 30.5s32 51.833 32 94.5v391c0 14.667 -7.33301 22 -22 22h-173v86h230c22.667 0 39.167 -5 49.5 -15s15.5 -26.333 15.5 -49v-439
c0 -71.333 -20.667 -125 -62 -161s-91 -54 -149 -54s-107.667 18.167 -149 54.5s-62 89.833 -62 160.5z" />
    <glyph glyph-name="uni0409" unicode="&#x409;" horiz-adv-x="933" 
d="M10 -7l0.00195312 90.999c39.333 4 70.666 23.833 93.999 59.5s39.666 84 48.999 145s14 139.167 14 234.5v97h-66v86h391c22.667 0 39.167 -5 49.5 -15s15.5 -26.333 15.5 -49v-227h124c30 0 58.167 -3.5 84.5 -10.5s50.833 -18 73.5 -33s40.667 -36 54 -63
s20 -58.833 20 -95.5c0 -69.333 -22 -122.166 -66 -158.499s-100.667 -54.5 -170 -54.5h-156c-22.667 0 -39 5 -49 15s-15 26.333 -15 49v534c0 14.667 -7.33301 22 -22 22h-169v-97c0 -54.667 -1.33301 -103.167 -4 -145.5s-7.33398 -84 -14.001 -125
s-16.334 -76.167 -29.001 -105.5s-28.167 -55.5 -46.5 -78.5s-41.166 -40.833 -68.499 -53.5s-58.666 -20 -93.999 -22zM557.002 105.999c0 -14.667 7.33301 -22.001 22 -22.001h103c40.667 0 72.167 11.333 94.5 34s33.5 53.334 33.5 92.001s-11 68.5 -33 89.5
s-53.333 31.5 -94 31.5h-126v-225z" />
    <glyph glyph-name="uni040A" unicode="&#x40a;" horiz-adv-x="1002" 
d="M99 0v598c0 14.667 -7.33301 22 -22 22h-43v86h101c22.667 0 39 -5 49 -15s15 -26.333 15 -49v-230h328v294h100v-294h127c64 0 118.167 -16 162.5 -48s66.5 -82 66.5 -150c0 -69.333 -22 -122.333 -66 -159s-100.333 -55 -169 -55h-157c-22.667 0 -39 5 -49 15
s-15 26.333 -15 49v264h-328v-328h-100zM627 106c0 -14.667 7.33398 -22 22.001 -22h105c39.333 0 70.166 11.667 92.499 35s33.5 54.333 33.5 93c0 36 -11 64.333 -33 85s-52.667 31 -92 31h-128v-222z" />
    <glyph glyph-name="uni040B" unicode="&#x40b;" horiz-adv-x="783" 
d="M231 0l-0.000976562 623.999h-112c-14.667 0 -22 -7.33301 -22 -22v-49h-83v93c0 22.667 4.5 38.334 13.5 47.001s24.833 13 47.5 13h485v-82h-229v-205l-2 -32h2c58 31.333 118.667 47 182 47c66.667 0 116.5 -17.833 149.5 -53.5s49.5 -86.5 49.5 -152.5v-124
c0 -12 7.33301 -18 22 -18h43v-86h-100c-22.667 0 -39.167 5 -49.5 15s-15.5 26.333 -15.5 49v143c0 46 -9.66699 80.333 -29 103s-50 34 -92 34c-59.333 0 -112.666 -16.667 -159.999 -50v-294h-100z" />
    <glyph glyph-name="uni040C" unicode="&#x40c;" horiz-adv-x="612" 
d="M279 755l73 127h98l-95 -127h-76zM99 0l0.00195312 598.002c0 14.667 -7.33301 22 -22 22h-43v86h101c22.667 0 39 -5 49 -15s15 -26.333 15 -49v-233h67c29.333 0 48.666 8 57.999 24l157 273h112l-171 -293c-6 -10.667 -12.333 -19.834 -19 -27.501
s-11.667 -12.834 -15 -15.501l-6 -3v-2c13.333 -3.33301 26.666 -18 39.999 -44l106 -212c7.33301 -15.333 24 -23 50 -23h19v-86h-55c-28.667 -0 -49.5 3.33301 -62.5 10s-24.833 21 -35.5 43l-122 245c-9.33301 17.333 -30.333 26 -63 26h-60v-324h-100z" />
    <glyph glyph-name="uni040D" unicode="&#x40d;" horiz-adv-x="763" 
d="M99 0v597.999c0 14.667 -7.33301 22 -22 22h-43v86h101c22.667 0 39 -5 49 -15s15 -26.333 15 -49v-387l-6 -101h2c25.333 42.667 46.333 76.667 63 102l308 450h98v-598c0 -14.667 7.33301 -22 22 -22h43v-86h-100c-22.667 0 -39.167 5 -49.5 15s-15.5 26.333 -15.5 49
v388l6 103h-2c-23.333 -43.333 -43.333 -77.666 -60 -102.999l-310 -452h-99zM353 754.999l-95 127h98l73 -127h-76z" />
    <glyph glyph-name="uni040E" unicode="&#x40e;" horiz-adv-x="622" 
d="M312 739c-40.667 0 -75.5 11.501 -104.5 34.501s-43.5 54.167 -43.5 93.5v15h78v-14c0 -20.667 7 -36.834 21 -48.501s30.333 -17.5 49 -17.5c19.333 0 36 5.83301 50 17.5s21 28.167 21 49.5v13h77v-15c0 -39.333 -14.333 -70.5 -43 -93.5s-63.667 -34.5 -105 -34.5z
M82 36.001l45.999 74c24 -20.667 48.667 -31 74 -31c20.667 0 36.667 6.33301 48 19s22 32.667 32 60l-219 440c-7.33301 14.667 -18.333 22 -33 22h-20v86h61c22.667 0 39.167 -4 49.5 -12s20.833 -23.333 31.5 -46l143 -305l37 -87h2c8 25.333 18 54.333 30 87l111 305
c8.66699 23.333 18.334 38.833 29.001 46.5s28.667 11.5 54 11.5h54v-86h-16c-16.667 0 -28 -7 -34 -21l-192 -486c-32.667 -83.333 -84.667 -125 -156 -125c-28 0 -54.5 5.5 -79.5 16.5s-42.5 21.5 -52.5 31.5z" />
    <glyph glyph-name="uni040F" unicode="&#x40f;" horiz-adv-x="740" 
d="M98 64v534c0 14.667 -7.33301 22 -22 22h-43v86h101c22.667 0 39 -5 49 -15s15 -26.333 15 -49v-534c0 -14.667 7.33301 -22 22 -22h300c14.667 0 22 7.33301 22 22v534c0 22.667 5 39 15 49s26.333 15 49 15h101v-86h-43c-14.667 0 -22 -7.33301 -22 -22v-534
c0 -22.667 -5.16699 -39 -15.5 -49s-26.833 -15 -49.5 -15h-162v-140h-90v140h-162c-22.667 0 -39.167 5 -49.5 15s-15.5 26.333 -15.5 49z" />
    <glyph glyph-name="uni0410" unicode="&#x410;" horiz-adv-x="665" 
d="M12 0v86h14c17.333 0 28.333 7.33301 33 22l221 598h105l221 -598c4.66699 -14.667 15.667 -22 33 -22h14v-86h-55c-24.667 -0 -42.5 3.83301 -53.5 11.5s-20.833 23.167 -29.5 46.5l-53 145h-259l-53 -145c-8.66699 -23.333 -18.5 -38.833 -29.5 -46.5
s-28.833 -11.5 -53.5 -11.5h-55zM227 287h211l-77 215l-28 99h-2c-10 -41.333 -19 -74.333 -27 -99z" />
    <glyph glyph-name="uni0411" unicode="&#x411;" horiz-adv-x="594" 
d="M98 64l0.000976562 556h-65v86h413c22.667 0 39 -5 49 -15s15 -26.333 15 -49v-89h-91v45c0 14.667 -7.33301 22 -22 22h-199v-204h131c66 0 122 -17 168 -51s69 -85.333 69 -154c0 -68 -22.333 -120.167 -67 -156.5s-101.334 -54.5 -170.001 -54.5h-166
c-22.667 0 -39.167 5 -49.5 15s-15.5 26.333 -15.5 49zM198.001 106c0 -14.667 7.33301 -22 22 -22h115c39.333 0 70.5 11.333 93.5 34s34.5 53 34.5 91s-11.5 68 -34.5 90s-54.167 33 -93.5 33h-137v-226z" />
    <glyph glyph-name="uni0412" unicode="&#x412;" horiz-adv-x="615" 
d="M98 64v556h-65v86h309c60.667 0 110 -16 148 -48s57 -76 57 -132c0 -36.667 -8.33301 -68 -25 -94s-37.667 -45.333 -63 -58v-2c36 -10.667 64.333 -31.667 85 -63s31 -67.333 31 -108c0 -64 -21.5 -113.5 -64.5 -148.5s-97.167 -52.5 -162.5 -52.5h-185
c-22.667 0 -39.167 5 -49.5 15s-15.5 26.333 -15.5 49zM197 409h146c31.333 0 56.333 10 75 30s28 45.667 28 77s-9.16699 56.5 -27.5 75.5s-43.833 28.5 -76.5 28.5h-145v-211zM197 108c0 -14.667 7.33301 -22 22 -22h135c36.667 0 65.667 11 87 33s32 51 32 87
s-10.833 65.167 -32.5 87.5s-50.5 33.5 -86.5 33.5h-157v-219z" />
    <glyph glyph-name="uni0413" unicode="&#x413;" horiz-adv-x="514" 
d="M98 0v620h-65v86h404c22.667 0 39 -5 49 -15s15 -26.333 15 -49v-89h-91v45c0 14.667 -7.33301 22 -22 22h-190v-620h-100z" />
    <glyph glyph-name="uni0414" unicode="&#x414;" horiz-adv-x="722" 
d="M10 23c0 22.667 4.83105 38.834 14.498 48.501s25.834 14.5 48.501 14.5h16c44 62 73.167 132.333 87.5 211s21.5 166.667 21.5 264v59h-64v86h415c22.667 0 39 -5 49 -15s15 -26.333 15 -49v-556h22c22.667 0 38.834 -4.83301 48.501 -14.5s14.5 -25.834 14.5 -48.501
v-163h-92v118c0 14.667 -7 22 -21 22h-462c-14 0 -21 -7.33301 -21 -22v-118h-92v163zM192.998 86h321v512c0 14.667 -7.33301 22 -22 22h-198v-65c0 -210.667 -33.667 -367 -101 -469z" />
    <glyph glyph-name="uni0415" unicode="&#x415;" horiz-adv-x="571" 
d="M98 64v556h-65v86h416c22.667 0 39 -5 49 -15s15 -26.333 15 -49v-89h-92v45c0 14.667 -7.33301 22 -22 22h-201v-221h248v-86h-248v-205c0 -14.667 7.33301 -22 22 -22h207c14.667 0 22 7.33301 22 22v45h91v-89c0 -22.667 -5 -39 -15 -49s-26.333 -15 -49 -15h-313
c-22.667 0 -39.167 5 -49.5 15s-15.5 26.333 -15.5 49z" />
    <glyph glyph-name="uni0416" unicode="&#x416;" horiz-adv-x="884" 
d="M7 0l187.998 319.997c6 10.667 12.833 19.834 20.5 27.501s13.834 12.5 18.501 14.5l6 4v2c-12.667 4.66699 -25.667 19.334 -39 44.001l-102 185c-8 15.333 -24.667 23 -50 23h-20v86h50c28 0 48 -3.33301 60 -10s24 -21 36 -43l119 -218
c6.66699 -11.333 14.5 -18.833 23.5 -22.5s21.5 -5.5 37.5 -5.5h39v299h96v-299h37c31.333 0 52.333 9.33301 63 28l119 218c12 22 24 36.333 36 43s32 10 60 10h50v-86h-20c-25.333 0 -42.333 -7.66699 -51 -23l-101 -185c-6 -10.667 -12.167 -19.667 -18.5 -27
s-11.166 -12 -14.499 -14l-6 -3v-2c16 -7.33301 30.667 -22.666 44 -45.999l189 -320h-110l-172 297c-11.333 19.333 -30.333 29 -57 29h-48v-326h-96v326h-48c-26.667 0 -45.667 -9.66699 -57 -29l-172 -297h-110z" />
    <glyph glyph-name="uni0417" unicode="&#x417;" horiz-adv-x="529" 
d="M20 82l59.001 69.998c18 -19.333 41.667 -36.666 71 -51.999s60 -23 92 -23c41.333 0 76 11.333 104 34s42 53.334 42 92.001c0 36.667 -12.5 65.5 -37.5 86.5s-56.167 31.5 -93.5 31.5h-84v82h72c34 0 62.833 10.833 86.5 32.5s35.5 49.5 35.5 83.5
c0 32.667 -10.333 59.167 -31 79.5s-50.667 30.5 -90 30.5c-30.667 0 -56.834 -6.5 -78.501 -19.5s-32.5 -28.833 -32.5 -47.5v-29h-92v55c0 29.333 11.833 54.333 35.5 75s50.667 35 81 43s61.833 12 94.5 12c68 0 120.667 -16.833 158 -50.5s56 -78.167 56 -133.5
c0 -72 -34 -125.333 -102 -160v-2c38.667 -10.667 69.167 -31.5 91.5 -62.5s33.5 -67.833 33.5 -110.5c0 -62 -22.833 -112.667 -68.5 -152s-105.167 -59 -178.5 -59c-48 0 -91.167 9 -129.5 27s-69.833 40.333 -94.5 67z" />
    <glyph glyph-name="uni0418" unicode="&#x418;" horiz-adv-x="763" 
d="M99 0v597.999c0 14.667 -7.33301 22 -22 22h-43v86h101c22.667 0 39 -5 49 -15s15 -26.333 15 -49v-387l-6 -101h2c25.333 42.667 46.333 76.667 63 102l308 450h98v-598c0 -14.667 7.33301 -22 22 -22h43v-86h-100c-22.667 0 -39.167 5 -49.5 15s-15.5 26.333 -15.5 49
v388l6 103h-2c-23.333 -43.333 -43.333 -77.666 -60 -102.999l-310 -452h-99z" />
    <glyph glyph-name="uni0419" unicode="&#x419;" horiz-adv-x="763" 
d="M378 739c-40.667 0 -75.5 11.501 -104.5 34.501s-43.5 54.167 -43.5 93.5v15h78v-14c0 -20.667 7 -36.834 21 -48.501s30.333 -17.5 49 -17.5c19.333 0 36 5.83301 50 17.5s21 28.167 21 49.5v13h77v-15c0 -39.333 -14.333 -70.5 -43 -93.5s-63.667 -34.5 -105 -34.5z
M99 0.000976562v597.999c0 14.667 -7.33301 22 -22 22h-43v86h101c22.667 0 39 -5 49 -15s15 -26.333 15 -49v-387l-6 -101h2c25.333 42.667 46.333 76.667 63 102l308 450h98v-598c0 -14.667 7.33301 -22 22 -22h43v-86h-100c-22.667 0 -39.167 5 -49.5 15
s-15.5 26.333 -15.5 49v388l6 103h-2c-23.333 -43.333 -43.333 -77.666 -60 -102.999l-310 -452h-99z" />
    <glyph glyph-name="uni041A" unicode="&#x41a;" horiz-adv-x="612" 
d="M99 0l0.00195312 598.002c0 14.667 -7.33301 22 -22 22h-43v86h101c22.667 0 39 -5 49 -15s15 -26.333 15 -49v-233h67c29.333 0 48.666 8 57.999 24l157 273h112l-171 -293c-6 -10.667 -12.333 -19.834 -19 -27.501s-11.667 -12.834 -15 -15.501l-6 -3v-2
c13.333 -3.33301 26.666 -18 39.999 -44l106 -212c7.33301 -15.333 24 -23 50 -23h19v-86h-55c-28.667 -0 -49.5 3.33301 -62.5 10s-24.833 21 -35.5 43l-122 245c-9.33301 17.333 -30.333 26 -63 26h-60v-324h-100z" />
    <glyph glyph-name="uni041B" unicode="&#x41b;" horiz-adv-x="683" 
d="M10 -5v90.999c58 8 99.333 49 124 123s37 185 37 333v78h-66v86h415c22.667 0 39 -5 49 -15s15 -26.333 15 -49v-534c0 -14.667 7.33301 -22 22 -22h43v-86h-101c-22.667 0 -39 5 -49 15s-15 26.333 -15 49v534c0 14.667 -7.33301 22 -22 22h-196v-79
c0 -178 -19.333 -312.167 -58 -402.5s-104.667 -138.166 -198 -143.499z" />
    </font>
</defs>
</svg>
